SplineFontDB: 3.0
FontName: Shabnam
FullName: Shabnam
FamilyName: Shabnam
Weight: Regular
Copyright: Copyright (c) 2003 by Bitstream, Inc. All Rights Reserved.\nDejaVu changes are in public domain\nCopyright (c) 2015 by Saber Rastikerdar. All Rights Reserved.
Version: 0.6
ItalicAngle: 0
UnderlinePosition: -100
UnderlineWidth: 100
Ascent: 1536
Descent: 512
InvalidEm: 0
LayerCount: 2
Layer: 0 1 "Back" 1
Layer: 1 1 "Fore" 0
XUID: [1021 502 1027637223 1088244]
UniqueID: 4178541
UseUniqueID: 1
FSType: 0
OS2Version: 1
OS2_WeightWidthSlopeOnly: 0
OS2_UseTypoMetrics: 1
CreationTime: 1431850356
ModificationTime: 1451549109
PfmFamily: 33
TTFWeight: 400
TTFWidth: 5
LineGap: 0
VLineGap: 0
Panose: 2 11 6 3 3 8 4 2 2 4
OS2TypoAscent: 2000
OS2TypoAOffset: 0
OS2TypoDescent: -1000
OS2TypoDOffset: 0
OS2TypoLinegap: 0
OS2WinAscent: 2000
OS2WinAOffset: 0
OS2WinDescent: 1000
OS2WinDOffset: 0
HheadAscent: 2000
HheadAOffset: 0
HheadDescent: -1000
HheadDOffset: 0
OS2SubXSize: 1331
OS2SubYSize: 1433
OS2SubXOff: 0
OS2SubYOff: 286
OS2SupXSize: 1331
OS2SupYSize: 1433
OS2SupXOff: 0
OS2SupYOff: 983
OS2StrikeYSize: 102
OS2StrikeYPos: 530
OS2Vendor: 'PfEd'
OS2CodePages: 600001ff.dfff0000
Lookup: 1 0 0 "'case' Case-Sensitive Forms in Latin lookup 0" { "'case' Case-Sensitive Forms in Latin lookup 0 subtable"  } ['case' ('DFLT' <'dflt' > 'latn' <'CAT ' 'ESP ' 'GAL ' 'dflt' > ) ]
Lookup: 6 1 0 "'ccmp' Glyph Composition/Decomposition lookup 2" { "'ccmp' Glyph Composition/Decomposition lookup 2 subtable"  } ['ccmp' ('arab' <'KUR ' 'SND ' 'URD ' 'dflt' > 'hebr' <'dflt' > 'nko ' <'dflt' > ) ]
Lookup: 6 0 0 "'ccmp' Glyph Composition/Decomposition lookup 3" { "'ccmp' Glyph Composition/Decomposition lookup 3 subtable"  } ['ccmp' ('cyrl' <'MKD ' 'SRB ' 'dflt' > 'grek' <'dflt' > 'latn' <'ISM ' 'KSM ' 'LSM ' 'MOL ' 'NSM ' 'ROM ' 'SKS ' 'SSM ' 'dflt' > ) ]

StartChar: exclam
Encoding: 33 33 1
Width: 932
VWidth: 2462
GlyphClass: 2
Flags: W
LayerCount: 2
Fore
SplineSet
339.9921875 133.516601562 m 0,0,1
 339.9921875 144.458007812 339.9921875 144.458007812 341.525390625 154.713867188 c 128,-1,2
 343.05859375 164.969726562 343.05859375 164.969726562 346.130859375 174.576171875 c 128,-1,3
 349.204101562 184.18359375 349.204101562 184.18359375 353.828125 193.150390625 c 128,-1,4
 358.452148438 202.116210938 358.452148438 202.116210938 364.625976562 210.456054688 c 128,-1,5
 370.798828125 218.796875 370.798828125 218.796875 378.541992188 226.541015625 c 0,6,7
 397.893554688 245.890625 397.893554688 245.890625 421.059570312 255.490234375 c 128,-1,8
 444.2265625 265.090820312 444.2265625 265.090820312 471.567382812 265.090820312 c 0,9,10
 526.041015625 265.090820312 526.041015625 265.090820312 564.590820312 226.541015625 c 128,-1,11
 603.140625 187.98828125 603.140625 187.98828125 603.140625 133.516601562 c 0,12,13
 603.140625 106.174804688 603.140625 106.174804688 593.540039062 83.0078125 c 128,-1,14
 583.939453125 59.8408203125 583.939453125 59.8408203125 564.588867188 40.4912109375 c 128,-1,15
 545.240234375 21.1416015625 545.240234375 21.1416015625 522.07421875 11.541015625 c 128,-1,16
 498.908203125 1.9404296875 498.908203125 1.9404296875 471.567382812 1.9404296875 c 0,17,18
 417.094726562 1.9404296875 417.094726562 1.9404296875 378.541992188 40.4921875 c 128,-1,19
 339.9921875 79.041015625 339.9921875 79.041015625 339.9921875 133.516601562 c 0,0,1
365.545898438 1669.4375 m 1,20,-1
 568.2734375 1669.4375 l 1,21,-1
 546.0703125 545.989257812 l 1,22,-1
 388.858398438 545.989257812 l 1,23,-1
 365.545898438 1669.4375 l 1,20,-1
EndSplineSet
EndChar

StartChar: parenleft
Encoding: 40 40 2
Width: 908
VWidth: 2462
GlyphClass: 2
Flags: W
GlyphCompositionVertical: 3  uni239D%0,0,48,2944 uni239C%1,48,48,2974 uni239B%0,48,0,2984
LayerCount: 2
Fore
SplineSet
626.147460938 1562.06738281 m 1,0,1
 496.879882812 1334.85351562 496.879882812 1334.85351562 433.05859375 1113.93261719 c 0,2,3
 365.978515625 881.732421875 365.978515625 881.732421875 365.978515625 643.3125 c 128,-1,4
 365.978515625 404.893554688 365.978515625 404.893554688 433.571289062 171.155273438 c 0,5,6
 455.030273438 96.94921875 455.030273438 96.94921875 483.650390625 22.2421875 c 128,-1,7
 512.271484375 -52.4638671875 512.271484375 -52.4638671875 547.892578125 -127.349609375 c 128,-1,8
 583.513671875 -202.236328125 583.513671875 -202.236328125 626.185546875 -277.48828125 c 1,9,-1
 493.814453125 -277.48828125 l 1,10,11
 344.040039062 -41.0576171875 344.040039062 -41.0576171875 269.5390625 185.946289062 c 0,12,13
 231.735351562 301.1328125 231.735351562 301.1328125 212.848632812 415.471679688 c 128,-1,14
 193.96484375 529.78515625 193.96484375 529.78515625 193.96484375 643.3125 c 0,15,16
 193.96484375 718.65234375 193.96484375 718.65234375 202.296875 794.329101562 c 128,-1,17
 210.629882812 870.012695312 210.629882812 870.012695312 227.310546875 946.08984375 c 0,18,19
 235.65234375 984.133789062 235.65234375 984.133789062 246.08203125 1022.27148438 c 128,-1,20
 256.51171875 1060.41015625 256.51171875 1060.41015625 269.030273438 1098.64257812 c 0,21,22
 305.963867188 1211.44238281 305.963867188 1211.44238281 362.356445312 1327.65917969 c 128,-1,23
 418.749023438 1443.875 418.749023438 1443.875 493.803710938 1562.06738281 c 1,24,-1
 626.147460938 1562.06738281 l 1,0,1
EndSplineSet
EndChar

StartChar: parenright
Encoding: 41 41 3
Width: 908
VWidth: 2462
GlyphClass: 2
Flags: W
GlyphCompositionVertical: 3  uni23A0%0,0,48,2944 uni239F%1,48,48,2974 uni239E%0,48,0,2984
LayerCount: 2
Fore
SplineSet
191.673828125 1562.06738281 m 1,0,-1
 324.071289062 1562.06738281 l 1,1,2
 473.865234375 1324.63476562 473.865234375 1324.63476562 548.37109375 1098.61621094 c 0,3,4
 623.940429688 869.374023438 623.940429688 869.374023438 623.940429688 643.3125 c 0,5,6
 623.940429688 597.908203125 623.940429688 597.908203125 620.919921875 552.383789062 c 128,-1,7
 617.900390625 506.858398438 617.900390625 506.858398438 611.858398438 461.192382812 c 128,-1,8
 605.81640625 415.5234375 605.81640625 415.5234375 596.749023438 369.7265625 c 128,-1,9
 587.68359375 323.928710938 587.68359375 323.928710938 575.587890625 277.98046875 c 128,-1,10
 563.491210938 232.033203125 563.491210938 232.033203125 548.366210938 185.946289062 c 0,11,12
 511.180664062 72.6435546875 511.180664062 72.6435546875 454.907226562 -43.5859375 c 128,-1,13
 398.6328125 -159.814453125 398.6328125 -159.814453125 324.087890625 -277.48828125 c 1,14,-1
 191.71875 -277.48828125 l 1,15,16
 256.33984375 -163.52734375 256.33984375 -163.52734375 304.178710938 -52.060546875 c 128,-1,17
 352.016601562 59.4052734375 352.016601562 59.4052734375 384.333007812 171.155273438 c 0,18,19
 391.090820312 194.522460938 391.090820312 194.522460938 397.173828125 217.939453125 c 128,-1,20
 403.255859375 241.35546875 403.255859375 241.35546875 408.662109375 264.821289062 c 128,-1,21
 414.069335938 288.287109375 414.069335938 288.287109375 418.80078125 311.80078125 c 128,-1,22
 423.532226562 335.314453125 423.532226562 335.314453125 427.588867188 358.876953125 c 128,-1,23
 431.64453125 382.439453125 431.64453125 382.439453125 435.024414062 406.049804688 c 0,24,25
 440.658203125 445.401367188 440.658203125 445.401367188 444.415039062 484.881835938 c 128,-1,26
 448.170898438 524.361328125 448.170898438 524.361328125 450.048828125 563.969726562 c 128,-1,27
 451.926757812 603.577148438 451.926757812 603.577148438 451.926757812 643.3125 c 0,28,29
 451.926757812 881.747070312 451.926757812 881.747070312 384.327148438 1113.95996094 c 0,30,31
 352.076171875 1224.74316406 352.076171875 1224.74316406 303.880859375 1336.79980469 c 128,-1,32
 255.686523438 1448.85742188 255.686523438 1448.85742188 191.673828125 1562.06738281 c 1,0,-1
EndSplineSet
EndChar

StartChar: period
Encoding: 46 46 4
Width: 599
VWidth: 2462
GlyphClass: 2
Flags: W
LayerCount: 2
Fore
SplineSet
170.233398438 130.4765625 m 0,0,1
 170.233398438 157.817382812 170.233398438 157.817382812 179.833984375 180.983398438 c 128,-1,2
 189.434570312 204.149414062 189.434570312 204.149414062 208.784179688 223.5 c 0,3,4
 247.336914062 262.051757812 247.336914062 262.051757812 301.810546875 262.051757812 c 0,5,6
 320.15625 262.051757812 320.15625 262.051757812 336.493164062 257.80078125 c 0,7,8
 339.751953125 256.953125 339.751953125 256.953125 342.9375 255.934570312 c 128,-1,9
 346.122070312 254.915039062 346.122070312 254.915039062 349.236328125 253.725585938 c 128,-1,10
 352.349609375 252.53515625 352.349609375 252.53515625 355.392578125 251.173828125 c 128,-1,11
 358.435546875 249.8125 358.435546875 249.8125 361.409179688 248.278320312 c 128,-1,12
 364.381835938 246.745117188 364.381835938 246.745117188 367.287109375 245.038085938 c 0,13,14
 381.84765625 236.484375 381.84765625 236.484375 394.833007812 223.5 c 0,15,16
 414.270507812 204.0625 414.270507812 204.0625 423.827148438 181 c 128,-1,17
 433.384765625 157.938476562 433.384765625 157.938476562 433.384765625 130.4765625 c 128,-1,18
 433.384765625 103.012695312 433.384765625 103.012695312 423.827148438 79.951171875 c 128,-1,19
 414.26953125 56.888671875 414.26953125 56.888671875 394.833007812 37.451171875 c 128,-1,20
 375.395507812 18.0146484375 375.395507812 18.0146484375 352.333984375 8.45703125 c 0,21,22
 340.811523438 3.6826171875 340.811523438 3.6826171875 328.1953125 1.291015625 c 128,-1,23
 315.578125 -1.099609375 315.578125 -1.099609375 301.810546875 -1.099609375 c 0,24,25
 247.336914062 -1.099609375 247.336914062 -1.099609375 208.784179688 37.453125 c 128,-1,26
 170.233398438 76.0009765625 170.233398438 76.0009765625 170.233398438 130.4765625 c 0,0,1
EndSplineSet
EndChar

StartChar: colon
Encoding: 58 58 5
Width: 783
VWidth: 2462
GlyphClass: 2
Flags: W
LayerCount: 2
Fore
SplineSet
265.026367188 856.4765625 m 0,0,1
 265.026367188 910.948242188 265.026367188 910.948242188 303.577148438 949.5 c 0,2,3
 308.455078125 954.376953125 308.455078125 954.376953125 313.55078125 958.625976562 c 128,-1,4
 318.647460938 962.875976562 318.647460938 962.875976562 323.958984375 966.495117188 c 128,-1,5
 329.270507812 970.115234375 329.270507812 970.115234375 334.795898438 973.111328125 c 128,-1,6
 340.3203125 976.108398438 340.3203125 976.108398438 346.077148438 978.494140625 c 0,7,8
 369.139648438 988.051757812 369.139648438 988.051757812 396.6015625 988.051757812 c 128,-1,9
 423.943359375 988.051757812 423.943359375 988.051757812 447.109375 978.451171875 c 128,-1,10
 470.275390625 968.850585938 470.275390625 968.850585938 489.625 949.5 c 128,-1,11
 508.974609375 930.149414062 508.974609375 930.149414062 518.575195312 906.983398438 c 128,-1,12
 528.17578125 883.817382812 528.17578125 883.817382812 528.17578125 856.4765625 c 0,13,14
 528.17578125 838.240234375 528.17578125 838.240234375 523.912109375 821.8828125 c 128,-1,15
 519.647460938 805.524414062 519.647460938 805.524414062 511.088867188 790.940429688 c 128,-1,16
 502.530273438 776.356445312 502.530273438 776.356445312 489.625 763.450195312 c 0,17,18
 479.9453125 753.770507812 479.9453125 753.770507812 469.333007812 746.541992188 c 128,-1,19
 458.719726562 739.3125 458.719726562 739.3125 447.108398438 734.500976562 c 128,-1,20
 435.497070312 729.689453125 435.497070312 729.689453125 422.888671875 727.294921875 c 128,-1,21
 410.279296875 724.900390625 410.279296875 724.900390625 396.6015625 724.900390625 c 0,22,23
 378.366210938 724.900390625 378.366210938 724.900390625 362.008789062 729.1640625 c 128,-1,24
 345.651367188 733.428710938 345.651367188 733.428710938 331.067382812 741.987304688 c 128,-1,25
 316.483398438 750.544921875 316.483398438 750.544921875 303.577148438 763.450195312 c 0,26,27
 284.227539062 782.80078125 284.227539062 782.80078125 274.626953125 805.967773438 c 128,-1,28
 265.026367188 829.134765625 265.026367188 829.134765625 265.026367188 856.4765625 c 0,0,1
265.026367188 130.4765625 m 128,-1,30
 265.026367188 184.948242188 265.026367188 184.948242188 303.577148438 223.5 c 0,31,32
 308.455078125 228.376953125 308.455078125 228.376953125 313.55078125 232.625976562 c 128,-1,33
 318.647460938 236.875976562 318.647460938 236.875976562 323.958984375 240.495117188 c 128,-1,34
 329.270507812 244.115234375 329.270507812 244.115234375 334.795898438 247.111328125 c 128,-1,35
 340.3203125 250.108398438 340.3203125 250.108398438 346.077148438 252.494140625 c 0,36,37
 369.139648438 262.051757812 369.139648438 262.051757812 396.6015625 262.051757812 c 128,-1,38
 424.064453125 262.051757812 424.064453125 262.051757812 447.126953125 252.494140625 c 0,39,40
 454.8046875 249.3125 454.8046875 249.3125 462.069335938 245.044921875 c 128,-1,41
 469.333984375 240.77734375 469.333984375 240.77734375 476.228515625 235.388671875 c 128,-1,42
 483.124023438 230.000976562 483.124023438 230.000976562 489.625 223.5 c 0,43,44
 502.609375 210.514648438 502.609375 210.514648438 511.163085938 195.954101562 c 128,-1,45
 519.688476562 181.440429688 519.688476562 181.440429688 523.924804688 165.158203125 c 0,46,47
 526.047851562 156.999023438 526.047851562 156.999023438 527.112304688 148.33203125 c 128,-1,48
 528.17578125 139.665039062 528.17578125 139.665039062 528.17578125 130.4765625 c 0,49,50
 528.17578125 76.001953125 528.17578125 76.001953125 489.625 37.451171875 c 128,-1,51
 451.075195312 -1.099609375 451.075195312 -1.099609375 396.6015625 -1.099609375 c 128,-1,52
 342.129882812 -1.099609375 342.129882812 -1.099609375 303.577148438 37.453125 c 128,-1,29
 265.026367188 76.0009765625 265.026367188 76.0009765625 265.026367188 130.4765625 c 128,-1,30
EndSplineSet
EndChar

StartChar: afii57388
Encoding: 1548 1548 7
Width: 790
VWidth: 2470
GlyphClass: 2
Flags: W
LayerCount: 2
Fore
SplineSet
413.274414062 -1.099609375 m 0,0,1
 350.451171875 -1.099609375 350.451171875 -1.099609375 313.024414062 29.21484375 c 128,-1,2
 275.596679688 59.529296875 275.596679688 59.529296875 262.426757812 121.086914062 c 0,3,4
 249.879882812 179.744140625 249.879882812 179.744140625 273.1015625 280.881835938 c 0,5,6
 315.455078125 465.34375 315.455078125 465.34375 511.305664062 654.4140625 c 1,7,-1
 573.157226562 609.165039062 l 1,8,9
 408.119140625 436.278320312 408.119140625 436.278320312 397.141601562 291.060546875 c 2,10,-1
 396.002929688 276.006835938 l 1,11,-1
 411.09765625 276.221679688 l 2,12,13
 422.267578125 276.380859375 422.267578125 276.380859375 432.618164062 275.819335938 c 0,14,15
 479.889648438 273.256835938 479.889648438 273.256835938 509.497070312 256.201171875 c 0,16,17
 538.658203125 239.401367188 538.658203125 239.401367188 551.70703125 207.649414062 c 0,18,19
 564.97265625 175.368164062 564.97265625 175.368164062 562.170898438 126.5703125 c 0,20,21
 560.189453125 93.849609375 560.189453125 93.849609375 550.1328125 69.873046875 c 128,-1,22
 540.077148438 45.896484375 540.077148438 45.896484375 522.0703125 30.328125 c 0,23,24
 485.721679688 -1.099609375 485.721679688 -1.099609375 413.274414062 -1.099609375 c 0,0,1
EndSplineSet
EndChar

StartChar: uni0615
Encoding: 1557 1557 8
Width: 0
VWidth: 2629
GlyphClass: 4
Flags: W
AnchorPoint: "Anchor-10" 662.887 1533.29 mark 0
AnchorPoint: "Anchor-9" 662.887 1533.29 mark 0
AnchorPoint: "Anchor-1" 662.887 2374.85 basemark 0
AnchorPoint: "Anchor-1" 662.887 1533.29 mark 0
LayerCount: 2
Fore
SplineSet
535.133789062 1734.22167969 m 1,0,-1
 668.065429688 1734.22167969 l 2,1,2
 704.3203125 1734.22167969 704.3203125 1734.22167969 731.337890625 1736.25390625 c 0,3,4
 744.921875 1737.27539062 744.921875 1737.27539062 756.827148438 1738.94140625 c 128,-1,5
 768.733398438 1740.60742188 768.733398438 1740.60742188 778.993164062 1742.92871094 c 128,-1,6
 789.42578125 1745.2890625 789.42578125 1745.2890625 797.82421875 1748.35058594 c 128,-1,7
 806.22265625 1751.41210938 806.22265625 1751.41210938 812.8515625 1755.328125 c 128,-1,8
 819.443359375 1759.43359375 819.443359375 1759.43359375 825.467773438 1763.39941406 c 128,-1,9
 831.4921875 1767.36523438 831.4921875 1767.36523438 837.002929688 1771.22949219 c 128,-1,10
 842.513671875 1775.09375 842.513671875 1775.09375 847.479492188 1778.83886719 c 128,-1,11
 852.4453125 1782.58496094 852.4453125 1782.58496094 856.895507812 1786.23339844 c 128,-1,12
 861.346679688 1789.88183594 861.346679688 1789.88183594 865.276367188 1793.43457031 c 128,-1,13
 869.206054688 1796.98632812 869.206054688 1796.98632812 872.62109375 1800.44726562 c 0,14,15
 883.764648438 1811.73144531 883.764648438 1811.73144531 889.666992188 1824.21191406 c 0,16,17
 892.661132812 1830.54394531 892.661132812 1830.54394531 894.172851562 1837.13574219 c 128,-1,18
 895.684570312 1843.72851562 895.684570312 1843.72851562 895.684570312 1850.49707031 c 0,19,20
 895.684570312 1862.09765625 895.684570312 1862.09765625 893.431640625 1872.66894531 c 128,-1,21
 891.178710938 1883.24121094 891.178710938 1883.24121094 886.709960938 1892.68457031 c 128,-1,22
 882.240234375 1902.12890625 882.240234375 1902.12890625 875.5859375 1910.46777344 c 128,-1,23
 868.930664062 1918.80761719 868.930664062 1918.80761719 860.116210938 1925.98925781 c 128,-1,24
 851.30078125 1933.171875 851.30078125 1933.171875 840.3671875 1939.17382812 c 2,25,-1
 839.358398438 1939.72753906 l 2,26,27
 825.161132812 1944.67871094 825.161132812 1944.67871094 810.700195312 1941.09863281 c 2,28,-1
 800.225585938 1937.78808594 l 2,29,30
 798.212890625 1937.05566406 798.212890625 1937.05566406 796.03125 1936.21582031 c 128,-1,31
 793.849609375 1935.375 793.849609375 1935.375 791.509765625 1934.4296875 c 128,-1,32
 789.168945312 1933.48535156 789.168945312 1933.48535156 786.654296875 1932.4296875 c 0,33,34
 782.897460938 1930.85351562 782.897460938 1930.85351562 778.517578125 1928.94335938 c 128,-1,35
 774.137695312 1927.03417969 774.137695312 1927.03417969 769.126953125 1924.78710938 c 0,36,37
 740.615234375 1912.00097656 740.615234375 1912.00097656 723.08984375 1905.0859375 c 0,38,39
 685.702148438 1889.98828125 685.702148438 1889.98828125 648.434570312 1859.27734375 c 128,-1,40
 611.166015625 1828.56640625 611.166015625 1828.56640625 573.862304688 1782.28417969 c 2,41,-1
 535.133789062 1734.22167969 l 1,0,-1
697.84375 1662.51660156 m 2,42,-1
 355.794921875 1662.51660156 l 1,43,-1
 355.794921875 1734.22167969 l 1,44,-1
 460.665039062 1734.22167969 l 1,45,-1
 460.665039062 2250.80761719 l 1,46,-1
 533.665039062 2250.80761719 l 1,47,-1
 533.665039062 1738.09960938 l 1,48,-1
 589.678710938 1851.67578125 l 2,49,50
 594.83984375 1862.14160156 594.83984375 1862.14160156 601.2734375 1872.04199219 c 128,-1,51
 607.708007812 1881.94335938 607.708007812 1881.94335938 615.432617188 1891.30273438 c 128,-1,52
 623.158203125 1900.66308594 623.158203125 1900.66308594 632.174804688 1909.45898438 c 128,-1,53
 641.192382812 1918.25585938 641.192382812 1918.25585938 651.50390625 1926.5 c 128,-1,54
 661.814453125 1934.74316406 661.814453125 1934.74316406 673.438476562 1942.42578125 c 128,-1,55
 685.0625 1950.10839844 685.0625 1950.10839844 697.983398438 1957.22558594 c 128,-1,56
 710.903320312 1964.34375 710.903320312 1964.34375 725.157226562 1970.90234375 c 128,-1,57
 739.411132812 1977.45996094 739.411132812 1977.45996094 754.965820312 1983.44238281 c 0,58,59
 778.693359375 1992.48242188 778.693359375 1992.48242188 803.2578125 1995.22949219 c 0,60,61
 809.397460938 1995.91601562 809.397460938 1995.91601562 815.60546875 1996.20800781 c 128,-1,62
 821.813476562 1996.5 821.813476562 1996.5 828.096679688 1996.39746094 c 128,-1,63
 834.37890625 1996.29394531 834.37890625 1996.29394531 840.73828125 1995.79589844 c 128,-1,64
 847.096679688 1995.296875 847.096679688 1995.296875 853.529296875 1994.40234375 c 0,65,66
 879.307617188 1990.81640625 879.307617188 1990.81640625 906.198242188 1980.828125 c 0,67,68
 927.928710938 1972.46972656 927.928710938 1972.46972656 942.330078125 1957.59863281 c 128,-1,69
 956.731445312 1942.72753906 956.731445312 1942.72753906 964.001953125 1920.8359375 c 128,-1,70
 971.2734375 1898.94433594 971.2734375 1898.94433594 971.2734375 1869.91699219 c 0,71,72
 971.2734375 1843.91796875 971.2734375 1843.91796875 966.806640625 1821.0078125 c 128,-1,73
 962.340820312 1798.09863281 962.340820312 1798.09863281 953.39453125 1778.22851562 c 128,-1,74
 944.44921875 1758.35839844 944.44921875 1758.35839844 931.069335938 1741.49804688 c 128,-1,75
 917.689453125 1724.63867188 917.689453125 1724.63867188 899.8125 1710.67285156 c 0,76,77
 879.369140625 1694.77441406 879.369140625 1694.77441406 850.252929688 1684.09179688 c 128,-1,78
 821.135742188 1673.41015625 821.135742188 1673.41015625 782.9140625 1667.96289062 c 128,-1,79
 744.692382812 1662.51660156 744.692382812 1662.51660156 697.84375 1662.51660156 c 2,42,-1
EndSplineSet
EndChar

StartChar: uni061B
Encoding: 1563 1563 9
Width: 790
VWidth: 2470
GlyphClass: 2
Flags: W
LayerCount: 2
Fore
SplineSet
256.973632812 130.4765625 m 128,-1,1
 256.973632812 184.948242188 256.973632812 184.948242188 295.524414062 223.5 c 128,-1,2
 334.076171875 262.051757812 334.076171875 262.051757812 388.548828125 262.051757812 c 0,3,4
 392.227539062 262.051757812 392.227539062 262.051757812 395.82421875 261.880859375 c 128,-1,5
 399.421875 261.709960938 399.421875 261.709960938 402.928710938 261.369140625 c 128,-1,6
 406.436523438 261.029296875 406.436523438 261.029296875 409.864257812 260.518554688 c 128,-1,7
 413.291015625 260.0078125 413.291015625 260.0078125 416.630859375 259.328125 c 128,-1,8
 419.969726562 258.649414062 419.969726562 258.649414062 423.231445312 257.80078125 c 0,9,10
 439.513671875 253.563476562 439.513671875 253.563476562 454.026367188 245.038085938 c 0,11,12
 457.66015625 242.903320312 457.66015625 242.903320312 461.194335938 240.494140625 c 128,-1,13
 464.729492188 238.083984375 464.729492188 238.083984375 468.172851562 235.393554688 c 128,-1,14
 471.616210938 232.702148438 471.616210938 232.702148438 474.967773438 229.728515625 c 128,-1,15
 478.318359375 226.75390625 478.318359375 226.75390625 481.573242188 223.5 c 0,16,17
 486.450195312 218.622070312 486.450195312 218.622070312 490.69921875 213.526367188 c 128,-1,18
 494.94921875 208.4296875 494.94921875 208.4296875 498.568359375 203.118164062 c 128,-1,19
 502.188476562 197.806640625 502.188476562 197.806640625 505.184570312 192.28125 c 128,-1,20
 508.181640625 186.756835938 508.181640625 186.756835938 510.567382812 181 c 0,21,22
 520.124023438 157.938476562 520.124023438 157.938476562 520.124023438 130.4765625 c 128,-1,23
 520.124023438 103.134765625 520.124023438 103.134765625 510.5234375 79.9677734375 c 128,-1,24
 500.922851562 56.80078125 500.922851562 56.80078125 481.572265625 37.451171875 c 0,25,26
 468.666015625 24.5458984375 468.666015625 24.5458984375 454.08203125 15.9873046875 c 128,-1,27
 439.498046875 7.427734375 439.498046875 7.427734375 423.140625 3.1640625 c 128,-1,28
 406.783203125 -1.099609375 406.783203125 -1.099609375 388.548828125 -1.099609375 c 0,29,30
 334.076171875 -1.099609375 334.076171875 -1.099609375 295.524414062 37.453125 c 128,-1,0
 256.973632812 76.0009765625 256.973632812 76.0009765625 256.973632812 130.4765625 c 128,-1,1
398.908203125 523.569335938 m 0,31,32
 384.69140625 523.569335938 384.69140625 523.569335938 371.809570312 525.072265625 c 128,-1,33
 358.927734375 526.575195312 358.927734375 526.575195312 347.482421875 529.543945312 c 128,-1,34
 336.038085938 532.513671875 336.038085938 532.513671875 325.916992188 536.954101562 c 0,35,36
 310.7734375 543.59765625 310.7734375 543.59765625 298.4296875 553.595703125 c 128,-1,37
 286.084960938 563.59375 286.084960938 563.59375 276.426757812 577.0390625 c 0,38,39
 256.966796875 604.130859375 256.966796875 604.130859375 248.0625 645.755859375 c 0,40,41
 241.810546875 674.555664062 241.810546875 674.555664062 244.4609375 714.741210938 c 128,-1,42
 247.111328125 754.927734375 247.111328125 754.927734375 258.734375 805.55078125 c 0,43,44
 301.088867188 990.013671875 301.088867188 990.013671875 496.939453125 1179.08398438 c 1,45,-1
 558.790039062 1133.83496094 l 1,46,47
 527.1640625 1100.70996094 527.1640625 1100.70996094 501.637695312 1069.32421875 c 0,48,49
 474.275390625 1035.68066406 474.275390625 1035.68066406 453.10546875 1003.06347656 c 0,50,51
 447.807617188 994.900390625 447.807617188 994.900390625 442.907226562 986.806640625 c 128,-1,52
 438.0078125 978.713867188 438.0078125 978.713867188 433.502929688 970.686523438 c 128,-1,53
 428.999023438 962.658203125 428.999023438 962.658203125 424.890625 954.6953125 c 128,-1,54
 420.782226562 946.732421875 420.782226562 946.732421875 417.073242188 938.838867188 c 0,55,56
 402.217773438 907.224609375 402.217773438 907.224609375 393.638671875 876.494140625 c 128,-1,57
 385.040039062 845.692382812 385.040039062 845.692382812 382.774414062 815.729492188 c 2,58,-1
 381.635742188 800.67578125 l 1,59,-1
 396.731445312 800.890625 l 2,60,61
 407.900390625 801.048828125 407.900390625 801.048828125 418.251953125 800.48828125 c 0,62,63
 430.138671875 799.84375 430.138671875 799.84375 440.916015625 798.279296875 c 128,-1,64
 451.694335938 796.715820312 451.694335938 796.715820312 461.29296875 794.249023438 c 128,-1,65
 470.891601562 791.783203125 470.891601562 791.783203125 479.341796875 788.440429688 c 128,-1,66
 487.791015625 785.09765625 487.791015625 785.09765625 495.129882812 780.870117188 c 0,67,68
 524.291992188 764.071289062 524.291992188 764.071289062 537.33984375 732.319335938 c 0,69,70
 543.930664062 716.282226562 543.930664062 716.282226562 546.569335938 695.9921875 c 128,-1,71
 549.208984375 675.702148438 549.208984375 675.702148438 547.803710938 651.240234375 c 0,72,73
 543.868164062 586.265625 543.868164062 586.265625 507.703125 554.997070312 c 128,-1,74
 471.354492188 523.569335938 471.354492188 523.569335938 398.908203125 523.569335938 c 0,31,32
EndSplineSet
EndChar

StartChar: uni061F
Encoding: 1567 1567 10
Width: 1322
VWidth: 2470
GlyphClass: 2
Flags: W
LayerCount: 2
Fore
SplineSet
588.572265625 130.4765625 m 0,0,1
 588.572265625 139.6640625 588.572265625 139.6640625 589.633789062 148.330078125 c 0,2,3
 589.845703125 150.059570312 589.845703125 150.059570312 590.100585938 151.771484375 c 128,-1,4
 590.35546875 153.482421875 590.35546875 153.482421875 590.65234375 155.172851562 c 128,-1,5
 590.950195312 156.86328125 590.950195312 156.86328125 591.290039062 158.536132812 c 128,-1,6
 591.629882812 160.208007812 591.629882812 160.208007812 592.01171875 161.860351562 c 128,-1,7
 592.39453125 163.512695312 592.39453125 163.512695312 592.819335938 165.146484375 c 0,8,9
 593.880859375 169.228515625 593.880859375 169.228515625 595.208984375 173.192382812 c 128,-1,10
 596.536132812 177.155273438 596.536132812 177.155273438 598.12890625 181 c 0,11,12
 598.765625 182.537109375 598.765625 182.537109375 599.446289062 184.05859375 c 128,-1,13
 600.127929688 185.579101562 600.127929688 185.579101562 600.8515625 187.083984375 c 128,-1,14
 601.576171875 188.588867188 601.576171875 188.588867188 602.34375 190.077148438 c 128,-1,15
 603.112304688 191.565429688 603.112304688 191.565429688 603.923828125 193.037109375 c 128,-1,16
 604.735351562 194.508789062 604.735351562 194.508789062 605.58984375 195.96484375 c 0,17,18
 609.872070312 203.250976562 609.872070312 203.250976562 615.23828125 210.11328125 c 128,-1,19
 620.62109375 216.99609375 620.62109375 216.99609375 627.124023438 223.5 c 0,20,21
 646.561523438 242.936523438 646.561523438 242.936523438 669.624023438 252.494140625 c 128,-1,22
 692.686523438 262.051757812 692.686523438 262.051757812 720.147460938 262.051757812 c 0,23,24
 729.333007812 262.051757812 729.333007812 262.051757812 738.012695312 260.985351562 c 128,-1,25
 746.692382812 259.918945312 746.692382812 259.918945312 754.842773438 257.797851562 c 128,-1,26
 762.994140625 255.67578125 762.994140625 255.67578125 770.671875 252.494140625 c 128,-1,27
 778.349609375 249.3125 778.349609375 249.3125 785.614257812 245.044921875 c 128,-1,28
 792.87890625 240.77734375 792.87890625 240.77734375 799.774414062 235.388671875 c 128,-1,29
 806.668945312 230 806.668945312 230 813.170898438 223.498046875 c 0,30,31
 822.916015625 213.75390625 822.916015625 213.75390625 830.153320312 203.138671875 c 128,-1,32
 837.390625 192.522460938 837.390625 192.522460938 842.166015625 181 c 128,-1,33
 846.94140625 169.477539062 846.94140625 169.477539062 849.33203125 156.861328125 c 128,-1,34
 851.723632812 144.245117188 851.723632812 144.245117188 851.723632812 130.4765625 c 0,35,36
 851.723632812 112.240234375 851.723632812 112.240234375 847.458984375 95.8828125 c 128,-1,37
 843.1953125 79.525390625 843.1953125 79.525390625 834.635742188 64.94140625 c 128,-1,38
 826.076171875 50.357421875 826.076171875 50.357421875 813.168945312 37.451171875 c 0,39,40
 793.8203125 18.1015625 793.8203125 18.1015625 770.654296875 8.5009765625 c 128,-1,41
 747.48828125 -1.099609375 747.48828125 -1.099609375 720.147460938 -1.099609375 c 128,-1,42
 692.806640625 -1.099609375 692.806640625 -1.099609375 669.640625 8.5009765625 c 128,-1,43
 646.474609375 18.1015625 646.474609375 18.1015625 627.124023438 37.453125 c 0,44,45
 617.444335938 47.1318359375 617.444335938 47.1318359375 610.21484375 57.7451171875 c 128,-1,46
 602.985351562 68.357421875 602.985351562 68.357421875 598.173828125 79.96875 c 128,-1,47
 593.361328125 91.580078125 593.361328125 91.580078125 590.966796875 104.189453125 c 128,-1,48
 588.572265625 116.798828125 588.572265625 116.798828125 588.572265625 130.4765625 c 0,0,1
640.747070312 496.590820312 m 1,49,-1
 640.747070312 521 l 2,50,51
 640.729492188 523.395507812 640.729492188 523.395507812 640.677734375 525.936523438 c 128,-1,52
 640.625976562 528.4765625 640.625976562 528.4765625 640.540039062 531.163085938 c 128,-1,53
 640.454101562 533.848632812 640.454101562 533.848632812 640.333007812 536.6796875 c 128,-1,54
 640.212890625 539.510742188 640.212890625 539.510742188 640.057617188 542.490234375 c 128,-1,55
 639.90234375 545.46875 639.90234375 545.46875 639.712890625 548.59375 c 128,-1,56
 639.5234375 551.71875 639.5234375 551.71875 639.299804688 554.993164062 c 128,-1,57
 639.075195312 558.268554688 639.075195312 558.268554688 638.817382812 561.689453125 c 128,-1,58
 638.559570312 565.110351562 638.559570312 565.110351562 638.266601562 568.68359375 c 128,-1,59
 637.973632812 572.256835938 637.973632812 572.256835938 637.646484375 575.9765625 c 128,-1,60
 637.319335938 579.696289062 637.319335938 579.696289062 636.958007812 583.571289062 c 0,61,62
 635.04296875 603.2890625 635.04296875 603.2890625 632.044921875 620.125 c 128,-1,63
 629.047851562 636.961914062 629.047851562 636.961914062 624.909179688 651.141601562 c 0,64,65
 623.048828125 656.995117188 623.048828125 656.995117188 620.758789062 662.873046875 c 128,-1,66
 618.46875 668.75 618.46875 668.75 615.75 674.651367188 c 128,-1,67
 613.03125 680.551757812 613.03125 680.551757812 609.88671875 686.48046875 c 128,-1,68
 606.741210938 692.409179688 606.741210938 692.409179688 603.16015625 698.383789062 c 128,-1,69
 599.578125 704.357421875 599.578125 704.357421875 595.57421875 710.362304688 c 128,-1,70
 591.5703125 716.3671875 591.5703125 716.3671875 587.123046875 722.438476562 c 0,71,72
 558.846679688 760.961914062 558.846679688 760.961914062 503.197265625 815.346679688 c 2,73,-1
 395.924804688 920.1796875 l 2,74,75
 342.526367188 971.259765625 342.526367188 971.259765625 305.497070312 1016.58886719 c 128,-1,76
 268.59375 1061.76464844 268.59375 1061.76464844 248.008789062 1100.96386719 c 0,77,78
 207.403320312 1177.93945312 207.403320312 1177.93945312 207.487304688 1263.51953125 c 0,79,80
 207.403320312 1444.11914062 207.403320312 1444.11914062 333.3359375 1553.47460938 c 0,81,82
 462.501953125 1665.28125 462.501953125 1665.28125 674.177734375 1664.53710938 c 0,83,84
 714.608398438 1664.390625 714.608398438 1664.390625 754.196289062 1660.67578125 c 0,85,86
 773.98828125 1658.81835938 773.98828125 1658.81835938 793.563476562 1656.07128906 c 128,-1,87
 813.138671875 1653.32324219 813.138671875 1653.32324219 832.498046875 1649.68457031 c 0,88,89
 871.215820312 1642.40820312 871.215820312 1642.40820312 909.079101562 1631.57226562 c 0,90,91
 961.407226562 1616.48535156 961.407226562 1616.48535156 1013.3984375 1593.89453125 c 128,-1,92
 1065.38964844 1571.30371094 1065.38964844 1571.30371094 1117.02148438 1541.28125 c 1,93,-1
 1061.64355469 1396.66113281 l 1,94,95
 1021.33398438 1420.80273438 1021.33398438 1420.80273438 990.829101562 1436.84765625 c 0,96,97
 957.956054688 1454.13867188 957.956054688 1454.13867188 932.311523438 1464.25097656 c 0,98,99
 894.395507812 1479.10644531 894.395507812 1479.10644531 857.844726562 1489.02148438 c 128,-1,100
 821.272460938 1498.94238281 821.272460938 1498.94238281 785.998046875 1503.8984375 c 128,-1,101
 750.682617188 1508.86035156 750.682617188 1508.86035156 716.83984375 1508.79785156 c 0,102,103
 691.1953125 1508.82910156 691.1953125 1508.82910156 667.810546875 1507.23730469 c 128,-1,104
 644.424804688 1505.64550781 644.424804688 1505.64550781 623.286132812 1502.42480469 c 128,-1,105
 602.099609375 1499.19628906 602.099609375 1499.19628906 582.978515625 1494.23535156 c 128,-1,106
 563.858398438 1489.27441406 563.858398438 1489.27441406 546.798828125 1482.56933594 c 0,107,108
 512.51953125 1469.09472656 512.51953125 1469.09472656 487.369140625 1448.55664062 c 0,109,110
 442.549804688 1411.01464844 442.549804688 1411.01464844 420.020507812 1361.60644531 c 128,-1,111
 397.491210938 1312.19921875 397.491210938 1312.19921875 397.370117188 1251.29003906 c 0,112,113
 397.400390625 1242.90820312 397.400390625 1242.90820312 397.96484375 1234.57714844 c 128,-1,114
 398.529296875 1226.24609375 398.529296875 1226.24609375 399.62890625 1217.96679688 c 128,-1,115
 400.7265625 1209.68847656 400.7265625 1209.68847656 402.358398438 1201.46875 c 128,-1,116
 403.990234375 1193.24902344 403.990234375 1193.24902344 406.153320312 1185.09082031 c 128,-1,117
 408.315429688 1176.93554688 408.315429688 1176.93554688 411.006835938 1168.84082031 c 128,-1,118
 413.697265625 1160.74609375 413.697265625 1160.74609375 416.915039062 1152.71289062 c 0,119,120
 423.345703125 1136.66210938 423.345703125 1136.66210938 431.909179688 1120.79980469 c 0,121,122
 437.5859375 1110.5 437.5859375 1110.5 444.333007812 1100.04101562 c 128,-1,123
 451.081054688 1089.58105469 451.081054688 1089.58105469 458.899414062 1078.95507812 c 0,124,125
 474.505859375 1057.74804688 474.505859375 1057.74804688 494.185546875 1036.06640625 c 128,-1,126
 513.830078125 1014.42578125 513.830078125 1014.42578125 537.590820312 992.180664062 c 2,127,-1
 647.008789062 883.985351562 l 2,128,129
 701.276367188 832.2578125 701.276367188 832.2578125 735.591796875 788.587890625 c 128,-1,130
 769.907226562 744.91796875 769.907226562 744.91796875 784.149414062 709.727539062 c 0,131,132
 800.021484375 670.211914062 800.021484375 670.211914062 808.012695312 622.517578125 c 128,-1,133
 816.025390625 574.69921875 816.025390625 574.69921875 816.025390625 518.696289062 c 2,134,-1
 816.025390625 496.590820312 l 1,135,-1
 640.747070312 496.590820312 l 1,49,-1
EndSplineSet
EndChar

StartChar: uni0621
Encoding: 1569 1569 11
Width: 1023
VWidth: 2629
GlyphClass: 2
Flags: W
AnchorPoint: "Anchor-7" 534.82 -223.02 basechar 0
AnchorPoint: "Anchor-10" 470.085 1498.21 basechar 0
LayerCount: 2
Fore
SplineSet
135.295898438 4.6474609375 m 1,0,-1
 135.295898438 173.419921875 l 1,1,2
 325.373046875 222.497070312 325.373046875 222.497070312 478.884765625 302.99609375 c 2,3,-1
 514.91796875 321.890625 l 1,4,-1
 474.82421875 328.815429688 l 2,5,6
 428.881835938 336.750976562 428.881835938 336.750976562 389.712890625 348.8671875 c 128,-1,7
 350.543945312 360.983398438 350.543945312 360.983398438 318.170898438 377.244140625 c 0,8,9
 253.665039062 409.645507812 253.665039062 409.645507812 215.509765625 458.260742188 c 0,10,11
 179.466796875 504.180664062 179.466796875 504.180664062 161.450195312 560.068359375 c 128,-1,12
 143.43359375 615.956054688 143.43359375 615.956054688 143.43359375 682.059570312 c 0,13,14
 143.43359375 925.944335938 143.43359375 925.944335938 325.819335938 1037.50097656 c 0,15,16
 510.44921875 1151.26367188 510.44921875 1151.26367188 794.794921875 1089.63183594 c 1,17,-1
 794.794921875 912.995117188 l 1,18,19
 684.692382812 943.002929688 684.692382812 943.002929688 603.577148438 940.684570312 c 0,20,21
 464.780273438 937.963867188 464.780273438 937.963867188 393.559570312 869.060546875 c 128,-1,22
 322.229492188 800.05078125 322.229492188 800.05078125 322.229492188 667.772460938 c 0,23,24
 322.229492188 484.475585938 322.229492188 484.475585938 567.407226562 436.200195312 c 0,25,26
 704.4453125 409.216796875 704.4453125 409.216796875 806.2578125 438.912109375 c 0,27,28
 853.935546875 452.818359375 853.935546875 452.818359375 898.37109375 476.056640625 c 1,29,-1
 898.37109375 301.706054688 l 1,30,31
 857.713867188 273.232421875 857.713867188 273.232421875 534.985351562 133.272460938 c 1,32,33
 401.170898438 80.755859375 401.170898438 80.755859375 298.888671875 48.109375 c 0,34,35
 201.405273438 16.9931640625 201.405273438 16.9931640625 135.295898438 4.6474609375 c 1,0,-1
EndSplineSet
EndChar

StartChar: uni0627
Encoding: 1575 1575 17
Width: 495
VWidth: 2629
GlyphClass: 2
Flags: W
AnchorPoint: "Anchor-10" 241.585 1559.19 basechar 0
AnchorPoint: "Anchor-7" 240.005 -299.855 basechar 0
LayerCount: 2
Fore
SplineSet
160.102539062 1424.4609375 m 1,0,-1
 334.426757812 1424.4609375 l 1,1,-1
 334.426757812 0.7158203125 l 1,2,-1
 160.102539062 0.7158203125 l 1,3,-1
 160.102539062 1424.4609375 l 1,0,-1
EndSplineSet
Substitution2: "'fina' Terminal Forms in Arabic lookup 9 subtable" uniFE8E
EndChar

StartChar: uni062D
Encoding: 1581 1581 23
Width: 1365
VWidth: 2629
GlyphClass: 2
Flags: W
AnchorPoint: "Anchor-10" 607.886 1492.69 basechar 0
AnchorPoint: "Anchor-7" 317.376 -924.215 basechar 0
LayerCount: 2
Fore
SplineSet
946.521484375 507.87890625 m 4,0,1
 274 260 274 260 258.967773438 -146.262695312 c 4,2,3
 241.015625 -602.592773438 241.015625 -602.592773438 835.415039062 -602.240234375 c 6,4,-1
 1273.53613281 -601.98046875 l 5,5,-1
 1273.53613281 -778.833984375 l 5,6,-1
 822.119140625 -777.919921875 l 6,7,8
 423 -777 423 -777 250.7890625 -612.758789062 c 4,9,10
 79 -448 79 -448 91.734375 -147.375976562 c 4,11,12
 117 441 117 441 993 673 c 5,13,14
 851 725 851 725 739 760 c 0,15,16
 558 818 558 818 467.432617188 811.725585938 c 0,17,18
 364 805 364 805 286.3125 627.373046875 c 1,19,-1
 145.016601562 680.615234375 l 1,20,21
 175 758 175 758 201.538085938 807.344726562 c 0,22,23
 316.453125 1023.85253906 316.453125 1023.85253906 566.744140625 972.3828125 c 0,24,25
 663 953 663 953 881.217773438 870.657226562 c 2,26,-1
 1254.91015625 730.28125 l 1,27,-1
 1254.8359375 576.225585938 l 5,28,29
 1095 562 1095 562 946.521484375 507.87890625 c 4,0,1
EndSplineSet
Substitution2: "'fina' Terminal Forms in Arabic lookup 9 subtable" uniFEA2
Substitution2: "'medi' Medial Forms in Arabic lookup 11 subtable" uniFEA4
Substitution2: "'init' Initial Forms in Arabic lookup 13 subtable" uniFEA3
EndChar

StartChar: uni062F
Encoding: 1583 1583 25
Width: 1059
VWidth: 2629
GlyphClass: 2
Flags: W
AnchorPoint: "Anchor-10" 369.752 1337.28 basechar 0
AnchorPoint: "Anchor-7" 424.105 -314.98 basechar 0
LayerCount: 2
Fore
SplineSet
528.846679688 -1.0966796875 m 6,0,-1
 123.607421875 -1.0947265625 l 5,1,-1
 123.607421875 187.888671875 l 5,2,3
 378.65625 186.89453125 378.65625 186.89453125 439.096679688 187.860351562 c 4,4,5
 646.333984375 190.678710938 646.333984375 190.678710938 698.37890625 210.930664062 c 4,6,7
 800.58984375 250.719726562 800.58984375 250.719726562 755.51171875 371.8828125 c 4,8,9
 734.607421875 428.064453125 734.607421875 428.064453125 570.545898438 617.6015625 c 6,10,-1
 383.688476562 833.473632812 l 5,11,-1
 500.6875 964.051757812 l 5,12,-1
 669.383789062 770.840820312 l 6,13,14
 769.001953125 656.745117188 769.001953125 656.745117188 821.546875 596.418945312 c 132,-1,15
 874.091796875 536.092773438 874.091796875 536.092773438 877.09765625 532.377929688 c 4,16,17
 992.342773438 369.895507812 992.342773438 369.895507812 939.333007812 207.977539062 c 4,18,19
 867.584960938 -1.7978515625 867.584960938 -1.7978515625 528.846679688 -1.0966796875 c 6,0,-1
EndSplineSet
Substitution2: "'fina' Terminal Forms in Arabic lookup 9 subtable" uniFEAA
EndChar

StartChar: uni0631
Encoding: 1585 1585 27
Width: 770
VWidth: 2629
GlyphClass: 2
Flags: W
AnchorPoint: "Anchor-10" 459.307 961.102 basechar 0
AnchorPoint: "Anchor-7" 339.173 -896.523 basechar 0
LayerCount: 2
Fore
SplineSet
493.177734375 -21.1015625 m 2,0,-1
 493.178710938 559.426757812 l 1,1,-1
 678.537109375 560.481445312 l 1,2,-1
 678.537109375 -18.529296875 l 2,3,4
 678.53515625 -192.38671875 678.53515625 -192.38671875 617.517578125 -307.674804688 c 0,5,6
 587.0859375 -365.170898438 587.0859375 -365.170898438 541.313476562 -408.328125 c 128,-1,7
 495.541015625 -451.486328125 495.541015625 -451.486328125 434.241210938 -480.452148438 c 0,8,9
 311.28125 -538.553710938 311.28125 -538.553710938 125.173828125 -539.600585938 c 2,10,-1
 20.56640625 -540.189453125 l 1,11,-1
 20.5693359375 -352.9609375 l 1,12,-1
 122.903320312 -353.03125 l 2,13,14
 305.856445312 -352.081054688 305.856445312 -352.081054688 399.385742188 -268.651367188 c 0,15,16
 430.702148438 -240.715820312 430.702148438 -240.715820312 451.571289062 -203.752929688 c 128,-1,17
 472.44140625 -166.790039062 472.44140625 -166.790039062 482.809570312 -121.15234375 c 128,-1,18
 493.176757812 -75.5146484375 493.176757812 -75.5146484375 493.177734375 -21.1015625 c 2,0,-1
EndSplineSet
PairPos2: "'kern' Horizontal Kerning lookup 15-2" uniFB90 dx=-150 dy=0 dh=-150 dv=0 dx=0 dy=0 dh=0 dv=0
PairPos2: "'kern' Horizontal Kerning lookup 15-2" uniFB8E dx=-150 dy=0 dh=-150 dv=0 dx=0 dy=0 dh=0 dv=0
PairPos2: "'kern' Horizontal Kerning lookup 15-2" uni06A9 dx=-150 dy=0 dh=-150 dv=0 dx=0 dy=0 dh=0 dv=0
PairPos2: "'kern' Horizontal Kerning lookup 15-2" uni064A dx=-50 dy=0 dh=-50 dv=0 dx=0 dy=0 dh=0 dv=0
PairPos2: "'kern' Horizontal Kerning lookup 15-2" uni0649 dx=-50 dy=0 dh=-50 dv=0 dx=0 dy=0 dh=0 dv=0
PairPos2: "'kern' Horizontal Kerning lookup 15-2" uni0648 dx=-50 dy=0 dh=-50 dv=0 dx=0 dy=0 dh=0 dv=0
PairPos2: "'kern' Horizontal Kerning lookup 15-2" uniFEEB dx=-150 dy=0 dh=-150 dv=0 dx=0 dy=0 dh=0 dv=0
PairPos2: "'kern' Horizontal Kerning lookup 15-2" uni0647 dx=-150 dy=0 dh=-150 dv=0 dx=0 dy=0 dh=0 dv=0
PairPos2: "'kern' Horizontal Kerning lookup 15-2" uniFEE7 dx=-150 dy=0 dh=-150 dv=0 dx=0 dy=0 dh=0 dv=0
PairPos2: "'kern' Horizontal Kerning lookup 15-2" uni0646 dx=-50 dy=0 dh=-50 dv=0 dx=0 dy=0 dh=0 dv=0
PairPos2: "'kern' Horizontal Kerning lookup 15-2" uniFEE3 dx=-150 dy=0 dh=-150 dv=0 dx=0 dy=0 dh=0 dv=0
PairPos2: "'kern' Horizontal Kerning lookup 15-2" uni0645 dx=-150 dy=0 dh=-150 dv=0 dx=0 dy=0 dh=0 dv=0
PairPos2: "'kern' Horizontal Kerning lookup 15-2" uni0644 dx=-50 dy=0 dh=-50 dv=0 dx=0 dy=0 dh=0 dv=0
PairPos2: "'kern' Horizontal Kerning lookup 15-2" uniFEDB dx=-150 dy=0 dh=-150 dv=0 dx=0 dy=0 dh=0 dv=0
PairPos2: "'kern' Horizontal Kerning lookup 15-2" uni0643 dx=-150 dy=0 dh=-150 dv=0 dx=0 dy=0 dh=0 dv=0
PairPos2: "'kern' Horizontal Kerning lookup 15-2" uniFED7 dx=-150 dy=0 dh=-150 dv=0 dx=0 dy=0 dh=0 dv=0
PairPos2: "'kern' Horizontal Kerning lookup 15-2" uni0642 dx=-50 dy=0 dh=-50 dv=0 dx=0 dy=0 dh=0 dv=0
PairPos2: "'kern' Horizontal Kerning lookup 15-2" uniFED3 dx=-150 dy=0 dh=-150 dv=0 dx=0 dy=0 dh=0 dv=0
PairPos2: "'kern' Horizontal Kerning lookup 15-2" uni0641 dx=-150 dy=0 dh=-150 dv=0 dx=0 dy=0 dh=0 dv=0
PairPos2: "'kern' Horizontal Kerning lookup 15-2" uniFECF dx=-150 dy=0 dh=-150 dv=0 dx=0 dy=0 dh=0 dv=0
PairPos2: "'kern' Horizontal Kerning lookup 15-2" uniFECB dx=-150 dy=0 dh=-150 dv=0 dx=0 dy=0 dh=0 dv=0
PairPos2: "'kern' Horizontal Kerning lookup 15-2" uniFEC7 dx=-150 dy=0 dh=-150 dv=0 dx=0 dy=0 dh=0 dv=0
PairPos2: "'kern' Horizontal Kerning lookup 15-2" uni0638 dx=-150 dy=0 dh=-150 dv=0 dx=0 dy=0 dh=0 dv=0
PairPos2: "'kern' Horizontal Kerning lookup 15-2" uniFEC3 dx=-150 dy=0 dh=-150 dv=0 dx=0 dy=0 dh=0 dv=0
PairPos2: "'kern' Horizontal Kerning lookup 15-2" uni0637 dx=-150 dy=0 dh=-150 dv=0 dx=0 dy=0 dh=0 dv=0
PairPos2: "'kern' Horizontal Kerning lookup 15-2" uniFEBF dx=-150 dy=0 dh=-150 dv=0 dx=0 dy=0 dh=0 dv=0
PairPos2: "'kern' Horizontal Kerning lookup 15-2" uni0636 dx=-150 dy=0 dh=-150 dv=0 dx=0 dy=0 dh=0 dv=0
PairPos2: "'kern' Horizontal Kerning lookup 15-2" uniFEBB dx=-150 dy=0 dh=-150 dv=0 dx=0 dy=0 dh=0 dv=0
PairPos2: "'kern' Horizontal Kerning lookup 15-2" uni0635 dx=-150 dy=0 dh=-150 dv=0 dx=0 dy=0 dh=0 dv=0
PairPos2: "'kern' Horizontal Kerning lookup 15-2" uniFEB7 dx=-150 dy=0 dh=-150 dv=0 dx=0 dy=0 dh=0 dv=0
PairPos2: "'kern' Horizontal Kerning lookup 15-2" uni0634 dx=-150 dy=0 dh=-150 dv=0 dx=0 dy=0 dh=0 dv=0
PairPos2: "'kern' Horizontal Kerning lookup 15-2" uniFEB3 dx=-150 dy=0 dh=-150 dv=0 dx=0 dy=0 dh=0 dv=0
PairPos2: "'kern' Horizontal Kerning lookup 15-2" uni0633 dx=-150 dy=0 dh=-150 dv=0 dx=0 dy=0 dh=0 dv=0
PairPos2: "'kern' Horizontal Kerning lookup 15-2" uni0632 dx=-50 dy=0 dh=-50 dv=0 dx=0 dy=0 dh=0 dv=0
PairPos2: "'kern' Horizontal Kerning lookup 15-2" uni0631 dx=-50 dy=0 dh=-50 dv=0 dx=0 dy=0 dh=0 dv=0
PairPos2: "'kern' Horizontal Kerning lookup 15-2" uniFEA7 dx=-150 dy=0 dh=-150 dv=0 dx=0 dy=0 dh=0 dv=0
PairPos2: "'kern' Horizontal Kerning lookup 15-2" uniFEA3 dx=-150 dy=0 dh=-150 dv=0 dx=0 dy=0 dh=0 dv=0
PairPos2: "'kern' Horizontal Kerning lookup 15-2" uniFE9F dx=-150 dy=0 dh=-150 dv=0 dx=0 dy=0 dh=0 dv=0
PairPos2: "'kern' Horizontal Kerning lookup 15-2" uniFE9B dx=-150 dy=0 dh=-150 dv=0 dx=0 dy=0 dh=0 dv=0
PairPos2: "'kern' Horizontal Kerning lookup 15-2" uni062B dx=-150 dy=0 dh=-150 dv=0 dx=0 dy=0 dh=0 dv=0
PairPos2: "'kern' Horizontal Kerning lookup 15-2" uniFE97 dx=-150 dy=0 dh=-150 dv=0 dx=0 dy=0 dh=0 dv=0
PairPos2: "'kern' Horizontal Kerning lookup 15-2" uni062A dx=-150 dy=0 dh=-150 dv=0 dx=0 dy=0 dh=0 dv=0
PairPos2: "'kern' Horizontal Kerning lookup 15-2" uni0629 dx=-150 dy=0 dh=-150 dv=0 dx=0 dy=0 dh=0 dv=0
PairPos2: "'kern' Horizontal Kerning lookup 15-2" uniFE91 dx=-50 dy=0 dh=-50 dv=0 dx=0 dy=0 dh=0 dv=0
PairPos2: "'kern' Horizontal Kerning lookup 15-2" uni0628 dx=-150 dy=0 dh=-150 dv=0 dx=0 dy=0 dh=0 dv=0
PairPos2: "'kern' Horizontal Kerning lookup 15-2" uni0627 dx=-200 dy=0 dh=-200 dv=0 dx=0 dy=0 dh=0 dv=0
PairPos2: "'kern' Horizontal Kerning lookup 15-2" uni0622 dx=-200 dy=0 dh=-200 dv=0 dx=0 dy=0 dh=0 dv=0
PairPos2: "'kern' Horizontal Kerning lookup 15-2" uni0621 dx=-150 dy=0 dh=-150 dv=0 dx=0 dy=0 dh=0 dv=0
PairPos2: "'kern' Horizontal Kerning lookup 15-2" uniFB94 dx=-150 dy=0 dh=-150 dv=0 dx=0 dy=0 dh=0 dv=0
PairPos2: "'kern' Horizontal Kerning lookup 15-2" uniFB92 dx=-150 dy=0 dh=-150 dv=0 dx=0 dy=0 dh=0 dv=0
PairPos2: "'kern' Horizontal Kerning lookup 15-2" afii57509 dx=-150 dy=0 dh=-150 dv=0 dx=0 dy=0 dh=0 dv=0
PairPos2: "'kern' Horizontal Kerning lookup 15-2" afii57508 dx=-50 dy=0 dh=-50 dv=0 dx=0 dy=0 dh=0 dv=0
PairPos2: "'kern' Horizontal Kerning lookup 15-2" uniFB7C dx=-150 dy=0 dh=-150 dv=0 dx=0 dy=0 dh=0 dv=0
PairPos2: "'kern' Horizontal Kerning lookup 15-2" afii57506 dx=-150 dy=0 dh=-150 dv=0 dx=0 dy=0 dh=0 dv=0
PairPos2: "'kern' Horizontal Kerning lookup 15-2" afii57440 dx=-100 dy=0 dh=-100 dv=0 dx=0 dy=0 dh=0 dv=0
Substitution2: "'fina' Terminal Forms in Arabic lookup 9 subtable" uniFEAE
EndChar

StartChar: uni0633
Encoding: 1587 1587 29
Width: 2560
VWidth: 2629
GlyphClass: 2
Flags: W
AnchorPoint: "Anchor-10" 591.097 1015.42 basechar 0
AnchorPoint: "Anchor-7" 345.455 -664.706 basechar 0
LayerCount: 2
Fore
SplineSet
2468.19824219 427.47265625 m 2,0,1
 2468 -2 2468 -2 2126.19824219 -1.099609375 c 0,2,3
 1911.25099071 -1.83409266203 1911.25099071 -1.83409266203 1852.52734375 193.31640625 c 1,4,5
 1790 -3 1790 -3 1609.93066406 -1.1005859375 c 0,6,7
 1440 1 1440 1 1385.25488281 110.817382812 c 1,8,-1
 1384.83886719 42.1904296875 l 2,9,10
 1381.99824609 -448.302849639 1381.99824609 -448.302849639 797.298828125 -466.19140625 c 2,11,-1
 777.700195312 -466.791015625 l 1,12,-1
 749.71484375 -466.791015625 l 2,13,14
 123.876953125 -467.000041097 123.876953125 -467.000041097 123.876953125 41.5224609375 c 2,15,-1
 123.876953125 322.845703125 l 2,16,17
 123.999664672 453.642578125 123.999664672 453.642578125 223.729492188 453.642578125 c 2,18,-1
 301.977539062 453.642578125 l 1,19,-1
 301.977539062 42.7294921875 l 2,20,21
 301.999987758 -277.825195312 301.999987758 -277.825195312 751.955078125 -277.825195312 c 2,22,-1
 778.056640625 -277.825195312 l 1,23,-1
 806.646484375 -277.216796875 l 2,24,25
 1209.16015625 -268.996729316 1209.16015625 -268.996729316 1209.16015625 46.96875 c 6,26,-1
 1208.84667969 617.345703125 l 1,27,-1
 1398.86132812 617.512695312 l 1,28,-1
 1399.46777344 373.323242188 l 2,29,30
 1400 181 1400 181 1605.39941406 176.985351562 c 0,31,32
 1773.62237092 174.006686546 1773.62237092 174.006686546 1772.87695312 405.9765625 c 2,33,-1
 1772.17382812 624.78515625 l 1,34,-1
 1945.31445312 624.78515625 l 1,35,-1
 1945.96777344 399.626953125 l 2,36,37
 1947 175 1947 175 2131.44824219 177.908203125 c 0,38,39
 2290.09863281 180.001301277 2290.09863281 180.001301277 2290.09863281 421.303710938 c 2,40,-1
 2290.09863281 626.783203125 l 1,41,-1
 2468.19824219 626.783203125 l 1,42,-1
 2468.19824219 427.47265625 l 2,0,1
EndSplineSet
Substitution2: "'fina' Terminal Forms in Arabic lookup 9 subtable" uniFEB2
Substitution2: "'medi' Medial Forms in Arabic lookup 11 subtable" uniFEB4
Substitution2: "'init' Initial Forms in Arabic lookup 13 subtable" uniFEB3
EndChar

StartChar: uni0635
Encoding: 1589 1589 31
Width: 2662
VWidth: 2629
GlyphClass: 2
Flags: W
AnchorPoint: "Anchor-10" 551.026 1015.42 basechar 0
AnchorPoint: "Anchor-7" 248.526 -653.175 basechar 0
LayerCount: 2
Fore
SplineSet
1618.58105469 201.57421875 m 1,0,-1
 2039.19335938 201.57421875 l 2,1,2
 2154.49121094 201.288085938 2154.49121094 201.288085938 2250.5546875 243.151367188 c 0,3,4
 2392.49121094 303.288085938 2392.49121094 303.288085938 2383.4921875 478.797851562 c 0,5,6
 2373.49121094 673.288085938 2373.49121094 673.288085938 2201.61621094 668.600585938 c 0,7,8
 2104.49121094 666.288085938 2104.49121094 666.288085938 1959.74316406 542.6171875 c 0,9,10
 1818.08203125 422.788085938 1818.08203125 422.788085938 1660.81640625 248.40625 c 2,11,-1
 1618.58105469 201.57421875 l 1,0,-1
1502.54785156 303.305664062 m 1,12,13
 1642 465 1642 465 1719 542 c 0,14,15
 1902 725 1902 725 2035.78613281 799.009765625 c 0,16,17
 2167 872 2167 872 2346.53710938 822.970703125 c 0,18,19
 2567 763 2567 763 2570.22753906 436.330078125 c 0,20,21
 2572 190 2572 190 2365.72753906 66.44921875 c 0,22,23
 2254.42480469 0.2529296875 2254.42480469 0.2529296875 2119.6171875 0.1904296875 c 2,24,-1
 1708 0 l 2,25,26
 1454.06054688 0 1454.06054688 0 1378.265625 118.532226562 c 2,27,-1
 1352.83886719 158.295898438 l 1,28,-1
 1352.83886719 42.1279296875 l 2,29,30
 1353 -448.2109375 1353 -448.2109375 765.298828125 -466.19140625 c 2,31,-1
 745.700195312 -466.791015625 l 1,32,-1
 717.717773438 -466.791015625 l 2,33,34
 91.876953125 -467 91.876953125 -467 91.876953125 41.5224609375 c 2,35,-1
 91.876953125 322.848632812 l 2,36,37
 92 453.642578125 92 453.642578125 191.729492188 453.642578125 c 2,38,-1
 269.977539062 453.642578125 l 1,39,-1
 269.977539062 42.7314453125 l 2,40,41
 270 -277.825195312 270 -277.825195312 719.955078125 -277.825195312 c 2,42,-1
 746.056640625 -277.825195312 l 1,43,-1
 774.666015625 -277.216796875 l 2,44,45
 1177.16015625 -268.997070312 1177.16015625 -268.997070312 1177.16015625 46.96875 c 2,46,-1
 1176.80273438 617.340820312 l 5,47,-1
 1357.68066406 617.432617188 l 1,48,-1
 1357.77246094 488.069335938 l 1,49,50
 1374.99121094 341.07421875 1374.99121094 341.07421875 1493.94628906 305.852539062 c 2,51,-1
 1502.54785156 303.305664062 l 1,12,13
EndSplineSet
Substitution2: "'fina' Terminal Forms in Arabic lookup 9 subtable" uniFEBA
Substitution2: "'medi' Medial Forms in Arabic lookup 11 subtable" uniFEBC
Substitution2: "'init' Initial Forms in Arabic lookup 13 subtable" uniFEBB
EndChar

StartChar: uni0637
Encoding: 1591 1591 33
Width: 1479
VWidth: 2629
GlyphClass: 2
Flags: W
AnchorPoint: "Anchor-10" 452.291 1667.62 basechar 0
AnchorPoint: "Anchor-7" 669.781 -288.76 basechar 0
LayerCount: 2
Fore
SplineSet
436.08984375 202.286132812 m 5,0,-1
 856.702148438 202.286132812 l 6,1,2
 972 202 972 202 1068.06347656 243.86328125 c 4,3,4
 1210 304 1210 304 1201.00097656 479.509765625 c 4,5,6
 1191 674 1191 674 1019.125 669.3125 c 4,7,8
 922 667 922 667 777.251953125 543.329101562 c 4,9,10
 635.590820312 423.5 635.590820312 423.5 478.325195312 249.118164062 c 6,11,-1
 436.08984375 202.286132812 l 5,0,-1
361 362 m 5,12,13
 361 1425.50976562 l 1,14,-1
 535.32421875 1425.50976562 l 1,15,-1
 535.32421875 553.294921875 l 5,16,17
 541 559 541 559 547 565 c 4,18,19
 702 720 702 720 853.294921875 795.721679688 c 4,20,21
 998 868 998 868 1164.04589844 823.682617188 c 4,22,23
 1385 764 1385 764 1387.73632812 437.041992188 c 4,24,25
 1390 191 1390 191 1183.23632812 67.1611328125 c 4,26,27
 1071.94067407 0.964714130774 1071.94067407 0.964714130774 937.125976562 0.90234375 c 6,28,-1
 525.508789062 0.7119140625 l 5,29,-1
 90.4853515625 0 l 1,30,-1
 90.4853515625 188.866210938 l 1,31,-1
 217.727539062 188.866210938 l 5,32,33
 289 275 289 275 361 362 c 5,12,13
EndSplineSet
Substitution2: "'fina' Terminal Forms in Arabic lookup 9 subtable" uniFEC2
Substitution2: "'medi' Medial Forms in Arabic lookup 11 subtable" uniFEC4
Substitution2: "'init' Initial Forms in Arabic lookup 13 subtable" uniFEC3
EndChar

StartChar: uni0639
Encoding: 1593 1593 35
Width: 1503
VWidth: 2629
GlyphClass: 2
Flags: W
AnchorPoint: "Anchor-10" 682.834 1621.64 basechar 0
AnchorPoint: "Anchor-7" 314.885 -901.54 basechar 0
LayerCount: 2
Fore
SplineSet
1293.33691406 -777.293945312 m 1,0,1
 840.754882812 -776.390625 l 2,2,3
 112 -775 112 -775 113.201171875 -173.990234375 c 0,4,5
 114 271 114 271 565.1328125 496.01171875 c 1,6,7
 451 536 451 536 400.530273437 610.034667969 c 0,8,9
 312 739 312 739 341.901367188 886.831054688 c 0,10,11
 388 1116 388 1116 615.5 1170.54003906 c 128,-1,12
 843 1225 843 1225 1060.17285156 1118.35351562 c 1,13,-1
 1018.20410156 973.763671875 l 1,14,15
 843 1039 843 1039 709.103515625 1017.01367188 c 0,16,17
 507 983 507 983 506.04296875 808.435546875 c 0,18,19
 505 627 505 627 753.880859375 602.844726562 c 1,20,-1
 1136.94335938 649.383789062 l 1,21,-1
 1136.78515625 482.0234375 l 1,22,23
 1094 480 1094 480 1050.09375 478.344726562 c 0,24,25
 854 474 854 474 633 343 c 0,26,27
 287 139 287 139 273.915039062 -148.82421875 c 0,28,29
 252 -603 252 -603 836.654296875 -604.638671875 c 2,30,-1
 1294.38671875 -605.581054688 l 1,31,-1
 1293.33691406 -777.293945312 l 1,0,1
EndSplineSet
Substitution2: "'fina' Terminal Forms in Arabic lookup 9 subtable" uniFECA
Substitution2: "'medi' Medial Forms in Arabic lookup 11 subtable" uniFECC
Substitution2: "'init' Initial Forms in Arabic lookup 13 subtable" uniFECB
EndChar

StartChar: afii57440
Encoding: 1600 1600 37
Width: 776
VWidth: 2629
GlyphClass: 2
Flags: W
AnchorPoint: "Anchor-10" 388.41 1534.29 basechar 0
AnchorPoint: "Anchor-7" 388.41 -148.815 basechar 0
LayerCount: 2
Fore
SplineSet
-11.3642578125 -0.099609375 m 5,0,-1
 -11.3642578125 188.864257812 l 5,1,-1
 786.184570312 188.864257812 l 5,2,-1
 786.184570312 -0.099609375 l 5,3,-1
 -11.3642578125 -0.099609375 l 5,0,-1
EndSplineSet
EndChar

StartChar: uni0643
Encoding: 1603 1603 40
Width: 1924
VWidth: 2629
GlyphClass: 2
Flags: W
AnchorPoint: "Anchor-10" 610.51 1678.5 basechar 0
AnchorPoint: "Anchor-7" 435.06 -301.065 basechar 0
LayerCount: 2
Fore
SplineSet
719.731445312 832.646484375 m 2,0,1
 786.610351562 824.217773438 786.610351562 824.217773438 853.619140625 824.217773438 c 128,-1,2
 920.626953125 824.217773438 920.626953125 824.217773438 978.469726562 846.700195312 c 0,3,4
 1067.07128906 881.13671875 1067.07128906 881.13671875 1067.07128906 937.313476562 c 128,-1,5
 1067.07128906 993.490234375 1067.07128906 993.490234375 972.68359375 1008.42382812 c 128,-1,6
 878.295898438 1023.35742188 878.295898438 1023.35742188 841.862304688 1071.00976562 c 0,7,8
 786.448242188 1143.48632812 786.448242188 1143.48632812 811.186523438 1221.24414062 c 0,9,10
 859.178710938 1372.08984375 859.178710938 1372.08984375 1129.5546875 1392.18359375 c 2,11,-1
 1156.40722656 1394.17871094 l 1,12,-1
 1156.40722656 1296.82910156 l 1,13,-1
 1133.43457031 1294.95996094 l 2,14,15
 955.244140625 1280.46582031 955.244140625 1280.46582031 910.841796875 1206.65039062 c 0,16,17
 907.827148438 1201.63964844 907.827148438 1201.63964844 907.827148438 1175.64648438 c 0,18,19
 907.827148438 1123.28710938 907.827148438 1123.28710938 965.581054688 1104.70703125 c 0,20,21
 994.528320312 1095.39453125 994.528320312 1095.39453125 1047.15722656 1087.65332031 c 128,-1,22
 1099.78515625 1079.91210938 1099.78515625 1079.91210938 1133.71191406 1047.04882812 c 128,-1,23
 1167.63867188 1014.18457031 1167.63867188 1014.18457031 1167.63867188 956.422851562 c 128,-1,24
 1167.63867188 898.66015625 1167.63867188 898.66015625 1144.09375 861.25390625 c 0,25,26
 1028.99609375 678.392578125 1028.99609375 678.392578125 712.745117188 727.82421875 c 2,27,-1
 691.60546875 731.12890625 l 1,28,-1
 691.60546875 836.19140625 l 1,29,-1
 719.731445312 832.646484375 l 2,0,1
1793.99316406 489.063476562 m 2,30,31
 1793.99316406 -1.099609375 1793.99316406 -1.099609375 1401.68066406 -1.099609375 c 2,32,-1
 472.120117188 -1.099609375 l 2,33,34
 91.908203125 -1 91.908203125 -1 91.90625 451.553710938 c 2,35,-1
 91.9052734375 667.783203125 l 1,36,-1
 270.004882812 667.783203125 l 1,37,-1
 270.004882812 462.444335938 l 2,38,39
 270 187.866210938 270 187.866210938 476.774414062 187.866210938 c 2,40,-1
 1409.12207031 187.866210938 l 2,41,42
 1615.89257812 188 1615.89257812 188 1615.89257812 461.233398438 c 2,43,-1
 1615.89257812 1423.90527344 l 1,44,-1
 1793.99316406 1423.90527344 l 1,45,-1
 1793.99316406 489.063476562 l 2,30,31
EndSplineSet
Substitution2: "'fina' Terminal Forms in Arabic lookup 9 subtable" uniFEDA
Substitution2: "'medi' Medial Forms in Arabic lookup 11 subtable" uniFEDC
Substitution2: "'init' Initial Forms in Arabic lookup 13 subtable" uniFEDB
EndChar

StartChar: uni0644
Encoding: 1604 1604 41
Width: 1484
VWidth: 2629
GlyphClass: 2
Flags: W
AnchorPoint: "Anchor-10" 453.222 1285.25 basechar 0
AnchorPoint: "Anchor-7" 414.672 -633.955 basechar 0
LayerCount: 2
Fore
SplineSet
269.977539062 42.7314453125 m 2,0,1
 269.977539062 -312.916015625 269.977539062 -312.916015625 719.955078125 -312.916015625 c 2,2,-1
 746.057617188 -312.916015625 l 1,3,-1
 774.666015625 -312.306640625 l 2,4,5
 1175.9341797 -303.761752909 1175.9341797 -303.761752909 1180.7890625 46.77734375 c 2,6,-1
 1181.48144531 96.7919921875 l 1,7,8
 1180.80078125 123.450195312 1180.80078125 123.450195312 1180.80078125 444.077148438 c 2,9,-1
 1180.80078125 1423.33691406 l 1,10,-1
 1353.91601562 1423.33691406 l 1,11,-1
 1353.91601562 444.09375 l 1,12,-1
 1353.51757812 100.37109375 l 1,13,-1
 1352.83984375 42.2890625 l 2,14,15
 1346.71392755 -483.491568228 1346.71392755 -483.491568228 765.297851562 -501.28125 c 2,16,-1
 745.700195312 -501.881835938 l 1,17,-1
 717.717773438 -501.881835938 l 2,18,19
 91.876953125 -501.881835938 91.876953125 -501.881835938 91.876953125 41.5224609375 c 2,20,-1
 91.876953125 322.848632812 l 2,21,22
 91.876953125 453.642578125 91.876953125 453.642578125 191.729492188 453.642578125 c 2,23,-1
 269.977539062 453.642578125 l 1,24,-1
 269.977539062 42.7314453125 l 2,0,1
EndSplineSet
Substitution2: "'fina' Terminal Forms in Arabic lookup 9 subtable" uniFEDE
Substitution2: "'medi' Medial Forms in Arabic lookup 11 subtable" uniFEE0
Substitution2: "'init' Initial Forms in Arabic lookup 13 subtable" uniFEDF
EndChar

StartChar: uni0645
Encoding: 1605 1605 42
Width: 1313
VWidth: 2629
GlyphClass: 2
Flags: W
AnchorPoint: "Anchor-10" 649.625 1288.64 basechar 0
AnchorPoint: "Anchor-7" 133.113 -763.833 basechar 0
LayerCount: 2
Fore
SplineSet
1219.01953125 476.965820312 m 4,0,1
 1222 437 1222 437 1221.69921875 401.034179688 c 4,2,3
 1222 128 1222 128 1067.87792969 27.7412109375 c 4,4,5
 990.833007812 -22.5830078125 990.833007812 -22.5830078125 846 -16 c 4,6,7
 714 -10 714 -10 627 73 c 4,8,9
 504.370117188 185.717773438 504.370117188 185.717773438 512.2578125 435.280273438 c 4,10,11
 515 530 515 530 519.134765625 571.396484375 c 5,12,13
 264.959960938 549.997070312 264.959960938 549.997070312 264.959960938 162.919921875 c 6,14,-1
 264.959960938 -511.770507812 l 5,15,-1
 91.7001953125 -511.770507812 l 5,16,-1
 91.7001953125 158.33984375 l 6,17,18
 92 720 92 720 503.666015625 761.381835938 c 5,19,-1
 951.712890625 761.380859375 l 5,20,21
 1198 759 1198 759 1219.01953125 476.965820312 c 4,0,1
853.439453125 597.026367188 m 4,22,23
 713.546875 596.845703125 713.546875 596.845703125 698.439453125 584.217773438 c 132,-1,24
 683.33203125 571.590820312 683.33203125 571.590820312 683.33203125 409.4921875 c 132,-1,25
 683.33203125 247.393554688 683.33203125 247.393554688 735.1953125 194.258789062 c 132,-1,26
 787.059570312 141.124023438 787.059570312 141.124023438 880.14453125 141.124023438 c 4,27,28
 892.172851562 141.124023438 892.172851562 141.124023438 904.857421875 142.044921875 c 4,29,30
 1046 152 1046 152 1052.44921875 413.529296875 c 4,31,32
 1052.54882812 417.541015625 1052.54882812 417.541015625 1052.54882812 421.465820312 c 4,33,34
 1052.54882812 597.000976562 1052.54882812 597.000976562 853.439453125 597.026367188 c 4,22,23
91.7001953125 158.33984375 m 6,35,-1
 91.7001953125 158.33984375 l 6,35,-1
EndSplineSet
Substitution2: "'init' Initial Forms in Arabic lookup 13 subtable" uniFEE3
Substitution2: "'medi' Medial Forms in Arabic lookup 11 subtable" uniFEE4
Substitution2: "'fina' Terminal Forms in Arabic lookup 9 subtable" uniFEE2
EndChar

StartChar: uni0647
Encoding: 1607 1607 44
Width: 965
VWidth: 2399
GlyphClass: 2
Flags: W
AnchorPoint: "Anchor-10" 465.816 1265.04 basechar 0
AnchorPoint: "Anchor-7" 354.65 -269.616 basechar 0
LayerCount: 2
Fore
SplineSet
281.583984375 364.5546875 m 1,0,1
 268.038085938 306.706054688 268.038085938 306.706054688 293.568359375 265.176757812 c 128,-1,2
 319.09765625 223.646484375 319.09765625 223.646484375 382.477539062 199.642578125 c 0,3,4
 477.642578125 163.588867188 477.642578125 163.588867188 587.89453125 188.833007812 c 0,5,6
 673.239257812 208.555664062 673.239257812 208.555664062 694.770507812 271.974609375 c 0,7,8
 739.022460938 399.118164062 739.022460938 399.118164062 488.670898438 621.23046875 c 2,9,-1
 485.145507812 624.358398438 l 1,10,-1
 481.814453125 621.0234375 l 2,11,12
 309.731445312 448.701171875 309.731445312 448.701171875 281.7109375 365.001953125 c 0,13,-1
 281.583984375 364.5546875 l 1,0,1
166.895507812 490.970703125 m 0,14,15
 245.7734375 619.280273438 245.7734375 619.280273438 360.573242188 734.7109375 c 2,16,-1
 364.365234375 738.5234375 l 1,17,-1
 322.873046875 774.200195312 l 1,18,-1
 428.499023438 887.188476562 l 1,19,20
 745.483398438 657.232421875 745.483398438 657.232421875 827.46484375 458.252929688 c 0,21,22
 885.607421875 315.624023438 885.607421875 315.624023438 864.31640625 215.118164062 c 128,-1,23
 843.024414062 114.61328125 843.024414062 114.61328125 742.498046875 53.6787109375 c 0,24,25
 657.899414062 2.400390625 657.899414062 2.400390625 498.177734375 3.8828125 c 0,26,27
 347.63671875 5.298828125 347.63671875 5.298828125 266.50390625 44.06640625 c 0,28,29
 114.510742188 116.822265625 114.510742188 116.822265625 95.0068359375 244.372070312 c 0,30,31
 79.5283203125 350.608398438 79.5283203125 350.608398438 166.895507812 490.970703125 c 0,14,15
EndSplineSet
Substitution2: "'fina' Terminal Forms in Arabic lookup 9 subtable" uniFEEA
Substitution2: "'medi' Medial Forms in Arabic lookup 11 subtable" uniFEEC
Substitution2: "'init' Initial Forms in Arabic lookup 13 subtable" uniFEEB
EndChar

StartChar: uni0648
Encoding: 1608 1608 45
Width: 873
VWidth: 2629
GlyphClass: 2
Flags: W
AnchorPoint: "Anchor-10" 357.751 1240.08 basechar 0
AnchorPoint: "Anchor-7" 361.271 -742.646 basechar 0
LayerCount: 2
Fore
SplineSet
521.915039062 549.522460938 m 0,0,1
 484 569 484 569 424.984375 569.10546875 c 0,2,3
 283 568 283 568 258 432 c 0,4,5
 235 303 235 303 285.374023438 233.346679688 c 0,6,7
 316 191 316 191 424.25390625 180.073242188 c 0,8,9
 425 180 425 180 470.686523438 180.073242188 c 0,10,11
 517 180 517 180 605.716796875 191.809570312 c 1,12,13
 609 242 609 242 609.162109375 285.833007812 c 0,14,15
 609 505 609 505 521.915039062 549.522460938 c 0,0,1
432.973632812 -3.7802734375 m 0,16,17
 91.3837890625 -4.00390625 91.3837890625 -4.00390625 91.3837890625 358.147460938 c 0,18,19
 91.3837890625 506.836914062 91.3837890625 506.836914062 153 606 c 0,20,21
 241.736328125 746.58203125 241.736328125 746.58203125 432.586914062 746.58203125 c 0,22,23
 433.154296875 746.58203125 433.154296875 746.58203125 433.72265625 746.581054688 c 128,-1,24
 434.153320312 746.581054688 434.153320312 746.581054688 434.58203125 746.581054688 c 0,25,26
 672.151367188 746.581054688 672.151367188 746.581054688 756 515 c 0,27,28
 781.400390625 445.63671875 781.400390625 445.63671875 781.400390625 324.966796875 c 0,29,30
 781.400390625 322.471679688 781.400390625 322.471679688 781.389648438 319.955078125 c 2,31,-1
 779.9765625 -7.640625 l 1,32,-1
 779.9765625 -14.9111328125 l 2,33,34
 780 -539.600585938 780 -539.600585938 224.252929688 -539.600585938 c 2,35,-1
 223.665039062 -539.600585938 l 2,36,37
 223.352539062 -539.788085938 223.352539062 -539.788085938 198.899414062 -539.788085938 c 128,-1,38
 174.446289062 -539.788085938 174.446289062 -539.788085938 119.579101562 -539.548828125 c 1,39,-1
 119.477539062 -351.75 l 1,40,-1
 219.43359375 -351.8203125 l 2,41,42
 594.6171875 -352 594.6171875 -352 594.6171875 -46.9609375 c 2,43,-1
 594.6171875 2.6552734375 l 1,44,45
 558.204101562 -3.787109375 558.204101562 -3.787109375 497.573242188 -3.787109375 c 128,-1,46
 436.942382812 -3.787109375 436.942382812 -3.787109375 432.973632812 -3.7802734375 c 0,16,17
EndSplineSet
Substitution2: "'fina' Terminal Forms in Arabic lookup 9 subtable" uniFEEE
EndChar

StartChar: uni0649
Encoding: 1609 1609 46
Width: 1511
VWidth: 2629
GlyphClass: 2
Flags: W
AnchorPoint: "Anchor-10" 453.234 1263.66 basechar 0
AnchorPoint: "Anchor-7" 289.523 -710.826 basechar 0
LayerCount: 2
Fore
SplineSet
1191.52050781 265.330078125 m 2,0,1
 1419.71972656 265.330078125 1419.71972656 265.330078125 1419.71972656 39.5498046875 c 2,2,-1
 1419.71972656 9.2998046875 l 2,3,4
 1420 -518.3515625 1420 -518.3515625 845.763671875 -524.424804688 c 2,5,-1
 788.517578125 -525.030273438 l 1,6,-1
 707.15625 -525.030273438 l 2,7,8
 90.9970703125 -525 90.9970703125 -525 90.9970703125 54.673828125 c 2,9,-1
 90.9970703125 377.140625 l 2,10,11
 91 507.93359375 91 507.93359375 190.849609375 507.93359375 c 2,12,-1
 269.095703125 507.93359375 l 1,13,-1
 269.095703125 55.8837890625 l 2,14,15
 269 -336.0703125 269 -336.0703125 709.395507812 -336.064453125 c 2,16,-1
 788.716796875 -336.063476562 l 1,17,-1
 854.6875 -335.458007812 l 2,18,19
 1244.04003906 -332 1244.04003906 -332 1244.04003906 -8.849609375 c 2,20,-1
 1244.04003906 3.25 l 2,21,22
 1244 86.4912109375 1244 86.4912109375 1160.10253906 86.7509765625 c 2,23,-1
 962.873046875 87.3623046875 l 2,24,25
 787.387695312 87.9736328125 787.387695312 87.9736328125 787.387695312 256.271484375 c 2,26,-1
 787.387695312 324.102539062 l 2,27,28
 787 808.145507812 787 808.145507812 1220.13769531 808.145507812 c 2,29,-1
 1298.96777344 808.145507812 l 2,30,31
 1358.65136719 808.000976562 1358.65136719 808.000976562 1358.65136719 748.173828125 c 2,32,-1
 1358.65136719 619.1796875 l 1,33,-1
 1177.60742188 619.1796875 l 2,34,35
 971.1171875 619.004882812 971.1171875 619.004882812 965.48828125 330.991210938 c 2,36,37
 964.205078125 265.330078125 l 1,38,-1
 1191.52050781 265.330078125 l 2,0,1
EndSplineSet
Substitution2: "'fina' Terminal Forms in Arabic lookup 9 subtable" uniFEF0
Substitution2: "'medi' Medial Forms in Arabic lookup 11 subtable" uniFBE9
Substitution2: "'init' Initial Forms in Arabic lookup 13 subtable" uniFBE8
EndChar

StartChar: uni064B
Encoding: 1611 1611 48
Width: 0
VWidth: 2629
GlyphClass: 4
Flags: W
AnchorPoint: "Anchor-10" 662.887 1245.32 mark 0
AnchorPoint: "Anchor-9" 662.887 1245.32 mark 0
AnchorPoint: "Anchor-1" 662.887 1892.67 basemark 0
AnchorPoint: "Anchor-1" 662.887 1245.32 mark 0
LayerCount: 2
Fore
SplineSet
339.7734375 1188.32519531 m 1,0,-1
 339.7734375 1312.25683594 l 1,1,-1
 987.208984375 1577.21679688 l 1,2,-1
 987.208984375 1453.28515625 l 1,3,-1
 339.7734375 1188.32519531 l 1,0,-1
339.7734375 1499.05273438 m 1,4,-1
 339.7734375 1622.98535156 l 1,5,-1
 987.208984375 1887.9453125 l 1,6,-1
 987.208984375 1764.01367188 l 1,7,-1
 339.7734375 1499.05273438 l 1,4,-1
EndSplineSet
EndChar

StartChar: uni064C
Encoding: 1612 1612 49
Width: 0
VWidth: 2629
GlyphClass: 4
Flags: W
AnchorPoint: "Anchor-10" 670.807 1383.18 mark 0
AnchorPoint: "Anchor-9" 670.807 1383.18 mark 0
AnchorPoint: "Anchor-1" 661.126 2176.33 basemark 0
AnchorPoint: "Anchor-1" 670.807 1383.18 mark 0
LayerCount: 2
Fore
SplineSet
695.9453125 1546.64746094 m 0,0,1
 721.677734375 1571.68457031 721.677734375 1571.68457031 741.91796875 1598.93164062 c 128,-1,2
 762.159179688 1626.17871094 762.159179688 1626.17871094 776.875 1655.61328125 c 2,3,-1
 793.95703125 1689.77832031 l 1,4,-1
 756.586914062 1697.70605469 l 2,5,6
 750.123046875 1699.07617188 750.123046875 1699.07617188 744.025390625 1700.62792969 c 128,-1,7
 737.927734375 1702.18066406 737.927734375 1702.18066406 732.198242188 1703.91503906 c 0,8,9
 720.768554688 1707.37304688 720.768554688 1707.37304688 710.79296875 1711.5390625 c 0,10,11
 705.7734375 1713.63476562 705.7734375 1713.63476562 701.162109375 1715.87890625 c 128,-1,12
 696.549804688 1718.12304688 696.549804688 1718.12304688 692.122070312 1720.62597656 c 0,13,14
 629.440429688 1753.70898438 629.440429688 1753.70898438 598.55078125 1796 c 128,-1,15
 567.661132812 1838.29101562 567.661132812 1838.29101562 567.661132812 1890.20898438 c 0,16,17
 567.661132812 1914.93652344 567.661132812 1914.93652344 572.475585938 1936.95800781 c 0,18,19
 574.875976562 1947.94042969 574.875976562 1947.94042969 578.487304688 1958.28515625 c 128,-1,20
 582.098632812 1968.62890625 582.098632812 1968.62890625 586.922851562 1978.3515625 c 128,-1,21
 591.747070312 1988.07421875 591.747070312 1988.07421875 597.783203125 1997.17773438 c 128,-1,22
 603.819335938 2006.28125 603.819335938 2006.28125 611.078125 2014.77832031 c 128,-1,23
 618.34375 2023.28320312 618.34375 2023.28320312 626.874023438 2031.23144531 c 128,-1,24
 635.405273438 2039.18066406 635.405273438 2039.18066406 645.181640625 2046.54785156 c 0,25,26
 649.592773438 2049.85546875 649.592773438 2049.85546875 655.271484375 2052.69433594 c 128,-1,27
 660.951171875 2055.53222656 660.951171875 2055.53222656 668.067382812 2057.93457031 c 128,-1,28
 675.182617188 2060.33691406 675.182617188 2060.33691406 683.540039062 2062.19335938 c 0,29,30
 708.918945312 2067.83007812 708.918945312 2067.83007812 745.283203125 2067.83007812 c 0,31,32
 747.39453125 2067.83007812 747.39453125 2067.83007812 749.479492188 2067.80273438 c 128,-1,33
 751.564453125 2067.77539062 751.564453125 2067.77539062 753.622070312 2067.72070312 c 128,-1,34
 755.678710938 2067.66601562 755.678710938 2067.66601562 757.709960938 2067.58398438 c 128,-1,35
 759.741210938 2067.50195312 759.741210938 2067.50195312 761.745117188 2067.39355469 c 128,-1,36
 763.748046875 2067.28417969 763.748046875 2067.28417969 765.725585938 2067.14746094 c 0,37,38
 775.596679688 2066.46679688 775.596679688 2066.46679688 784.765625 2065.11132812 c 0,39,40
 789.34375 2064.43457031 789.34375 2064.43457031 793.7578125 2063.59375 c 128,-1,41
 798.171875 2062.75292969 798.171875 2062.75292969 802.419921875 2061.74902344 c 0,42,43
 805.248046875 2061.08105469 805.248046875 2061.08105469 808.002929688 2060.33886719 c 128,-1,44
 810.7578125 2059.59667969 810.7578125 2059.59667969 813.432617188 2058.78320312 c 128,-1,45
 816.108398438 2057.96972656 816.108398438 2057.96972656 818.709960938 2057.08300781 c 0,46,47
 822.61328125 2055.75292969 822.61328125 2055.75292969 826.353515625 2054.265625 c 128,-1,48
 830.094726562 2052.77832031 830.094726562 2052.77832031 833.670898438 2051.13574219 c 128,-1,49
 837.243164062 2049.49414062 837.243164062 2049.49414062 840.658203125 2047.69238281 c 128,-1,50
 844.072265625 2045.890625 844.072265625 2045.890625 847.331054688 2043.92871094 c 0,51,52
 853.844726562 2040.00585938 853.844726562 2040.00585938 859.728515625 2035.47558594 c 0,53,54
 861.194335938 2034.34667969 861.194335938 2034.34667969 862.630859375 2033.171875 c 128,-1,55
 864.06640625 2031.99707031 864.06640625 2031.99707031 865.46484375 2030.78515625 c 128,-1,56
 866.862304688 2029.57226562 866.862304688 2029.57226562 868.221679688 2028.32226562 c 128,-1,57
 869.581054688 2027.07226562 869.581054688 2027.07226562 870.895507812 2025.79003906 c 0,58,59
 878.743164062 2018.08691406 878.743164062 2018.08691406 885.591796875 2009.96679688 c 128,-1,60
 892.440429688 2001.84667969 892.440429688 2001.84667969 898.291015625 1993.30957031 c 128,-1,61
 904.141601562 1984.77246094 904.141601562 1984.77246094 908.999023438 1975.8203125 c 128,-1,62
 913.857421875 1966.86816406 913.857421875 1966.86816406 917.734375 1957.48339844 c 0,63,64
 922.905273438 1944.96679688 922.905273438 1944.96679688 926.353515625 1931.61621094 c 128,-1,65
 929.801757812 1918.26660156 929.801757812 1918.26660156 931.532226562 1904.0234375 c 128,-1,66
 933.262695312 1889.78027344 933.262695312 1889.78027344 933.262695312 1874.671875 c 0,67,68
 933.262695312 1859.35449219 933.262695312 1859.35449219 931.69140625 1844.17480469 c 128,-1,69
 930.12109375 1828.99707031 930.12109375 1828.99707031 926.974609375 1813.92285156 c 0,70,71
 926.1875 1810.15332031 926.1875 1810.15332031 925.301757812 1806.390625 c 128,-1,72
 924.416015625 1802.62792969 924.416015625 1802.62792969 923.431640625 1798.87109375 c 128,-1,73
 922.447265625 1795.11425781 922.447265625 1795.11425781 921.36328125 1791.36328125 c 128,-1,74
 920.279296875 1787.61230469 920.279296875 1787.61230469 919.09765625 1783.86816406 c 2,75,-1
 907.606445312 1747.4921875 l 1,76,-1
 945.704101562 1745.49316406 l 2,77,78
 970.194335938 1744.20019531 970.194335938 1744.20019531 989.2890625 1744.15527344 c 0,79,80
 998.618164062 1743.65039062 998.618164062 1743.65039062 1009.64941406 1743.30664062 c 1,81,-1
 1009.64941406 1659.68847656 l 1,82,83
 1004.265625 1659.76269531 1004.265625 1659.76269531 1000.01953125 1659.83886719 c 128,-1,84
 995.772460938 1659.9140625 995.772460938 1659.9140625 992.0703125 1660.00292969 c 128,-1,85
 988.368164062 1660.09179688 988.368164062 1660.09179688 985.224609375 1660.19140625 c 128,-1,86
 982.080078125 1660.29101562 982.080078125 1660.29101562 978.834960938 1660.41992188 c 0,87,88
 965.200195312 1660.9609375 965.200195312 1660.9609375 955.26171875 1661.95703125 c 2,89,-1
 866.42578125 1670.49902344 l 1,90,-1
 857.944335938 1650.61816406 l 2,91,92
 852.759765625 1638.45507812 852.759765625 1638.45507812 845.848632812 1625.59277344 c 128,-1,93
 838.936523438 1612.72949219 838.936523438 1612.72949219 830.259765625 1599.11621094 c 128,-1,94
 821.583984375 1585.50390625 821.583984375 1585.50390625 811.181640625 1571.21875 c 128,-1,95
 800.772460938 1556.92285156 800.772460938 1556.92285156 788.631835938 1541.97949219 c 128,-1,96
 776.490234375 1527.03515625 776.490234375 1527.03515625 762.623046875 1511.45019531 c 128,-1,97
 748.754882812 1495.86621094 748.754882812 1495.86621094 733.204101562 1479.69335938 c 0,98,99
 707.70703125 1453.89746094 707.70703125 1453.89746094 681.75390625 1434.61914062 c 128,-1,100
 655.80078125 1415.34082031 655.80078125 1415.34082031 629.498046875 1402.625 c 0,101,102
 577.028320312 1377.25878906 577.028320312 1377.25878906 522.594726562 1377.25878906 c 0,103,104
 491.15234375 1377.25878906 491.15234375 1377.25878906 463.694335938 1388.05664062 c 0,105,106
 449.965820312 1393.45410156 449.965820312 1393.45410156 437.103515625 1401.64257812 c 128,-1,107
 424.241210938 1409.83105469 424.241210938 1409.83105469 412.215820312 1420.84667969 c 0,108,109
 388.0625 1442.96972656 388.0625 1442.96972656 367.591796875 1476.95410156 c 0,110,111
 357.307617188 1494.02832031 357.307617188 1494.02832031 347.965820312 1514.1015625 c 128,-1,112
 338.624023438 1534.17480469 338.624023438 1534.17480469 330.227539062 1557.26464844 c 0,113,114
 314.73046875 1599.61328125 314.73046875 1599.61328125 312.828125 1716.96679688 c 1,115,-1
 370.311523438 1716.96679688 l 1,116,117
 370.7890625 1689.95898438 370.7890625 1689.95898438 372.012695312 1668.19628906 c 128,-1,118
 373.236328125 1646.43359375 373.236328125 1646.43359375 375.227539062 1629.63378906 c 0,119,120
 376.064453125 1622.56640625 376.064453125 1622.56640625 377.075195312 1616.19042969 c 128,-1,121
 378.0859375 1609.81347656 378.0859375 1609.81347656 379.295898438 1604.00390625 c 128,-1,122
 380.505859375 1598.19335938 380.505859375 1598.19335938 381.908203125 1593.03808594 c 128,-1,123
 383.309570312 1587.8828125 383.309570312 1587.8828125 384.928710938 1583.30175781 c 128,-1,124
 386.546875 1578.72070312 386.546875 1578.72070312 388.375976562 1574.7578125 c 0,125,126
 405.563476562 1537.92871094 405.563476562 1537.92871094 425.703125 1512.8984375 c 0,127,128
 435.861328125 1500.2734375 435.861328125 1500.2734375 447.033203125 1490.57910156 c 128,-1,129
 458.205078125 1480.88574219 458.205078125 1480.88574219 470.388671875 1474.16699219 c 128,-1,130
 482.641601562 1467.41015625 482.641601562 1467.41015625 495.72265625 1464.01269531 c 128,-1,131
 508.8046875 1460.61621094 508.8046875 1460.61621094 522.594726562 1460.61621094 c 0,132,133
 539.592773438 1460.61621094 539.592773438 1460.61621094 556.76953125 1464.10253906 c 128,-1,134
 573.9453125 1467.58984375 573.9453125 1467.58984375 591.192382812 1474.50683594 c 128,-1,135
 608.440429688 1481.42382812 608.440429688 1481.42382812 625.865234375 1491.78222656 c 128,-1,136
 643.290039062 1502.14160156 643.290039062 1502.14160156 660.782226562 1515.84375 c 128,-1,137
 678.274414062 1529.546875 678.274414062 1529.546875 695.9453125 1546.64746094 c 0,0,1
817.639648438 1762.25390625 m 1,138,-1
 835.866210938 1804.77929688 l 2,139,140
 842.884765625 1821.15527344 842.884765625 1821.15527344 846.397460938 1838.67578125 c 0,141,142
 848.15234375 1847.42675781 848.15234375 1847.42675781 849.028320312 1856.42773438 c 128,-1,143
 849.905273438 1865.42871094 849.905273438 1865.42871094 849.905273438 1874.671875 c 0,144,145
 849.905273438 1932.63671875 849.905273438 1932.63671875 817.138671875 1959.60644531 c 0,146,147
 786.951171875 1984.47363281 786.951171875 1984.47363281 750.461914062 1984.47363281 c 0,148,149
 711.337890625 1984.47363281 711.337890625 1984.47363281 688.430664062 1966.70898438 c 0,150,151
 653.606445312 1940.49707031 653.606445312 1940.49707031 653.606445312 1890.20898438 c 0,152,153
 653.606445312 1881.72070312 653.606445312 1881.72070312 654.841796875 1873.77734375 c 128,-1,154
 656.078125 1865.83398438 656.078125 1865.83398438 658.530273438 1858.49609375 c 128,-1,155
 660.983398438 1851.15917969 660.983398438 1851.15917969 664.638671875 1844.38476562 c 128,-1,156
 668.293945312 1837.609375 668.293945312 1837.609375 673.138671875 1831.43945312 c 128,-1,157
 677.983398438 1825.27050781 677.983398438 1825.27050781 683.998046875 1819.68261719 c 128,-1,158
 690.01171875 1814.09375 690.01171875 1814.09375 697.1875 1809.11035156 c 128,-1,159
 704.362304688 1804.12695312 704.362304688 1804.12695312 712.674804688 1799.74316406 c 128,-1,160
 720.986328125 1795.36035156 720.986328125 1795.36035156 730.431640625 1791.58203125 c 0,161,162
 757.462890625 1780.77148438 757.462890625 1780.77148438 792.266601562 1770.06933594 c 2,163,-1
 817.639648438 1762.25390625 l 1,138,-1
EndSplineSet
EndChar

StartChar: uni064D
Encoding: 1613 1613 50
Width: 0
VWidth: 2629
GlyphClass: 4
Flags: W
AnchorPoint: "Anchor-7" 643.526 76.4551 mark 0
AnchorPoint: "Anchor-6" 643.526 76.4551 mark 0
AnchorPoint: "Anchor-0" 662.887 -546.695 basemark 0
AnchorPoint: "Anchor-0" 643.526 76.4551 mark 0
LayerCount: 2
Fore
SplineSet
341.661132812 -614.079101562 m 1,0,-1
 341.661132812 -490.145507812 l 1,1,-1
 989.095703125 -225.186523438 l 1,2,-1
 989.095703125 -349.119140625 l 1,3,-1
 341.661132812 -614.079101562 l 1,0,-1
341.661132812 -303.3515625 m 1,4,-1
 341.661132812 -179.41796875 l 1,5,-1
 989.095703125 85.5419921875 l 1,6,-1
 989.095703125 -38.3916015625 l 1,7,-1
 341.661132812 -303.3515625 l 1,4,-1
EndSplineSet
EndChar

StartChar: uni064E
Encoding: 1614 1614 51
Width: 0
VWidth: 2629
GlyphClass: 4
Flags: W
AnchorPoint: "Anchor-10" 626.586 1533.29 mark 0
AnchorPoint: "Anchor-9" 626.586 1533.29 mark 0
AnchorPoint: "Anchor-1" 626.586 1921.71 basemark 0
AnchorPoint: "Anchor-1" 626.586 1533.29 mark 0
LayerCount: 2
Fore
SplineSet
301.053710938 1502.92480469 m 1,0,-1
 301.053710938 1626.85742188 l 1,1,-1
 948.48828125 1891.81738281 l 1,2,-1
 948.48828125 1767.88476562 l 1,3,-1
 301.053710938 1502.92480469 l 1,0,-1
EndSplineSet
EndChar

StartChar: uni064F
Encoding: 1615 1615 52
Width: 0
VWidth: 2629
GlyphClass: 4
Flags: W
AnchorPoint: "Anchor-10" 643.526 1443.75 mark 0
AnchorPoint: "Anchor-9" 643.526 1443.75 mark 0
AnchorPoint: "Anchor-1" 662.887 2193.35 basemark 0
AnchorPoint: "Anchor-1" 643.526 1443.75 mark 0
LayerCount: 2
Fore
SplineSet
722.370117188 1725.01171875 m 2,0,1
 720.901367188 1725.33789062 720.901367188 1725.33789062 718.375976562 1726.2578125 c 128,-1,2
 715.680664062 1727.23925781 715.680664062 1727.23925781 712.046875 1728.81054688 c 128,-1,3
 708.375976562 1730.3984375 708.375976562 1730.3984375 703.573242188 1732.73046875 c 128,-1,4
 698.743164062 1735.07617188 698.743164062 1735.07617188 693.310546875 1737.93554688 c 0,5,6
 630.9609375 1770.26367188 630.9609375 1770.26367188 600.190429688 1812.49316406 c 128,-1,7
 569.419921875 1854.72167969 569.419921875 1854.72167969 569.419921875 1907.22070312 c 0,8,9
 569.419921875 2005.13964844 569.419921875 2005.13964844 646.940429688 2063.56054688 c 0,10,11
 675.3203125 2084.84375 675.3203125 2084.84375 747.041992188 2084.84375 c 0,12,13
 788.85546875 2084.84375 788.85546875 2084.84375 820.232421875 2074.17578125 c 0,14,15
 851.319335938 2063.60742188 851.319335938 2063.60742188 872.655273438 2042.80273438 c 0,16,17
 903.9765625 2012.05664062 903.9765625 2012.05664062 919.494140625 1974.49609375 c 0,18,19
 927.252929688 1955.71484375 927.252929688 1955.71484375 931.137695312 1935.02539062 c 128,-1,20
 935.022460938 1914.3359375 935.022460938 1914.3359375 935.022460938 1891.68457031 c 0,21,22
 935.022460938 1873.32714844 935.022460938 1873.32714844 930.829101562 1850.55859375 c 128,-1,23
 926.63671875 1827.79003906 926.63671875 1827.79003906 918.228515625 1800.76367188 c 2,24,-1
 907.016601562 1764.73730469 l 1,25,-1
 944.694335938 1762.51074219 l 2,26,27
 955.9375 1761.85058594 955.9375 1761.85058594 967.495117188 1761.35644531 c 128,-1,28
 979.05078125 1760.86230469 979.05078125 1760.86230469 990.919921875 1760.53222656 c 0,29,30
 993.889648438 1760.45019531 993.889648438 1760.45019531 997.549804688 1760.36621094 c 128,-1,31
 1001.20996094 1760.28320312 1001.20996094 1760.28320312 1004.72558594 1760.21582031 c 128,-1,32
 1008.2421875 1760.1484375 1008.2421875 1760.1484375 1011.40820312 1760.09863281 c 2,33,-1
 1011.40820312 1676.8125 l 1,34,35
 1004.625 1676.94824219 1004.625 1676.94824219 998.221679688 1677.13378906 c 128,-1,36
 991.819335938 1677.31835938 991.819335938 1677.31835938 985.536132812 1677.56054688 c 0,37,38
 970.673828125 1678.13378906 970.673828125 1678.13378906 956.161132812 1679.0390625 c 0,39,40
 917.892578125 1681.59765625 917.892578125 1681.59765625 882.240234375 1685.41601562 c 2,41,-1
 864.973632812 1687.25683594 l 1,42,-1
 854.96484375 1673.06347656 l 2,43,44
 828.893554688 1636.07421875 828.893554688 1636.07421875 794.834960938 1604.78710938 c 128,-1,45
 760.77734375 1573.50097656 760.77734375 1573.50097656 718.625976562 1547.84570312 c 0,46,47
 603.256835938 1476.90234375 603.256835938 1476.90234375 501.729492188 1438.37890625 c 128,-1,48
 400.202148438 1399.85546875 400.202148438 1399.85546875 314.364257812 1393.99511719 c 1,49,-1
 314.364257812 1477.10742188 l 1,50,51
 506.32421875 1487.70703125 506.32421875 1487.70703125 679.791015625 1623.72851562 c 0,52,53
 683.72265625 1626.80664062 683.72265625 1626.80664062 687.572265625 1629.92871094 c 128,-1,54
 691.420898438 1633.05078125 691.420898438 1633.05078125 695.186523438 1636.21777344 c 128,-1,55
 698.952148438 1639.38476562 698.952148438 1639.38476562 702.634765625 1642.59667969 c 128,-1,56
 706.317382812 1645.80859375 706.317382812 1645.80859375 709.916015625 1649.06445312 c 0,57,58
 724.31640625 1662.09472656 724.31640625 1662.09472656 737.380859375 1675.84179688 c 2,59,-1
 773.326171875 1713.69921875 l 1,60,-1
 722.370117188 1725.01171875 l 2,0,1
819.397460938 1779.26660156 m 1,61,-1
 837.625976562 1821.79199219 l 2,62,63
 839.96484375 1827.24902344 839.96484375 1827.24902344 841.915039062 1832.8359375 c 128,-1,64
 843.865234375 1838.42285156 843.865234375 1838.42285156 845.42578125 1844.13671875 c 128,-1,65
 846.986328125 1849.85058594 846.986328125 1849.85058594 848.15625 1855.6875 c 0,66,67
 849.911132812 1864.43945312 849.911132812 1864.43945312 850.788085938 1873.44042969 c 128,-1,68
 851.665039062 1882.44140625 851.665039062 1882.44140625 851.665039062 1891.68457031 c 0,69,70
 851.665039062 1949.64941406 851.665039062 1949.64941406 818.8984375 1976.61816406 c 0,71,72
 788.709960938 2001.48632812 788.709960938 2001.48632812 752.220703125 2001.48632812 c 0,73,74
 733.162109375 2001.48632812 733.162109375 2001.48632812 717.6640625 1997.17578125 c 0,75,76
 701.875976562 1992.78320312 701.875976562 1992.78320312 690.189453125 1983.72167969 c 0,77,78
 672.845703125 1970.66601562 672.845703125 1970.66601562 664.0625 1951.08496094 c 128,-1,79
 655.366210938 1931.70019531 655.366210938 1931.70019531 655.366210938 1907.22070312 c 0,80,81
 655.366210938 1873.36621094 655.366210938 1873.36621094 674.807617188 1848.56933594 c 128,-1,82
 694.248046875 1823.7734375 694.248046875 1823.7734375 732.19140625 1808.59472656 c 0,83,84
 741.212890625 1804.98730469 741.212890625 1804.98730469 751.095703125 1801.39257812 c 128,-1,85
 760.979492188 1797.79785156 760.979492188 1797.79785156 771.706054688 1794.22167969 c 128,-1,86
 782.43359375 1790.64648438 782.43359375 1790.64648438 794.026367188 1787.08105469 c 2,87,-1
 819.397460938 1779.26660156 l 1,61,-1
EndSplineSet
EndChar

StartChar: uni0650
Encoding: 1616 1616 53
Width: 0
VWidth: 2629
GlyphClass: 4
Flags: W
AnchorPoint: "Anchor-7" 566.086 -30.0254 mark 0
AnchorPoint: "Anchor-6" 566.086 -30.0254 mark 0
AnchorPoint: "Anchor-0" 673.776 -391.815 basemark 0
AnchorPoint: "Anchor-0" 566.086 -30.0254 mark 0
LayerCount: 2
Fore
SplineSet
338.03125 -426.11328125 m 1,0,-1
 338.03125 -302.1796875 l 1,1,-1
 985.465820312 -37.2197265625 l 1,2,-1
 985.465820312 -161.153320312 l 1,3,-1
 338.03125 -426.11328125 l 1,0,-1
EndSplineSet
EndChar

StartChar: uni0651
Encoding: 1617 1617 54
Width: 0
VWidth: 2629
GlyphClass: 4
Flags: W
AnchorPoint: "Anchor-10" 662.887 1578.07 mark 0
AnchorPoint: "Anchor-9" 662.887 1578.07 mark 0
AnchorPoint: "Anchor-1" 648.366 2185.49 basemark 0
AnchorPoint: "Anchor-1" 662.887 1578.07 mark 0
LayerCount: 2
Fore
SplineSet
604 1614.37207031 m 0,0,1
 561.838867188 1565.11230469 561.838867188 1565.11230469 458.32421875 1565.11230469 c 0,2,3
 429.106445312 1565.11230469 429.106445312 1565.11230469 405.024414062 1572.66894531 c 0,4,5
 393.034179688 1576.43164062 393.034179688 1576.43164062 382.260742188 1582.06835938 c 128,-1,6
 371.487304688 1587.70410156 371.487304688 1587.70410156 361.884765625 1595.23339844 c 0,7,8
 342.625 1610.33496094 342.625 1610.33496094 327.67578125 1633.30273438 c 0,9,10
 321.182617188 1643.234375 321.182617188 1643.234375 315.764648438 1653.97460938 c 128,-1,11
 310.34765625 1664.71484375 310.34765625 1664.71484375 306.00390625 1676.27636719 c 0,12,13
 297.301757812 1699.43847656 297.301757812 1699.43847656 292.892578125 1726.17578125 c 128,-1,14
 288.469726562 1752.99316406 288.469726562 1752.99316406 288.469726562 1783.24414062 c 0,15,16
 288.469726562 1829.43847656 288.469726562 1829.43847656 304.950195312 1939.4375 c 1,17,-1
 373.061523438 1939.4375 l 1,18,19
 371.172851562 1916.98730469 371.172851562 1916.98730469 369.630859375 1897.40039062 c 128,-1,20
 368.087890625 1877.81347656 368.087890625 1877.81347656 366.821289062 1860.22949219 c 0,21,22
 364.153320312 1823.17089844 364.153320312 1823.17089844 362.8125 1796.03710938 c 0,23,24
 362.141601562 1782.44042969 362.141601562 1782.44042969 361.805664062 1771.33300781 c 128,-1,25
 361.469726562 1760.22460938 361.469726562 1760.22460938 361.469726562 1751.56640625 c 0,26,27
 361.469726562 1659.35253906 361.469726562 1659.35253906 482.32421875 1656.94238281 c 0,28,29
 614.3515625 1654.34960938 614.3515625 1654.34960938 626.346679688 1821.53808594 c 0,30,31
 626.6328125 1825.49804688 626.6328125 1825.49804688 626.88671875 1831.45410156 c 128,-1,32
 627.139648438 1837.41015625 627.139648438 1837.41015625 627.36328125 1845.39746094 c 128,-1,33
 627.5859375 1853.38476562 627.5859375 1853.38476562 627.778320312 1863.35058594 c 128,-1,34
 627.970703125 1873.31640625 627.970703125 1873.31640625 628.13671875 1885.39355469 c 0,35,36
 628.76953125 1931.5703125 628.76953125 1931.5703125 628.9375 2005.10449219 c 1,37,-1
 696.1171875 2005.10449219 l 1,38,39
 698.090820312 1966.99804688 698.090820312 1966.99804688 698.090820312 1918.11132812 c 0,40,41
 698.090820312 1872.20605469 698.090820312 1872.20605469 707.415039062 1837.02539062 c 128,-1,42
 716.73828125 1801.84570312 716.73828125 1801.84570312 735.611328125 1777.43945312 c 128,-1,43
 754.591796875 1752.89355469 754.591796875 1752.89355469 782.831054688 1740.61132812 c 128,-1,44
 811.071289062 1728.32910156 811.071289062 1728.32910156 848.016601562 1728.32910156 c 0,45,46
 964.302734375 1728.32910156 964.302734375 1728.32910156 964.302734375 1919.96191406 c 0,47,48
 964.302734375 1939.8515625 964.302734375 1939.8515625 963.990234375 1958.6171875 c 128,-1,49
 963.678710938 1977.38183594 963.678710938 1977.38183594 963.060546875 1994.796875 c 128,-1,50
 962.443359375 2012.21191406 962.443359375 2012.21191406 961.526367188 2028.38964844 c 128,-1,51
 960.609375 2044.56640625 960.609375 2044.56640625 959.397460938 2059.37207031 c 128,-1,52
 958.186523438 2074.17675781 958.186523438 2074.17675781 956.6875 2087.625 c 128,-1,53
 955.188476562 2101.07324219 955.188476562 2101.07324219 953.405273438 2113.12109375 c 1,54,-1
 1025.80566406 2113.12109375 l 1,55,56
 1037.30273438 2025.41699219 1037.30273438 2025.41699219 1037.30273438 1897.953125 c 0,57,58
 1037.30273438 1817.5 1037.30273438 1817.5 1005.51464844 1753.86035156 c 0,59,60
 979.7578125 1702.77929688 979.7578125 1702.77929688 946.69140625 1675.27539062 c 128,-1,61
 913.625 1647.77050781 913.625 1647.77050781 873.118164062 1643.19335938 c 0,62,63
 799.086914062 1634.99902344 799.086914062 1634.99902344 753.264648438 1665.61230469 c 0,64,65
 751.405273438 1666.83789062 751.405273438 1666.83789062 749.576171875 1668.05664062 c 128,-1,66
 747.748046875 1669.27636719 747.748046875 1669.27636719 745.952148438 1670.48828125 c 128,-1,67
 744.155273438 1671.70019531 744.155273438 1671.70019531 742.390625 1672.90527344 c 128,-1,68
 740.626953125 1674.11035156 740.626953125 1674.11035156 738.893554688 1675.30859375 c 128,-1,69
 737.161132812 1676.50683594 737.161132812 1676.50683594 735.459960938 1677.69824219 c 128,-1,70
 733.759765625 1678.88964844 733.759765625 1678.88964844 732.08984375 1680.07421875 c 0,71,72
 727.083984375 1683.62695312 727.083984375 1683.62695312 722.75390625 1686.81933594 c 128,-1,73
 718.422851562 1690.01171875 718.422851562 1690.01171875 714.77734375 1692.83691406 c 2,74,-1
 701.515625 1703.47265625 l 2,75,76
 698.571289062 1705.93359375 698.571289062 1705.93359375 696.174804688 1708.05371094 c 128,-1,77
 693.779296875 1710.17285156 693.779296875 1710.17285156 691.961914062 1711.92285156 c 128,-1,78
 690.138671875 1713.67675781 690.138671875 1713.67675781 688.71875 1715.140625 c 128,-1,79
 687.299804688 1716.60351562 687.299804688 1716.60351562 686.33203125 1717.71777344 c 2,80,-1
 684.895507812 1719.52636719 l 1,81,-1
 673.071289062 1801.90820312 l 1,82,-1
 657.786132812 1719.22753906 l 2,83,84
 652.859375 1692.57324219 652.859375 1692.57324219 639.509765625 1666.44238281 c 128,-1,85
 626.096679688 1640.19042969 626.096679688 1640.19042969 604 1614.37207031 c 0,0,1
EndSplineSet
EndChar

StartChar: uni0652
Encoding: 1618 1618 55
Width: 0
VWidth: 2629
GlyphClass: 4
Flags: W
AnchorPoint: "Anchor-10" 684.666 1350.58 mark 0
AnchorPoint: "Anchor-9" 684.666 1350.58 mark 0
AnchorPoint: "Anchor-1" 667.727 2044.52 basemark 0
AnchorPoint: "Anchor-1" 684.666 1350.58 mark 0
LayerCount: 2
Fore
SplineSet
830.029296875 1659.28027344 m 0,0,1
 830.029296875 1688.96777344 830.029296875 1688.96777344 819.567382812 1714.38476562 c 128,-1,2
 809.10546875 1739.80175781 809.10546875 1739.80175781 788.3203125 1760.5859375 c 128,-1,3
 767.53125 1781.37695312 767.53125 1781.37695312 741.916015625 1791.8359375 c 128,-1,4
 716.30078125 1802.29589844 716.30078125 1802.29589844 686.22265625 1802.29589844 c 0,5,6
 665.927734375 1802.29589844 665.927734375 1802.29589844 647.729492188 1797.69921875 c 128,-1,7
 629.530273438 1793.10253906 629.530273438 1793.10253906 613.49609375 1783.91113281 c 128,-1,8
 597.4609375 1774.71972656 597.4609375 1774.71972656 583.728515625 1760.98632812 c 0,9,10
 563.133789062 1740.39160156 563.133789062 1740.39160156 552.776367188 1714.87304688 c 128,-1,11
 542.418945312 1689.35546875 542.418945312 1689.35546875 542.418945312 1659.28027344 c 0,12,13
 542.418945312 1598.09667969 542.418945312 1598.09667969 583.728515625 1556.78808594 c 128,-1,14
 625.038085938 1515.47753906 625.038085938 1515.47753906 686.22265625 1515.47753906 c 0,15,16
 716.30078125 1515.47753906 716.30078125 1515.47753906 741.916015625 1525.93652344 c 128,-1,17
 767.53125 1536.39648438 767.53125 1536.39648438 788.319335938 1557.1875 c 128,-1,18
 809.110351562 1577.97753906 809.110351562 1577.97753906 819.569335938 1603.59179688 c 128,-1,19
 830.029296875 1629.20605469 830.029296875 1629.20605469 830.029296875 1659.28027344 c 0,0,1
894.178710938 1659.41308594 m 128,-1,21
 894.178710938 1615.64746094 894.178710938 1615.64746094 879.158203125 1578.76367188 c 128,-1,22
 864.13671875 1541.87988281 864.13671875 1541.87988281 833.963867188 1511.51367188 c 128,-1,23
 803.821289062 1481.18261719 803.821289062 1481.18261719 767.072265625 1466.08398438 c 128,-1,24
 730.32421875 1450.98535156 730.32421875 1450.98535156 686.59765625 1450.98535156 c 0,25,26
 657.30859375 1450.98535156 657.30859375 1450.98535156 631.274414062 1457.69042969 c 0,27,28
 618.280273438 1461.03808594 618.280273438 1461.03808594 606.060546875 1466.06054688 c 128,-1,29
 593.83984375 1471.08300781 593.83984375 1471.08300781 582.369140625 1477.79003906 c 0,30,31
 559.397460938 1491.22167969 559.397460938 1491.22167969 539.233398438 1511.51367188 c 0,32,33
 508.98828125 1541.95214844 508.98828125 1541.95214844 494.006835938 1578.71972656 c 0,34,35
 486.515625 1597.10351562 486.515625 1597.10351562 482.766601562 1617.26269531 c 128,-1,36
 479.016601562 1637.42285156 479.016601562 1637.42285156 479.016601562 1659.41308594 c 0,37,38
 479.016601562 1746.66210938 479.016601562 1746.66210938 539.177734375 1806.83496094 c 128,-1,39
 599.336914062 1866.99511719 599.336914062 1866.99511719 686.59765625 1866.99511719 c 0,40,41
 730.34765625 1866.99511719 730.34765625 1866.99511719 767.109375 1851.98730469 c 128,-1,42
 803.872070312 1836.97949219 803.872070312 1836.97949219 834.015625 1806.83496094 c 128,-1,43
 864.162109375 1776.68359375 864.162109375 1776.68359375 879.170898438 1739.92089844 c 128,-1,20
 894.178710938 1703.15722656 894.178710938 1703.15722656 894.178710938 1659.41308594 c 128,-1,21
EndSplineSet
EndChar

StartChar: uni0653
Encoding: 1619 1619 56
Width: 0
VWidth: 2629
GlyphClass: 4
Flags: W
AnchorPoint: "Anchor-10" 411.685 1484.17 mark 0
AnchorPoint: "Anchor-9" 411.685 1484.17 mark 0
AnchorPoint: "Anchor-1" 404.836 1852.71 basemark 0
AnchorPoint: "Anchor-1" 411.685 1484.17 mark 0
LayerCount: 2
Fore
SplineSet
309.849609375 1732 m 2,0,-1
 685.600710174 1732 l 1,1,-1
 687.100484813 1582 l 1,2,-1
 322.849609375 1582 l 2,3,4
 275.90541322 1582 275.90541322 1582 236.205799363 1560.71115251 c 128,-1,5
 196.506185506 1539.42230502 196.506185506 1539.42230502 163.236092922 1496.06645472 c 2,6,-1
 144.777253575 1472.01185753 l 1,7,-1
 43.6653776193 1586.25877417 l 1,8,-1
 54.1629923144 1602.24705577 l 2,9,10
 139.611829703 1732 139.611829703 1732 309.849609375 1732 c 2,0,-1
EndSplineSet
EndChar

StartChar: uni0657
Encoding: 1623 1623 59
Width: 0
VWidth: 2629
GlyphClass: 4
Flags: W
AnchorPoint: "Anchor-10" 662.887 1533.29 mark 0
AnchorPoint: "Anchor-9" 662.887 1533.29 mark 0
AnchorPoint: "Anchor-1" 662.887 2374.85 basemark 0
AnchorPoint: "Anchor-1" 662.887 1533.29 mark 0
LayerCount: 2
Fore
SplineSet
603.396484375 1999.04492188 m 2,0,1
 611.198242188 1997.31347656 611.198242188 1997.31347656 632.4609375 1986.12011719 c 0,2,3
 694.810546875 1953.79199219 694.810546875 1953.79199219 725.58203125 1911.5625 c 128,-1,4
 756.352539062 1869.33300781 756.352539062 1869.33300781 756.352539062 1816.83398438 c 0,5,6
 756.352539062 1767.7109375 756.352539062 1767.7109375 737.03125 1728.75292969 c 128,-1,7
 717.709960938 1689.79492188 717.709960938 1689.79492188 678.831054688 1660.49511719 c 0,8,9
 671.940429688 1655.328125 671.940429688 1655.328125 662.27734375 1651.38183594 c 128,-1,10
 652.614257812 1647.43554688 652.614257812 1647.43554688 640.155273438 1644.71777344 c 128,-1,11
 627.696289062 1641.99902344 627.696289062 1641.99902344 612.251953125 1640.60546875 c 128,-1,12
 596.807617188 1639.21289062 596.807617188 1639.21289062 578.731445312 1639.21289062 c 0,13,14
 557.6953125 1639.21289062 557.6953125 1639.21289062 539.266601562 1641.92382812 c 0,15,16
 530.0859375 1643.27539062 530.0859375 1643.27539062 521.591796875 1645.28613281 c 128,-1,17
 513.09765625 1647.29785156 513.09765625 1647.29785156 505.2890625 1649.96582031 c 128,-1,18
 497.490234375 1652.62988281 497.490234375 1652.62988281 490.345703125 1655.91503906 c 128,-1,19
 483.201171875 1659.20117188 483.201171875 1659.20117188 476.700195312 1663.10839844 c 0,20,21
 463.727539062 1670.90625 463.727539062 1670.90625 453.1171875 1681.25292969 c 0,22,23
 421.795898438 1711.99902344 421.795898438 1711.99902344 406.278320312 1749.55957031 c 128,-1,24
 390.750976562 1787.14648438 390.750976562 1787.14648438 390.750976562 1832.37011719 c 0,25,26
 390.750976562 1869.3203125 390.750976562 1869.3203125 407.543945312 1923.29199219 c 2,27,-1
 418.751953125 1959.31835938 l 1,28,-1
 381.076171875 1961.54492188 l 2,29,30
 378.828125 1961.67675781 378.828125 1961.67675781 376.567382812 1961.80175781 c 128,-1,31
 374.305664062 1961.92773438 374.305664062 1961.92773438 372.032226562 1962.04589844 c 0,32,-1
 367.470703125 1962.27734375 l 2,33,34
 365.185546875 1962.38867188 365.185546875 1962.38867188 362.88671875 1962.49511719 c 128,-1,35
 360.587890625 1962.60058594 360.587890625 1962.60058594 358.27734375 1962.69921875 c 128,-1,36
 355.965820312 1962.79882812 355.965820312 1962.79882812 353.641601562 1962.890625 c 128,-1,37
 351.319335938 1962.98242188 351.319335938 1962.98242188 348.981445312 1963.06933594 c 128,-1,38
 346.646484375 1963.15429688 346.646484375 1963.15429688 344.297851562 1963.23339844 c 128,-1,39
 341.94921875 1963.3125 341.94921875 1963.3125 339.586914062 1963.38574219 c 128,-1,40
 337.225585938 1963.45800781 337.225585938 1963.45800781 334.852539062 1963.5234375 c 0,41,42
 331.974609375 1963.60351562 331.974609375 1963.60351562 328.8828125 1963.67578125 c 128,-1,43
 325.790039062 1963.74804688 325.790039062 1963.74804688 322.479492188 1963.81347656 c 0,44,45
 318.408203125 1963.89257812 318.408203125 1963.89257812 314.364257812 1963.95605469 c 1,46,-1
 314.364257812 2047.24316406 l 1,47,48
 318.413085938 2047.16210938 318.413085938 2047.16210938 322.374023438 2047.06152344 c 128,-1,49
 326.333984375 2046.96191406 326.333984375 2046.96191406 330.217773438 2046.84082031 c 0,50,51
 340.405273438 2046.52636719 340.405273438 2046.52636719 350.170898438 2046.07324219 c 128,-1,52
 359.939453125 2045.61914062 359.939453125 2045.61914062 369.612304688 2045.01660156 c 2,53,-1
 384.821289062 2043.94238281 l 2,54,55
 387.338867188 2043.75488281 387.338867188 2043.75488281 389.844726562 2043.56152344 c 128,-1,56
 392.350585938 2043.36914062 392.350585938 2043.36914062 394.84375 2043.16992188 c 128,-1,57
 397.336914062 2042.97167969 397.336914062 2042.97167969 399.817382812 2042.76757812 c 0,58,59
 407.26171875 2042.15527344 407.26171875 2042.15527344 414.600585938 2041.4921875 c 128,-1,60
 421.938476562 2040.82910156 421.938476562 2040.82910156 429.170898438 2040.11621094 c 128,-1,61
 436.403320312 2039.40234375 436.403320312 2039.40234375 443.534179688 2038.63867188 c 2,62,-1
 460.80078125 2036.79785156 l 1,63,-1
 470.807617188 2050.9921875 l 2,64,65
 522.946289062 2124.96289062 522.946289062 2124.96289062 607.147460938 2176.2109375 c 0,66,67
 838.100585938 2318.22851562 838.100585938 2318.22851562 1011.40820312 2330.06054688 c 1,68,-1
 1011.40820312 2246.94726562 l 1,69,70
 819.448242188 2236.34765625 819.448242188 2236.34765625 645.98046875 2100.32617188 c 0,71,72
 614.499023438 2075.68261719 614.499023438 2075.68261719 588.393554688 2048.21582031 c 2,73,-1
 552.452148438 2010.37792969 l 1,74,-1
 603.396484375 1999.04492188 l 2,0,1
506.375976562 1944.78808594 m 1,75,-1
 488.147460938 1902.26367188 l 2,76,77
 484.63671875 1894.07324219 484.63671875 1894.07324219 482.000976562 1885.58496094 c 128,-1,78
 479.365234375 1877.09765625 479.365234375 1877.09765625 477.612304688 1868.34667969 c 0,79,80
 477.173828125 1866.16015625 477.173828125 1866.16015625 476.790039062 1863.95800781 c 128,-1,81
 476.407226562 1861.75488281 476.407226562 1861.75488281 476.078125 1859.53710938 c 128,-1,82
 475.75 1857.31835938 475.75 1857.31835938 475.4765625 1855.08496094 c 128,-1,83
 475.202148438 1852.8515625 475.202148438 1852.8515625 474.983398438 1850.6015625 c 0,84,85
 474.545898438 1846.10351562 474.545898438 1846.10351562 474.327148438 1841.54589844 c 128,-1,86
 474.108398438 1836.98730469 474.108398438 1836.98730469 474.108398438 1832.37011719 c 0,87,88
 474.108398438 1774.421875 474.108398438 1774.421875 506.874023438 1747.43652344 c 0,89,90
 537.0625 1722.56933594 537.0625 1722.56933594 573.551757812 1722.56933594 c 0,91,92
 578.293945312 1722.56933594 578.293945312 1722.56933594 582.815429688 1722.8359375 c 128,-1,93
 587.336914062 1723.10253906 587.336914062 1723.10253906 591.658203125 1723.63867188 c 128,-1,94
 595.979492188 1724.17480469 595.979492188 1724.17480469 600.095703125 1724.98535156 c 128,-1,95
 604.211914062 1725.79589844 604.211914062 1725.79589844 608.108398438 1726.87988281 c 0,96,97
 613.32421875 1728.33105469 613.32421875 1728.33105469 618.129882812 1730.3125 c 128,-1,98
 622.935546875 1732.29394531 622.935546875 1732.29394531 627.31640625 1734.80761719 c 128,-1,99
 631.697265625 1737.3203125 631.697265625 1737.3203125 635.583984375 1740.33398438 c 0,100,101
 647.146484375 1749.03710938 647.146484375 1749.03710938 654.970703125 1760.79199219 c 0,102,103
 658.87109375 1766.65234375 658.87109375 1766.65234375 661.783203125 1773.12304688 c 128,-1,104
 664.6953125 1779.59277344 664.6953125 1779.59277344 666.608398438 1786.63867188 c 0,105,106
 670.40625 1800.62402344 670.40625 1800.62402344 670.40625 1816.83398438 c 0,107,108
 670.40625 1833.78613281 670.40625 1833.78613281 665.487304688 1848.53417969 c 128,-1,109
 660.568359375 1863.28222656 660.568359375 1863.28222656 650.870117188 1875.61328125 c 128,-1,110
 641.171875 1887.94335938 641.171875 1887.94335938 626.83203125 1897.91992188 c 128,-1,111
 612.4921875 1907.89550781 612.4921875 1907.89550781 593.5859375 1915.45800781 c 0,112,113
 586.823242188 1918.16503906 586.823242188 1918.16503906 579.575195312 1920.86425781 c 128,-1,114
 572.327148438 1923.56347656 572.327148438 1923.56347656 564.596679688 1926.25292969 c 128,-1,115
 556.866210938 1928.94238281 556.866210938 1928.94238281 548.65625 1931.62207031 c 128,-1,116
 540.446289062 1934.30175781 540.446289062 1934.30175781 531.748046875 1936.97558594 c 2,117,-1
 506.375976562 1944.78808594 l 1,75,-1
EndSplineSet
EndChar

StartChar: uni065A
Encoding: 1626 1626 60
Width: 1324
VWidth: 2629
GlyphClass: 4
Flags: W
AnchorPoint: "Anchor-10" 662.887 1533.29 mark 0
AnchorPoint: "Anchor-9" 662.887 1533.29 mark 0
AnchorPoint: "Anchor-1" 660.297 2115.91 basemark 0
AnchorPoint: "Anchor-1" 662.887 1533.29 mark 0
LayerCount: 2
Fore
SplineSet
583.823242188 1643.09570312 m 1,0,-1
 366.685546875 2006.10839844 l 1,1,-1
 478.771484375 2006.10839844 l 1,2,-1
 662.88671875 1729.93164062 l 1,3,-1
 846.999023438 2006.10839844 l 1,4,-1
 959.086914062 2006.10839844 l 1,5,-1
 741.946289062 1643.09570312 l 1,6,-1
 583.823242188 1643.09570312 l 1,0,-1
EndSplineSet
EndChar

StartChar: afii57392
Encoding: 1632 1632 61
Width: 1423
VWidth: 2629
GlyphClass: 2
Flags: W
LayerCount: 2
Fore
SplineSet
594.514648438 721.517578125 m 0,0,1
 594.514648438 708.15625 594.514648438 708.15625 596.932617188 695.674804688 c 128,-1,2
 599.3515625 683.194335938 599.3515625 683.194335938 604.163085938 671.666015625 c 128,-1,3
 608.975585938 660.138671875 608.975585938 660.138671875 616.178710938 649.563476562 c 128,-1,4
 623.380859375 638.989257812 623.380859375 638.989257812 632.942382812 629.428710938 c 0,5,6
 652.075195312 610.295898438 652.075195312 610.295898438 675.186523438 600.6484375 c 128,-1,7
 698.298828125 591.001953125 698.298828125 591.001953125 725.032226562 591.001953125 c 0,8,9
 742.84765625 591.001953125 742.84765625 591.001953125 759.078125 595.293945312 c 128,-1,10
 775.30859375 599.586914062 775.30859375 599.586914062 789.83984375 608.1328125 c 128,-1,11
 804.372070312 616.6796875 804.372070312 616.6796875 817.120117188 629.428710938 c 128,-1,12
 829.869140625 642.177734375 829.869140625 642.177734375 838.416015625 656.708984375 c 128,-1,13
 846.962890625 671.241210938 846.962890625 671.241210938 851.254882812 687.471679688 c 128,-1,14
 855.547851562 703.702148438 855.547851562 703.702148438 855.547851562 721.517578125 c 128,-1,15
 855.547851562 739.333007812 855.547851562 739.333007812 851.254882812 755.563476562 c 128,-1,16
 846.962890625 771.793945312 846.962890625 771.793945312 838.416015625 786.326171875 c 128,-1,17
 829.869140625 800.857421875 829.869140625 800.857421875 817.120117188 813.606445312 c 0,18,19
 797.987304688 832.740234375 797.987304688 832.740234375 774.875976562 842.387695312 c 128,-1,20
 751.763671875 852.03515625 751.763671875 852.03515625 725.032226562 852.03515625 c 0,21,22
 707.216796875 852.03515625 707.216796875 852.03515625 690.986328125 847.7421875 c 128,-1,23
 674.754882812 843.450195312 674.754882812 843.450195312 660.22265625 834.903320312 c 128,-1,24
 645.69140625 826.356445312 645.69140625 826.356445312 632.942382812 813.606445312 c 0,25,26
 613.80859375 794.473632812 613.80859375 794.473632812 604.162109375 771.362304688 c 128,-1,27
 594.514648438 748.25 594.514648438 748.25 594.514648438 721.517578125 c 0,0,1
440.043945312 717.830078125 m 0,28,29
 440.043945312 837.752929688 440.043945312 837.752929688 524.708984375 922.9140625 c 128,-1,30
 609.299804688 1007.99707031 609.299804688 1007.99707031 728.35546875 1007.99707031 c 0,31,32
 788.10546875 1007.99707031 788.10546875 1007.99707031 838.819335938 986.814453125 c 128,-1,33
 889.540039062 965.626953125 889.540039062 965.626953125 932.00390625 922.9140625 c 128,-1,34
 974.49609375 880.170898438 974.49609375 880.170898438 995.58203125 829.091796875 c 128,-1,35
 1016.66796875 778.014648438 1016.66796875 778.014648438 1016.66796875 717.830078125 c 128,-1,36
 1016.66796875 657.76171875 1016.66796875 657.76171875 995.5390625 606.580078125 c 128,-1,37
 974.411132812 555.399414062 974.411132812 555.399414062 932.00390625 512.747070312 c 0,38,39
 903.748046875 484.328125 903.748046875 484.328125 871.75390625 465.428710938 c 128,-1,40
 839.758789062 446.529296875 839.758789062 446.529296875 803.9375 437.096679688 c 128,-1,41
 768.115234375 427.665039062 768.115234375 427.665039062 728.35546875 427.665039062 c 0,42,43
 668.724609375 427.665039062 668.724609375 427.665039062 617.903320312 448.896484375 c 128,-1,44
 567.081054688 470.127929688 567.081054688 470.127929688 524.708984375 512.747070312 c 128,-1,45
 482.215820312 555.487304688 482.215820312 555.487304688 461.129882812 606.56640625 c 128,-1,46
 440.043945312 657.643554688 440.043945312 657.643554688 440.043945312 717.830078125 c 0,28,29
EndSplineSet
EndChar

StartChar: afii57393
Encoding: 1633 1633 62
Width: 1423
VWidth: 2629
GlyphClass: 2
Flags: W
LayerCount: 2
Fore
SplineSet
876.735351562 9.1845703125 m 1,0,-1
 702.73828125 9.1845703125 l 1,1,2
 702.08203125 252.29296875 702.08203125 252.29296875 690.185546875 453.360351562 c 0,3,4
 678.151367188 656.763671875 678.151367188 656.763671875 654.502929688 819.374023438 c 0,5,6
 628.107421875 998.87109375 628.107421875 998.87109375 586.787109375 1154.78808594 c 0,7,8
 546.688476562 1306.08496094 546.688476562 1306.08496094 492.951171875 1433.58496094 c 1,9,-1
 681.598632812 1433.58496094 l 1,10,11
 739.497070312 1261.28222656 739.497070312 1261.28222656 777.857421875 1105.99902344 c 128,-1,12
 816.216796875 950.716796875 816.216796875 950.716796875 835.779296875 809.696289062 c 0,13,14
 875.731445312 515.870117188 875.731445312 515.870117188 876.735351562 9.1845703125 c 1,0,-1
EndSplineSet
EndChar

StartChar: afii57394
Encoding: 1634 1634 63
Width: 1423
VWidth: 2629
GlyphClass: 2
Flags: W
LayerCount: 2
Fore
SplineSet
572.829101562 858.192382812 m 1,0,-1
 582.155273438 808.87890625 l 1,1,2
 621.957995252 616.096243766 621.957995252 616.096243766 622.975585938 9.1845703125 c 1,3,-1
 448.98046875 9.1845703125 l 1,4,5
 447.831569858 528.22443193 447.831569858 528.22443193 414.100585938 763.450195312 c 0,6,7
 368.76299242 1101.8487643 368.76299242 1101.8487643 246.728515625 1426.32519531 c 1,8,-1
 431.587890625 1426.32519531 l 1,9,10
 477.591338674 1278.69406021 477.591338674 1278.69406021 491.649414062 1236.67675781 c 0,11,12
 563.34765625 1022.37890625 563.34765625 1022.37890625 798.6171875 1020.52636719 c 128,-1,13
 1033.88671875 1018.67382812 1033.88671875 1018.67382812 1044.74121094 1216.13085938 c 0,14,15
 1045.27636719 1225.81347656 1045.27636719 1225.81347656 1046.359375 1426.32519531 c 1,16,-1
 1192.27636719 1426.32519531 l 1,17,18
 1196.35449219 1208.97167969 1196.35449219 1208.97167969 1181.25 1121.30957031 c 0,19,20
 1134.24414062 848.39453125 1134.24414062 848.39453125 798.830078125 848.39453125 c 0,21,22
 630 848 630 848 553.72265625 933.206054688 c 1,23,-1
 572.829101562 858.192382812 l 1,0,-1
EndSplineSet
EndChar

StartChar: afii57395
Encoding: 1635 1635 64
Width: 1423
VWidth: 2629
GlyphClass: 2
Flags: W
LayerCount: 2
Fore
SplineSet
884.73046875 1426.32519531 m 1,0,1
 885 1328 885 1328 884.369580795 1227.2926126 c 0,2,3
 883 1031 883 1031 1014.7421875 1022.8515625 c 0,4,5
 1157 1014 1157 1014 1160.29882812 1236.2890625 c 0,6,7
 1161 1283 1161 1283 1159.62402344 1425.76855469 c 1,8,-1
 1309.61816406 1425.76855469 l 1,9,10
 1315 1176 1315 1176 1283 1056.70605469 c 0,11,12
 1230 858 1230 858 1043 857 c 0,13,14
 899 857 899 857 814.350585938 990.077148438 c 1,15,16
 754 864 754 864 611 860 c 4,17,18
 487 857 487 857 423.005859375 938.106445312 c 1,19,20
 444 852 444 852 452.685546875 808.876953125 c 0,21,22
 493 599 493 599 493.509765625 9.1845703125 c 1,23,-1
 319.501953125 9.1845703125 l 1,24,25
 318 504 318 504 268.384765625 838.918945311 c 0,26,27
 219 1174 219 1174 126.758789062 1426.32519531 c 1,28,-1
 302.110351562 1426.32519531 l 1,29,30
 348 1279 348 1279 362.185546875 1236.65527344 c 0,31,32
 434 1024 434 1024 576.70703125 1022.37890625 c 0,33,34
 731 1020 731 1020 738.631835938 1216.95117188 c 0,35,36
 739 1227 739 1227 739.060546875 1426.32519531 c 1,37,-1
 884.73046875 1426.32519531 l 1,0,1
EndSplineSet
EndChar

StartChar: afii57396
Encoding: 1636 1636 65
Width: 1423
VWidth: 2629
GlyphClass: 2
Flags: W
LayerCount: 2
Fore
SplineSet
846 1282.28710938 m 1,0,1
 535 1064 535 1064 506 985 c 1,2,3
 703 838 703 838 914 796 c 1,4,5
 909 740 909 740 905 685 c 1,6,7
 624 523 624 523 503 313 c 1,8,9
 692 220 692 220 1026 250 c 1,10,-1
 1053 48 l 1,11,12
 575 16 575 16 338 202 c 1,13,14
 359 496 359 496 617 703 c 5,15,16
 442 788 442 788 350 922 c 1,17,18
 398 1255 398 1255 825.545898438 1410.75683594 c 1,19,20
 840 1386 840 1386 846 1282.28710938 c 1,0,1
EndSplineSet
EndChar

StartChar: afii57397
Encoding: 1637 1637 66
Width: 1423
VWidth: 2629
GlyphClass: 2
Flags: W
LayerCount: 2
Fore
SplineSet
690.46484375 1040.83203125 m 1,0,1
 503.143238464 884.1163124 503.143238464 884.1163124 409.598632812 655.774414062 c 0,2,3
 374.395928862 569.838171231 374.395928862 569.838171231 370.225585938 496.375976562 c 0,4,5
 354.373909958 180.06359959 354.373909958 180.06359959 754.713378906 178.806640625 c 0,6,7
 954.0859375 178.180664062 954.0859375 178.180664062 1012.82617188 277.154296875 c 128,-1,8
 1071.56640625 376.127929688 1071.56640625 376.127929688 1048.78320312 542.563964844 c 128,-1,9
 1026 709 1026 709 919.560546875 847.584960938 c 0,10,11
 838.690026916 951.656463348 838.690026916 951.656463348 690.46484375 1040.83203125 c 1,0,1
487.26953125 1182.71777344 m 1,12,-1
 587.280273438 1322.80566406 l 1,13,14
 1206.90908438 1035.14791328 1206.90908438 1035.14791328 1232.05859375 510.50390625 c 0,15,16
 1247.91209806 205.670240432 1247.91209806 205.670240432 1078.875 91.681640625 c 0,17,18
 947.088225126 2.79870807678 947.088225126 2.79870807678 719.436523438 3.7841796875 c 0,19,20
 430.649414062 3.7412109375 430.649414062 3.7412109375 298.213867187 143.793945313 c 128,-1,21
 165.778320312 283.846679688 165.778320312 283.846679688 195.092773438 509.428710938 c 0,22,23
 219.009765625 691.943359375 219.009765625 691.943359375 325.298339844 868.691406248 c 132,-1,24
 431.599781637 1045.4608507 431.599781637 1045.4608507 557.29296875 1143.81640625 c 1,25,-1
 487.26953125 1182.71777344 l 1,12,-1
EndSplineSet
EndChar

StartChar: afii57398
Encoding: 1638 1638 67
Width: 1423
VWidth: 2629
GlyphClass: 2
Flags: W
LayerCount: 2
Fore
SplineSet
175.87890625 1416.18066406 m 1,0,1
 393.127210107 1360.37988281 393.127210107 1360.37988281 621.068945652 1360.37988281 c 128,-1,2
 849.010681197 1360.37988281 849.010681197 1360.37988281 1102.19433594 1417.41894531 c 1,3,4
 1106.30183904 642.586128465 1106.30183904 642.586128465 1262.41992188 9.1845703125 c 1,5,-1
 1069.89355469 9.1845703125 l 1,6,7
 992.600176679 365.387333611 992.600176679 365.387333611 960.584268027 720.003725401 c 128,-1,8
 928.556129849 1074.75557455 928.556129849 1074.75557455 930.674804688 1217.95703125 c 1,9,10
 772.577845696 1171.87402344 772.577845696 1171.87402344 575.6953125 1171.87402344 c 132,-1,11
 378.825195312 1171.87402344 378.825195312 1171.87402344 175.87890625 1229.23730469 c 1,12,-1
 175.87890625 1416.18066406 l 1,0,1
EndSplineSet
EndChar

StartChar: afii57399
Encoding: 1639 1639 68
Width: 1423
VWidth: 2629
GlyphClass: 2
Flags: W
LayerCount: 2
Fore
SplineSet
622.059570312 9.1845703125 m 1,0,1
 553.684957436 459.210894622 553.684957436 459.210894622 474.862304688 713.481445312 c 0,2,3
 329.637695312 1178.49121094 329.637695312 1178.49121094 180.953125 1421.484375 c 1,4,-1
 379.598632812 1421.484375 l 1,5,6
 630.804461647 903.87245332 630.804461647 903.87245332 698.5078125 531.407226562 c 2,7,-1
 712.083007812 456.713867188 l 1,8,-1
 725.662109375 531.407226562 l 2,9,10
 802.09813187 951.897334039 802.09813187 951.897334039 1051.48242188 1421.484375 c 1,11,-1
 1235.83496094 1421.484375 l 1,12,13
 1034.50155413 1024.25699023 1034.50155413 1024.25699023 938.760769239 675.060389606 c 128,-1,14
 843.019984351 325.863788977 843.019984351 325.863788977 802.51171875 9.1845703125 c 1,15,-1
 622.059570312 9.1845703125 l 1,0,1
EndSplineSet
EndChar

StartChar: afii57400
Encoding: 1640 1640 69
Width: 1423
VWidth: 2629
GlyphClass: 2
Flags: W
LayerCount: 2
Fore
SplineSet
622.060546875 1421.484375 m 1,0,-1
 802.51171875 1421.484375 l 1,1,2
 842.962779268 1105.02051404 842.962779268 1105.02051404 938.685491194 755.86621405 c 128,-1,3
 1034.40820312 406.711914062 1034.40820312 406.711914062 1235.83496094 9.1845703125 c 1,4,-1
 1051.48242188 9.1845703125 l 1,5,6
 802.091767858 478.786877959 802.091767858 478.786877959 712.084960938 973.95703125 c 1,7,8
 670.280029665 743.968267804 670.280029665 743.968267804 605.061523438 542.263671875 c 132,-1,9
 539.845703125 340.567382812 539.845703125 340.567382812 373.672851562 9.1845703125 c 1,10,-1
 175.0625 9.1845703125 l 1,11,12
 315.295898438 236.3984375 315.295898438 236.3984375 474.813476562 717.036132812 c 0,13,14
 550.317963386 949.343365534 550.317963386 949.343365534 622.060546875 1421.484375 c 1,0,-1
EndSplineSet
EndChar

StartChar: afii57401
Encoding: 1641 1641 70
Width: 1423
VWidth: 2629
GlyphClass: 2
Flags: W
LayerCount: 2
Fore
SplineSet
940.423828125 558.270507812 m 2,0,1
 700.805555234 558.270507812 700.805555234 558.270507812 602.209960938 580.599609375 c 0,2,3
 385 629 385 629 287.028320312 737.290527344 c 0,4,5
 189 845 189 845 189.25 979.296875 c 0,6,7
 189 1160 189 1160 301.30859375 1271.69238281 c 0,8,9
 454 1426 454 1426 634.875 1425.96191406 c 0,10,11
 836 1426 836 1426 949.577148438 1330.953125 c 0,12,13
 1088 1215 1088 1215 1107.76855469 970.642578125 c 0,14,15
 1128 715 1128 715 1144.26464844 599.552734375 c 0,16,17
 1214 104 1214 104 1241.8828125 9.1845703125 c 1,18,-1
 1050.61816406 9.1845703125 l 1,19,20
 1001.89992697 235.101269749 1001.89992697 235.101269749 966.931640625 558.270507812 c 5,21,-1
 940.423828125 558.270507812 l 2,0,1
938.881835938 733.551757812 m 1,22,-1
 938.881835938 875.720703125 l 2,23,24
 938.881835938 1033.79882812 938.881835938 1033.79882812 879.893554688 1114.23535156 c 0,25,26
 783.49609375 1249.61914062 783.49609375 1249.61914062 641.348632812 1248.34667969 c 0,27,28
 527.1484375 1248.34667969 527.1484375 1248.34667969 445.191894531 1169.29785156 c 128,-1,29
 363.235351562 1090.24902344 363.235351562 1090.24902344 363.235351562 991.846191407 c 128,-1,30
 363.235351562 893.443359375 363.235351562 893.443359375 450.611201581 823.527214107 c 128,-1,31
 537.9870516 753.611068839 537.9870516 753.611068839 729.563476562 739.234375 c 0,32,33
 805.288085938 733.551757812 805.288085938 733.551757812 909.350585938 733.551757812 c 2,34,-1
 938.881835938 733.551757812 l 1,22,-1
EndSplineSet
EndChar

StartChar: afii57381
Encoding: 1642 1642 71
Width: 1423
VWidth: 2629
GlyphClass: 2
Flags: W
LayerCount: 2
Fore
SplineSet
181.815429688 1333.21777344 m 0,0,1
 181.815429688 1342.40625 181.815429688 1342.40625 182.87890625 1351.07324219 c 128,-1,2
 183.943359375 1359.74023438 183.943359375 1359.74023438 186.06640625 1367.89941406 c 128,-1,3
 188.185546875 1376.04589844 188.185546875 1376.04589844 191.374023438 1383.73925781 c 128,-1,4
 194.561523438 1391.43164062 194.561523438 1391.43164062 198.828125 1398.69433594 c 0,5,6
 207.380859375 1413.25585938 207.380859375 1413.25585938 220.364257812 1426.23925781 c 0,7,8
 226.869140625 1432.74316406 226.869140625 1432.74316406 233.75390625 1438.125 c 128,-1,9
 240.639648438 1443.50683594 240.639648438 1443.50683594 247.912109375 1447.77832031 c 0,10,11
 262.424804688 1456.30273438 262.424804688 1456.30273438 278.708007812 1460.54003906 c 0,12,13
 286.8671875 1462.66308594 286.8671875 1462.66308594 295.534179688 1463.72753906 c 128,-1,14
 304.201171875 1464.79101562 304.201171875 1464.79101562 313.390625 1464.79101562 c 0,15,16
 367.862304688 1464.79101562 367.862304688 1464.79101562 406.4140625 1426.24023438 c 128,-1,17
 444.96484375 1387.68847656 444.96484375 1387.68847656 444.96484375 1333.21777344 c 0,18,19
 444.96484375 1319.44824219 444.96484375 1319.44824219 442.573242188 1306.83105469 c 128,-1,20
 440.182617188 1294.21386719 440.182617188 1294.21386719 435.407226562 1282.69140625 c 0,21,22
 425.850585938 1259.62695312 425.850585938 1259.62695312 406.4140625 1240.19042969 c 0,23,24
 396.668945312 1230.44628906 396.668945312 1230.44628906 386.052734375 1223.20898438 c 128,-1,25
 375.436523438 1215.97167969 375.436523438 1215.97167969 363.9140625 1211.19726562 c 0,26,27
 340.8515625 1201.640625 340.8515625 1201.640625 313.390625 1201.640625 c 0,28,29
 295.155273438 1201.640625 295.155273438 1201.640625 278.796875 1205.90429688 c 128,-1,30
 262.439453125 1210.16894531 262.439453125 1210.16894531 247.854492188 1218.72753906 c 128,-1,31
 233.270507812 1227.28515625 233.270507812 1227.28515625 220.364257812 1240.19042969 c 128,-1,32
 207.459960938 1253.09667969 207.459960938 1253.09667969 198.901367188 1267.68066406 c 128,-1,33
 190.342773438 1282.265625 190.342773438 1282.265625 186.079101562 1298.62402344 c 128,-1,34
 181.815429688 1314.98144531 181.815429688 1314.98144531 181.815429688 1333.21777344 c 0,0,1
905.395507812 138.947265625 m 0,35,36
 905.474609375 166.35546875 905.474609375 166.35546875 915.076171875 189.518554688 c 128,-1,37
 924.676757812 212.682617188 924.676757812 212.682617188 943.940429688 231.96484375 c 0,38,39
 950.383789062 238.40234375 950.383789062 238.40234375 957.2421875 243.75 c 128,-1,40
 964.1015625 249.096679688 964.1015625 249.096679688 971.356445312 253.34765625 c 128,-1,41
 978.610351562 257.598632812 978.610351562 257.598632812 986.30078125 260.78515625 c 0,42,43
 1009.40429688 270.360351562 1009.40429688 270.360351562 1036.96972656 270.520507812 c 0,44,45
 1091.72460938 270.203125 1091.72460938 270.203125 1129.98925781 231.973632812 c 0,46,47
 1142.83691406 219.114257812 1142.83691406 219.114257812 1151.38085938 204.540039062 c 128,-1,48
 1159.92480469 189.965820312 1159.92480469 189.965820312 1164.20800781 173.600585938 c 128,-1,49
 1168.4921875 157.235351562 1168.4921875 157.235351562 1168.54492188 138.987304688 c 0,50,51
 1167.56347656 83.7890625 1167.56347656 83.7890625 1129.95703125 45.884765625 c 0,52,53
 1091.72460938 7.3701171875 1091.72460938 7.3701171875 1036.96972656 7.3701171875 c 128,-1,54
 982.215820312 7.3701171875 982.215820312 7.3701171875 943.909179688 45.95703125 c 0,55,56
 931.073242188 58.69921875 931.073242188 58.69921875 922.541992188 73.216796875 c 128,-1,57
 914.01171875 87.7353515625 914.01171875 87.7353515625 909.73046875 104.143554688 c 128,-1,58
 905.448242188 120.552734375 905.448242188 120.552734375 905.395507812 138.947265625 c 0,35,36
971.666015625 1463.26660156 m 1,59,-1
 1112.32128906 1463.26660156 l 1,60,-1
 361.37890625 9.1845703125 l 1,61,-1
 220.727539062 9.1845703125 l 1,62,-1
 971.666015625 1463.26660156 l 1,59,-1
EndSplineSet
EndChar

StartChar: uni066B
Encoding: 1643 1643 72
Width: 860
VWidth: 2629
GlyphClass: 2
Flags: W
LayerCount: 2
Fore
SplineSet
544.073242188 578.829101562 m 1,0,-1
 664.333984375 577.93359375 l 1,1,2
 399.120117188 123.215820312 399.120117188 123.215820312 149.680664062 -279.614257812 c 1,3,-1
 26.525390625 -277.924804688 l 1,4,5
 148.662109375 -80.4267578125 148.662109375 -80.4267578125 544.073242188 578.829101562 c 1,0,-1
EndSplineSet
EndChar

StartChar: uni066C
Encoding: 1644 1644 73
Width: 841
VWidth: 2629
GlyphClass: 2
Flags: W
LayerCount: 2
Fore
SplineSet
366.15234375 1883.11230469 m 1,0,-1
 580.274414062 1883.11230469 l 1,1,-1
 580.274414062 1722.99902344 l 1,2,-1
 379.451171875 1332.36816406 l 1,3,-1
 268.538085938 1332.36816406 l 1,4,-1
 366.15234375 1712.1171875 l 1,5,-1
 366.15234375 1883.11230469 l 1,0,-1
EndSplineSet
EndChar

StartChar: afii63167
Encoding: 1645 1645 74
Width: 1444
VWidth: 2629
GlyphClass: 2
Flags: W
LayerCount: 2
Fore
SplineSet
203.071289062 932.801757812 m 1,0,-1
 598.817382812 932.801757812 l 1,1,-1
 722.444335938 1309.19140625 l 1,2,-1
 846.06640625 932.801757812 l 1,3,-1
 1241.81445312 932.801757812 l 1,4,-1
 922.080078125 699.06640625 l 1,5,-1
 1044.38085938 323.34375 l 1,6,-1
 722.444335938 555.978515625 l 1,7,-1
 400.502929688 323.34375 l 1,8,-1
 522.805664062 699.06640625 l 1,9,-1
 203.071289062 932.801757812 l 1,0,-1
EndSplineSet
EndChar

StartChar: uni066E
Encoding: 1646 1646 75
Width: 1980
VWidth: 2629
GlyphClass: 2
Flags: W
AnchorPoint: "Anchor-10" 891.496 1264.46 basechar 0
AnchorPoint: "Anchor-7" 891.496 -224.44 basechar 0
LayerCount: 2
Fore
SplineSet
1506.66015625 -0.099609375 m 6,0,-1
 472.100585938 -0.099609375 l 6,1,2
 281 0 281 0 186.63671875 111.466796875 c 4,3,4
 91.9072265625 224.110351562 91.9072265625 224.110351562 91.90625 452.553710938 c 6,5,-1
 91.9052734375 667.783203125 l 5,6,-1
 270.004882812 667.783203125 l 5,7,-1
 270.004882812 463.444335938 l 6,8,9
 270 188.866210938 270 188.866210938 476.774414062 188.866210938 c 6,10,-1
 1503.21191406 188.866210938 l 6,11,12
 1554 189 1554 189 1593.39453125 206.411132812 c 4,13,14
 1632 224 1632 224 1658.37109375 258.993164062 c 4,15,16
 1684 294 1684 294 1697.13964844 344.681640625 c 4,17,18
 1709.98242188 394.931640625 1709.98242188 394.931640625 1709.98242188 462.233398438 c 6,19,-1
 1709.98242188 667.783203125 l 5,20,-1
 1888.08300781 667.783203125 l 5,21,-1
 1888.08300781 458.603515625 l 6,22,23
 1888 386 1888 386 1877.43652344 316.798828125 c 4,24,25
 1867 253 1867 253 1845.57519531 201.5859375 c 4,26,27
 1803 100 1803 100 1719.08105469 50.083984375 c 132,-1,28
 1635 0 1635 0 1506.66015625 -0.099609375 c 6,0,-1
EndSplineSet
Substitution2: "'init' Initial Forms in Arabic lookup 13 subtable" uni066E.init
Substitution2: "'medi' Medial Forms in Arabic lookup 11 subtable" uni066E.medi
Substitution2: "'fina' Terminal Forms in Arabic lookup 9 subtable" uni066E.fina
EndChar

StartChar: uni066F
Encoding: 1647 1647 76
Width: 1547
VWidth: 2629
GlyphClass: 2
Flags: W
AnchorPoint: "Anchor-10" 349.15 1256.21 basechar 0
AnchorPoint: "Anchor-7" 422.96 -676.77 basechar 0
LayerCount: 2
Fore
SplineSet
1276.95507812 116.911132812 m 1,0,1
 1213.86132812 116.271484375 1213.86132812 116.271484375 1103.17089844 116.334960938 c 128,-1,2
 992.481445312 116.3984375 992.481445312 116.3984375 932.749023438 138.552734375 c 128,-1,3
 873.016601562 160.70703125 873.016601562 160.70703125 833.012695312 205.059570312 c 0,4,5
 749.36328125 296.143554688 749.36328125 296.143554688 766.133789062 512.040039062 c 0,6,7
 777.584960938 664.202148438 777.584960938 664.202148438 846.48046875 740.111328125 c 0,8,9
 938.415039062 842.381835938 938.415039062 842.381835938 1120.17675781 838.921875 c 0,10,11
 1464.10253906 831.8046875 1464.10253906 831.8046875 1455.40234375 414.619140625 c 0,12,13
 1453.38769531 295.998046875 1453.38769531 295.998046875 1454.93945312 239.508789062 c 1,14,-1
 1454.93945312 103.044921875 l 1,15,-1
 1454.48046875 61.6416015625 l 2,16,17
 1448.24707031 -500.7578125 1448.24707031 -500.7578125 857.755859375 -497.645507812 c 2,18,-1
 745.91015625 -497.041015625 l 1,19,-1
 717.717773438 -497.041015625 l 2,20,21
 91.91015625 -497.041015625 91.91015625 -497.041015625 91.876953125 41.5224609375 c 2,22,-1
 91.876953125 322.848632812 l 2,23,24
 91.876953125 454.036132812 91.876953125 454.036132812 191.729492188 453.642578125 c 2,25,-1
 269.977539062 453.642578125 l 1,26,-1
 269.977539062 42.7314453125 l 2,27,28
 269.977539062 -308.215820312 269.977539062 -308.215820312 719.955078125 -308.075195312 c 2,29,-1
 745.98046875 -308.075195312 l 1,30,-1
 866.401367188 -307.469726562 l 2,31,32
 1273.99023438 -305.415039062 1273.99023438 -305.415039062 1276.37890625 46.85546875 c 2,33,-1
 1276.95507812 116.911132812 l 1,0,1
1280.01269531 310.701171875 m 1,34,35
 1289.61035156 534.505859375 1289.61035156 534.505859375 1251.56542969 597.279296875 c 128,-1,36
 1213.52148438 660.052734375 1213.52148438 660.052734375 1118.16796875 664.443359375 c 0,37,38
 916.575195312 673.727539062 916.575195312 673.727539062 922.803710938 451.935546875 c 0,39,40
 925.259765625 364.48828125 925.259765625 364.48828125 973.8515625 332.404296875 c 0,41,42
 1047.22753906 284.830078125 1047.22753906 284.830078125 1280.01269531 310.701171875 c 1,34,35
EndSplineSet
Substitution2: "'init' Initial Forms in Arabic lookup 13 subtable" uni066F.init
Substitution2: "'medi' Medial Forms in Arabic lookup 11 subtable" uni066F.medi
Substitution2: "'fina' Terminal Forms in Arabic lookup 9 subtable" uni066F.fina
EndChar

StartChar: uni0670
Encoding: 1648 1648 77
Width: 0
VWidth: 2629
GlyphClass: 4
Flags: W
AnchorPoint: "Anchor-10" 662.887 1533.29 mark 0
AnchorPoint: "Anchor-9" 662.887 1533.29 mark 0
AnchorPoint: "Anchor-1" 662.887 2374.85 basemark 0
AnchorPoint: "Anchor-1" 662.887 1533.29 mark 0
LayerCount: 2
Fore
SplineSet
621.208007812 1605.54980469 m 1,0,-1
 621.208007812 2302.59570312 l 1,1,-1
 704.564453125 2302.59570312 l 1,2,-1
 704.564453125 1605.54980469 l 1,3,-1
 621.208007812 1605.54980469 l 1,0,-1
EndSplineSet
EndChar

StartChar: uni0674
Encoding: 1652 1652 78
Width: 772
VWidth: 2629
GlyphClass: 2
Flags: W
LayerCount: 2
Fore
SplineSet
179.903320312 1813.61826064 m 1,0,-1
 326.99630724 1847.56187586 l 1,1,2
 247.203930299 1883.81017611 247.203930299 1883.81017611 214.833890688 1928.62007364 c 128,-1,3
 182.493164062 1973.38939315 182.493164062 1973.38939315 182.493164062 2046.15334201 c 0,4,5
 182.493164062 2144.94445371 182.493164062 2144.94445371 287.289146307 2204.53462193 c 0,6,7
 367.822166372 2250.32813529 367.822166372 2250.32813529 481.576993908 2226.54893444 c 0,8,9
 518.055800845 2218.92343937 518.055800845 2218.92343937 552.896484375 2200.54230961 c 1,10,-1
 552.896484375 2120.87703862 l 1,11,12
 466.112038577 2156.42951125 466.112038577 2156.42951125 407.193726108 2150.29178095 c 0,13,14
 268.375720266 2136.14216278 268.375720266 2136.14216278 260.317412871 2043.94042583 c 0,15,16
 250.672113869 1932.24780877 250.672113869 1932.24780877 397.691253422 1887.72156158 c 0,17,18
 441.722547841 1875.51754093 441.722547841 1875.51754093 580.084960938 1905.60341382 c 1,19,-1
 580.084960938 1818.87111251 l 1,20,-1
 179.903320312 1729.02950876 l 1,21,-1
 179.903320312 1813.61826064 l 1,0,-1
EndSplineSet
EndChar

StartChar: uni06A1
Encoding: 1697 1697 82
Width: 1987
VWidth: 2629
GlyphClass: 2
Flags: W
AnchorPoint: "Anchor-10" 504.376 1241.74 basechar 0
AnchorPoint: "Anchor-7" 521.846 -193.835 basechar 0
LayerCount: 2
Fore
SplineSet
471.50390625 -0.193359375 m 2,0,1
 91.296875 -0.193359375 91.296875 -0.193359375 91.294921875 452.459960938 c 2,2,-1
 91.2939453125 667.690429688 l 1,3,-1
 269.393554688 667.690429688 l 1,4,-1
 269.393554688 463.349609375 l 2,5,6
 269 188.772460938 269 188.772460938 476.163085938 188.772460938 c 2,7,-1
 1020.85839844 188.772460938 l 1,8,-1
 1319.63867188 189.099609375 l 2,9,10
 1693.00292969 190 1693.00292969 190 1708.05761719 360.599609375 c 2,11,-1
 1711.16210938 395.780273438 l 1,12,-1
 1696.09082031 395.780273438 l 1,13,14
 1526.44824219 395.775390625 l 2,15,16
 1380 396 1380 396 1284.5 486.5 c 128,-1,17
 1189 577 1189 577 1206.44140625 791.024414062 c 0,18,19
 1218 930 1218 930 1287.79589844 1006.12792969 c 0,20,21
 1392 1121 1392 1121 1560.51171875 1117.93261719 c 0,22,23
 1869.23144531 1112.63574219 1869.23144531 1112.63574219 1887.17675781 833.330078125 c 0,24,25
 1896 696 1896 696 1895.84960938 651.94921875 c 0,26,27
 1895.25 651.279296875 1895.25 651.279296875 1895.25 518.709960938 c 2,28,-1
 1895.25 377.140625 l 2,29,30
 1895 -2.4990234375 1895 -2.4990234375 1364.4296875 -1.099609375 c 2,31,-1
 1020.84277344 -0.193359375 l 1,32,-1
 471.50390625 -0.193359375 l 2,0,1
1720.35546875 589.717773438 m 1,33,34
 1729 814 1729 814 1691 876.5 c 128,-1,35
 1653 939 1653 939 1562.5 943.5 c 0,36,37
 1377.6015625 952.693359375 1377.6015625 952.693359375 1363.87402344 753.708984375 c 0,38,39
 1356 650 1356 650 1414.109375 611.450195312 c 0,40,41
 1487 564 1487 564 1720.35546875 589.717773438 c 1,33,34
EndSplineSet
Substitution2: "'init' Initial Forms in Arabic lookup 13 subtable" uni06A1.init
Substitution2: "'medi' Medial Forms in Arabic lookup 11 subtable" uni06A1.medi
Substitution2: "'fina' Terminal Forms in Arabic lookup 9 subtable" uni06A1.fina
EndChar

StartChar: uni06A9
Encoding: 1705 1705 83
Width: 1881
VWidth: 2629
GlyphClass: 2
Flags: W
AnchorPoint: "Anchor-10" 468.27 1445.98 basechar 0
AnchorPoint: "Anchor-7" 447.7 -327.88 basechar 0
LayerCount: 2
Fore
SplineSet
1020.83886719 188.965820312 m 1,0,-1
 1324.99316406 188.994140625 l 2,1,2
 1541.00013183 189.014253393 1541.00013183 189.014253393 1542.30175781 329.741210938 c 0,3,4
 1543 388 1543 388 1431.16113281 515.868164062 c 2,5,-1
 1151.99707031 834.147460938 l 2,6,7
 1093.68107269 900.634438358 1093.68107269 900.634438358 1073.29589844 929.099609375 c 0,8,9
 1044 968 1044 968 1048.38769531 1028.09960938 c 0,10,11
 1057 1149 1057 1149 1167.65917969 1189.77929688 c 2,12,-1
 1830.74707031 1432.10839844 l 1,13,-1
 1830.74707031 1248.65332031 l 1,14,-1
 1199.27441406 1034.50488281 l 1,15,-1
 1545.40332031 643.8984375 l 2,16,17
 1720 447 1720 447 1703.5625 299.213867188 c 0,18,19
 1685 139 1685 139 1559 55 c 0,20,21
 1476 0 1476 0 1375 0 c 2,22,-1
 1020.83886719 0 l 1,23,-1
 522.250976562 -0.099609375 l 2,24,25
 325.121331014 -0.1389925232 325.121331014 -0.1389925232 227.615234375 111.560546875 c 0,26,27
 130 224 130 224 129.956054688 452.553710938 c 2,28,-1
 129.955078125 669.783203125 l 1,29,-1
 308.055664062 668.783203125 l 1,30,-1
 308.055664062 462.444335938 l 2,31,32
 308.055664061 188.991382914 308.055664061 188.991382914 514.825195312 188.866210938 c 2,33,-1
 1020.83886719 188.965820312 l 1,0,-1
EndSplineSet
Substitution2: "'init' Initial Forms in Arabic lookup 13 subtable" uniFB90
Substitution2: "'medi' Medial Forms in Arabic lookup 11 subtable" uniFB91
Substitution2: "'fina' Terminal Forms in Arabic lookup 9 subtable" uniFB8F
EndChar

StartChar: afii57514
Encoding: 1722 1722 85
Width: 1496
VWidth: 2629
GlyphClass: 2
Flags: W
AnchorPoint: "Anchor-10" 600.163 950.68 basechar 0
AnchorPoint: "Anchor-7" 707.352 -731.244 basechar 0
LayerCount: 2
Fore
SplineSet
1223.19238281 617.340820312 m 5,0,-1
 1404.06933594 617.432617188 l 1,1,-1
 1404.06933594 99.2890625 l 2,2,3
 1404 -476.11328125 1404 -476.11328125 818.056640625 -486.467773438 c 2,4,-1
 783.848632812 -487.072265625 l 1,5,-1
 738.836914062 -487.072265625 l 2,6,7
 91.876953125 -487 91.876953125 -487 91.876953125 103.522460938 c 2,8,-1
 91.876953125 322.848632812 l 2,9,10
 92 453.642578125 92 453.642578125 191.729492188 453.642578125 c 2,11,-1
 269.977539062 453.642578125 l 1,12,-1
 269.977539062 104.731445312 l 2,13,14
 270 -298.106445312 270 -298.106445312 741.075195312 -298.106445312 c 2,15,-1
 784.067382812 -298.106445312 l 1,16,-1
 827.146484375 -297.497070312 l 2,17,18
 1223.54882812 -292.005859375 1223.54882812 -292.005859375 1223.54882812 108.96875 c 2,19,-1
 1223.19238281 617.340820312 l 5,0,-1
EndSplineSet
Substitution2: "'init' Initial Forms in Arabic lookup 13 subtable" uni06BA.init
Substitution2: "'medi' Medial Forms in Arabic lookup 11 subtable" uni06BA.medi
Substitution2: "'fina' Terminal Forms in Arabic lookup 9 subtable" uniFB9F
EndChar

StartChar: uni06F4
Encoding: 1780 1780 92
Width: 1423
VWidth: 2629
GlyphClass: 2
Flags: W
LayerCount: 2
Fore
SplineSet
957.790869067 835.182376577 m 2,0,-1
 958.604927345 835.182686275 l 2,1,2
 1030.61610469 835.237442861 1030.61610469 835.237442861 1229.50195312 864.131835938 c 1,3,-1
 1231.82128906 714.48046875 l 1,4,5
 1091.89027584 682.359080652 1091.89027584 682.359080652 957.136898441 678.919921875 c 4,6,7
 677 672 677 672 529.76953125 825.55859375 c 1,8,9
 578.139489923 693.781338747 578.139489923 693.781338747 600.82491329 508.902128645 c 4,10,11
 623.451568517 324.50186078 623.451568517 324.50186078 623.451568517 59.2752037776 c 0,12,13
 623.451568517 34.6146732415 623.451568517 34.6146732415 623.264648438 9.1845703125 c 1,14,-1
 448.9609375 9.1845703125 l 1,15,16
 447.37890625 381.869140625 447.37890625 381.869140625 417.995117188 554.311523438 c 128,-1,17
 388.611328125 726.75390625 388.611328125 726.75390625 336.496022128 922.807326873 c 128,-1,18
 284.380716131 1118.8607475 284.380716131 1118.8607475 159.110351562 1420.27539062 c 1,19,-1
 351.34765625 1420.27539062 l 1,20,21
 429.000657606 1198.81538305 429.000657606 1198.81538305 480.5625 1038.99121094 c 1,22,23
 551 1436 551 1436 935.425558999 1451.84086987 c 0,24,25
 1025.3586808 1455.23014318 1025.3586808 1455.23014318 1159.70703125 1416.46289062 c 1,26,-1
 1159.70703125 1275.08886719 l 1,27,28
 1045.15033666 1303.88834499 1045.15033666 1303.88834499 954.350325586 1303.88834499 c 0,29,30
 796.116090379 1303.88834499 796.116090379 1303.88834499 711.739731432 1218.16622238 c 128,-1,31
 627.363372486 1132.44409978 627.363372486 1132.44409978 627.363372486 1046.97056768 c 0,32,33
 627.363372486 835.182376577 627.363372486 835.182376577 957.790869067 835.182376577 c 2,0,-1
EndSplineSet
EndChar

StartChar: uni06F5
Encoding: 1781 1781 93
Width: 1423
VWidth: 2629
GlyphClass: 2
Flags: W
LayerCount: 2
Fore
SplineSet
773.647460938 322.178710938 m 1,0,1
 813.194335938 186.796875 813.194335938 186.796875 948.548828125 190.65234375 c 0,2,3
 963.188476562 191.002929688 963.188476562 191.002929688 976.565429688 192.479492188 c 0,4,5
 983.270507812 193.219726562 983.270507812 193.219726562 989.705078125 194.254882812 c 128,-1,6
 996.139648438 195.290039062 996.139648438 195.290039062 1002.30371094 196.620117188 c 0,7,8
 1014.66699219 199.290039062 1014.66699219 199.290039062 1025.77929688 203.14453125 c 0,9,10
 1177.19140625 255.646484375 1177.19140625 255.646484375 1087.81835938 511.09375 c 0,11,12
 1055.67675781 602.370117188 1055.67675781 602.370117188 1016.859375 689.107421875 c 128,-1,13
 978.041992188 775.844726562 978.041992188 775.844726562 932.549804688 858.041015625 c 128,-1,14
 887.05859375 940.236328125 887.05859375 940.236328125 834.890625 1017.88769531 c 128,-1,15
 782.723632812 1095.54003906 782.723632812 1095.54003906 723.88671875 1168.63867188 c 2,16,-1
 712.735351562 1182.49414062 l 1,17,-1
 702.084960938 1168.25 l 2,18,19
 461.602539062 846.607421875 461.602539062 846.607421875 351.077148438 505.479492188 c 0,20,21
 344.072265625 483.860351562 344.072265625 483.860351562 338.805664062 463.751953125 c 128,-1,22
 333.538085938 443.643554688 333.538085938 443.643554688 330.008789062 425.033203125 c 128,-1,23
 326.471679688 406.381835938 326.471679688 406.381835938 324.693359375 389.178710938 c 128,-1,24
 322.915039062 371.975585938 322.915039062 371.975585938 322.90234375 356.203125 c 0,25,26
 322.837890625 276.487304688 322.837890625 276.487304688 369.624023438 235.362304688 c 0,27,28
 416.125 194.48828125 416.125 194.48828125 504.94921875 194.48828125 c 0,29,30
 524.517578125 194.48828125 524.517578125 194.48828125 542.271484375 198.236328125 c 128,-1,31
 560.026367188 201.984375 560.026367188 201.984375 575.955078125 209.502929688 c 128,-1,32
 591.884765625 217.021484375 591.884765625 217.021484375 605.852539062 228.27734375 c 0,33,34
 646.0859375 260.69921875 646.0859375 260.69921875 669.170898438 322.178710938 c 1,35,-1
 773.647460938 322.178710938 l 1,0,1
469.520507812 4.734375 m 0,36,37
 321.600585938 4.7333984375 321.600585938 4.7333984375 245.380859375 76.5224609375 c 0,38,39
 220.0625 100.369140625 220.0625 100.369140625 202.293945312 132.444335938 c 128,-1,40
 184.524414062 164.518554688 184.524414062 164.518554688 174.256835938 205.169921875 c 128,-1,41
 163.98828125 245.821289062 163.98828125 245.821289062 161.379882812 294.875 c 0,42,43
 140.477539062 687.856445312 140.477539062 687.856445312 675.2734375 1381.04492188 c 0,44,45
 677.388671875 1383.78808594 677.388671875 1383.78808594 679.48828125 1386.25878906 c 128,-1,46
 681.587890625 1388.72949219 681.587890625 1388.72949219 683.668945312 1390.9296875 c 0,47,48
 687.797851562 1395.29589844 687.797851562 1395.29589844 691.870117188 1398.640625 c 0,49,50
 700.02734375 1405.71386719 700.02734375 1405.71386719 707.814453125 1408.12792969 c 128,-1,51
 715.602539062 1410.54101562 715.602539062 1410.54101562 723.576171875 1408.74414062 c 128,-1,52
 731.639648438 1406.92675781 731.639648438 1406.92675781 740.845703125 1399.95898438 c 128,-1,53
 750.05078125 1392.99121094 750.05078125 1392.99121094 760.03125 1380.75292969 c 0,54,55
 1305.70410156 711.626953125 1305.70410156 711.626953125 1264.66796875 299.659179688 c 0,56,57
 1250.23925781 154.327148438 1250.23925781 154.327148438 1176.19140625 81.0771484375 c 128,-1,58
 1102.14453125 7.828125 1102.14453125 7.828125 967.412109375 5.2822265625 c 0,59,60
 921.506835938 4.3505859375 921.506835938 4.3505859375 883.903320312 13.52734375 c 128,-1,61
 846.30078125 22.703125 846.30078125 22.703125 816.874023438 41.896484375 c 0,62,63
 758.004882812 80.2939453125 758.004882812 80.2939453125 729.23828125 160.159179688 c 2,64,-1
 716.265625 196.172851562 l 1,65,-1
 703.2734375 160.166992188 l 2,66,67
 684.411132812 107.888671875 684.411132812 107.888671875 652.508789062 73.4423828125 c 128,-1,68
 620.715820312 39.1162109375 620.715820312 39.1162109375 575.265625 21.97265625 c 0,69,70
 529.565429688 4.734375 529.565429688 4.734375 469.520507812 4.734375 c 0,36,37
EndSplineSet
EndChar

StartChar: uni06F6
Encoding: 1782 1782 94
Width: 1423
VWidth: 2629
GlyphClass: 2
Flags: W
LayerCount: 2
Fore
SplineSet
741.624023438 1427.89746094 m 0,0,1
 887.490486148 1427.89746094 887.490486148 1427.89746094 977.763671875 1400.75878906 c 1,2,-1
 977.763671875 1235.64941406 l 1,3,4
 699.348367777 1338.14681574 699.348367777 1338.14681574 563.623046875 1201.796875 c 0,5,6
 488.3671875 1124.53125 488.3671875 1124.53125 488.3671875 1011.0625 c 0,7,8
 488.3671875 796.608398438 488.3671875 796.608398438 778.215820312 796.608398438 c 0,9,10
 936.677734375 796.608398438 936.677734375 796.608398438 1054.23535156 836.3828125 c 1,11,-1
 1054.23535156 666.61328125 l 1,12,13
 789.809570312 550.743164062 789.809570312 550.743164062 677.561523438 373.978515625 c 0,14,15
 586.597445398 230.733880291 586.597445398 230.733880291 520.752929688 9.1845703125 c 1,16,-1
 348.38671875 9.1845703125 l 1,17,18
 398.7734375 209.02734375 398.7734375 209.02734375 484.611816406 387.990234375 c 128,-1,19
 570.450195312 566.953125 570.450195312 566.953125 669.34375 650.044921875 c 2,20,-1
 693.422851562 670.278320312 l 1,21,-1
 662.229492188 674.297851562 l 2,22,23
 349.767714726 714.566124426 349.767714726 714.566124426 333.717773438 996.309570312 c 0,24,25
 323.309570312 1178.99316406 323.309570312 1178.99316406 434.2578125 1304.03222656 c 128,-1,26
 545.206054688 1429.07128906 545.206054688 1429.07128906 741.624023438 1427.89746094 c 0,0,1
EndSplineSet
EndChar

StartChar: uniFB8F
Encoding: 64399 64399 109
Width: 2090
VWidth: 2629
GlyphClass: 2
Flags: W
AnchorPoint: "Anchor-7" 452.26 -302.88 basechar 0
AnchorPoint: "Anchor-10" 484.93 1412.29 basechar 0
LayerCount: 2
Fore
SplineSet
1045 188.965820312 m 1,0,-1
 1349.15429688 188.994140625 l 2,1,2
 1566.00004714 189.014331494 1566.00004714 189.014331494 1566.46289062 329.741210938 c 0,3,4
 1567 389 1567 389 1455.32226562 515.868164062 c 2,5,-1
 1176.15820312 834.147460938 l 2,6,7
 1120.84692022 897.208716286 1120.84692022 897.208716286 1097.45703125 929.099609375 c 0,8,9
 1068 968 1068 968 1072.54882812 1028.09960938 c 0,10,11
 1082 1151 1082 1151 1191.8203125 1190.77929688 c 2,12,-1
 1854.90820312 1432.10839844 l 1,13,-1
 1854.90820312 1248.65332031 l 1,14,-1
 1223.43554688 1034.50488281 l 1,15,-1
 1849 331 l 2,16,17
 1975.26698428 189.001138752 1975.26698428 189.001138752 2080.54980469 189.450195312 c 2,18,-1
 2105.91601562 189.450195312 l 1,19,-1
 2105.91601562 0.6044921875 l 1,20,-1
 2087.76074219 0.6044921875 l 6,21,22
 1878.27882544 0.6044921875 1878.27882544 0.6044921875 1715.78417969 231.099609375 c 1,23,24
 1641 0 1641 0 1399.16113281 0 c 2,25,-1
 1045 0 l 1,26,-1
 483.264648438 -0.099609375 l 2,27,28
 286.117256296 -0.134568414803 286.117256296 -0.134568414803 188.6171875 111.760742188 c 0,29,30
 91 224 91 224 90.9560546875 452.553710938 c 2,31,-1
 90.955078125 670.783203125 l 1,32,-1
 269.055664062 670.783203125 l 1,33,-1
 269.055664062 463.444335938 l 2,34,35
 269.055664062 188.999963993 269.055664062 188.999963993 475.825195312 188.866210938 c 2,36,-1
 1045 188.965820312 l 1,0,-1
EndSplineSet
EndChar

StartChar: uniFB9F
Encoding: 64415 64415 117
Width: 1649
VWidth: 2629
GlyphClass: 2
Flags: W
AnchorPoint: "Anchor-10" 327.219 821.21 basechar 0
AnchorPoint: "Anchor-7" 286.055 -726.985 basechar 0
LayerCount: 2
Fore
SplineSet
1360.06933594 429.169921875 m 2,0,1
 1360.06933594 188.350585938 1360.06933594 188.350585938 1599.38867188 188.350585938 c 2,2,-1
 1666.96191406 188.350585938 l 1,3,-1
 1666.96191406 -0.4951171875 l 1,4,-1
 1528.18066406 -0.4951171875 l 2,5,6
 1445 0 1445 0 1355.22851562 97.615234375 c 1,7,-1
 1355.22851562 42.1279296875 l 2,8,9
 1355 -465.122070312 1355 -465.122070312 766.795898438 -470.46484375 c 2,10,-1
 699.919921875 -471.072265625 l 1,11,-1
 647.52734375 -471.072265625 l 2,12,13
 91.876953125 -471 91.876953125 -471 91.876953125 41.5224609375 c 2,14,-1
 91.876953125 322.848632812 l 2,15,16
 92 453.642578125 92 453.642578125 191.729492188 453.642578125 c 2,17,-1
 269.977539062 453.642578125 l 1,18,-1
 269.977539062 42.7314453125 l 2,19,20
 270 -282.114257812 270 -282.114257812 649.765625 -282.106445312 c 2,21,-1
 700.030273438 -282.10546875 l 1,22,-1
 775.682617188 -281.499023438 l 2,23,24
 1179.54882812 -278.00390625 1179.54882812 -278.00390625 1179.54882812 46.96875 c 2,25,-1
 1179.19238281 617.340820312 l 5,26,-1
 1360.06933594 617.432617188 l 1,27,-1
 1360.06933594 429.169921875 l 2,0,1
EndSplineSet
EndChar

StartChar: uniFBE8
Encoding: 64488 64488 120
Width: 688
VWidth: 2629
GlyphClass: 2
Flags: W
AnchorPoint: "Anchor-10" 386.535 1255 basechar 0
AnchorPoint: "Anchor-7" 425.255 -149.815 basechar 0
LayerCount: 2
Fore
SplineSet
245.0390625 -1.099609375 m 2,0,-1
 -14.984375 -1.099609375 l 1,1,-1
 -14.984375 187.866210938 l 1,2,-1
 229.491210938 187.866210938 l 2,3,4
 276 188 276 188 311.392578125 202.361328125 c 0,5,6
 347 217 347 217 370.715820312 245.88671875 c 0,7,8
 395 275 395 275 406.317382812 316.879882812 c 0,9,10
 418.109375 359.394336966 418.109375 359.394336966 418.109375 414.043945312 c 2,11,-1
 418.109375 669.783203125 l 1,12,-1
 596.208984375 669.783203125 l 1,13,-1
 596.208984375 420.09375 l 2,14,15
 596 207 596 207 508.716796875 102.780273438 c 0,16,17
 422 -1 422 -1 245.0390625 -1.099609375 c 2,0,-1
EndSplineSet
EndChar

StartChar: uniFBE9
Encoding: 64489 64489 121
Width: 893
VWidth: 2629
GlyphClass: 2
Flags: W
AnchorPoint: "Anchor-10" 376.226 1158.2 basechar 0
AnchorPoint: "Anchor-7" 354.445 -154.655 basechar 0
LayerCount: 2
Fore
SplineSet
492.165039062 110.698242188 m 2,0,1
 392.045898438 -1.099609375 392.045898438 -1.099609375 217.678710938 -1.099609375 c 2,2,-1
 -10.884765625 -1.099609375 l 1,3,-1
 -10.884765625 187.866210938 l 1,4,-1
 160.9921875 187.866210938 l 2,5,6
 289.672851562 187.877929688 289.672851562 187.877929688 356.3046875 242.790039062 c 0,7,8
 423.373046875 298.060546875 423.373046875 298.060546875 423.373046875 406.5546875 c 2,9,-1
 423.373046875 624.094726562 l 1,10,-1
 607.377929688 624.094726562 l 1,11,-1
 607.377929688 406.584960938 l 2,12,13
 607.259765625 352.483398438 607.259765625 352.483398438 624.76171875 311.360351562 c 128,-1,14
 642.264648438 270.237304688 642.264648438 270.237304688 677.389648438 242.633789062 c 128,-1,15
 712.387695312 215.131835938 712.387695312 215.131835938 763.517578125 201.499023438 c 128,-1,16
 814.647460938 187.866210938 814.647460938 187.866210938 881.861328125 187.866210938 c 2,17,-1
 905.388671875 187.866210938 l 1,18,-1
 905.388671875 -1.099609375 l 1,19,-1
 810.651367188 -1.099609375 l 2,20,21
 638.873046875 -1.099609375 638.873046875 -1.099609375 535.912109375 110.977539062 c 2,22,-1
 513.88671875 134.953125 l 1,23,-1
 492.165039062 110.698242188 l 2,0,1
EndSplineSet
EndChar

StartChar: uniFE73
Encoding: 65139 65139 129
Width: 693
VWidth: 2629
GlyphClass: 2
Flags: W
AnchorPoint: "Anchor-10" 255.056 1533.29 basechar 0
AnchorPoint: "Anchor-7" 255.056 -149.815 basechar 0
LayerCount: 2
Fore
SplineSet
344.637695312 409.49609375 m 2,0,1
 344.637695312 367.749023438 344.637695312 367.749023438 362.731445312 328.80859375 c 128,-1,2
 380.825195312 289.868164062 380.825195312 289.868164062 416.728515625 253.966796875 c 0,3,4
 482.341796875 188.350585938 482.341796875 188.350585938 622.75 188.350585938 c 2,5,-1
 690.323242188 188.350585938 l 1,6,-1
 690.323242188 9.1845703125 l 1,7,-1
 551.54296875 9.1845703125 l 2,8,9
 379.927734375 9.1845703125 379.927734375 9.1845703125 269.463867188 119.6484375 c 0,10,11
 165.473632812 223.638671875 165.473632812 223.638671875 165.473632812 393.959960938 c 2,12,-1
 165.473632812 420.100585938 l 1,13,-1
 344.637695312 420.100585938 l 1,14,-1
 344.637695312 409.49609375 l 2,0,1
EndSplineSet
EndChar

StartChar: uniFE8E
Encoding: 65166 65166 155
Width: 557
VWidth: 2629
GlyphClass: 2
Flags: W
AnchorPoint: "Anchor-10" 253.529 1618.6 basechar 0
AnchorPoint: "Anchor-7" 268.05 -304.695 basechar 0
LayerCount: 2
Fore
SplineSet
338.606445312 436.22265625 m 2,0,1
 338.606445313 187.954549542 338.606445313 187.954549542 545.375976562 187.866210938 c 2,2,-1
 568.970703125 187.866210938 l 1,3,-1
 568.970703125 -1.099609375 l 1,4,-1
 552.817382812 -1.099609375 l 2,5,6
 162 -1 162 -1 160.506835938 427.063476562 c 6,7,-1
 160.506835938 1423.90527344 l 1,8,-1
 338.606445312 1423.90527344 l 1,9,-1
 338.606445312 436.22265625 l 2,0,1
EndSplineSet
EndChar

StartChar: uniFEA2
Encoding: 65186 65186 175
Width: 1430
VWidth: 2629
GlyphClass: 2
Flags: W
AnchorPoint: "Anchor-10" 693.568 1504.06 basechar 0
AnchorPoint: "Anchor-7" 491.066 -924.385 basechar 0
LayerCount: 2
Fore
SplineSet
1122 557.123046875 m 1,0,1
 1099.02172326 188.348632812 1099.02172326 188.348632812 1399.13671875 188.348632812 c 2,2,-1
 1445.60742188 188.348632812 l 1,3,-1
 1445.60742188 -0.4951171875 l 1,4,-1
 1428.61816406 -0.4951171875 l 2,5,6
 983 -0 983 -0 990 522.793945312 c 1,7,8
 968 516 968 516 946.521484375 507.87890625 c 0,9,10
 274 260 274 260 258.967773438 -146.262695312 c 0,11,12
 241.016024573 -602.592658473 241.016024573 -602.592658473 835.415039062 -602.240234375 c 2,13,-1
 1273.53613281 -601.98046875 l 1,14,-1
 1273.53613281 -778.833984375 l 1,15,-1
 822.119140625 -777.919921875 l 2,16,17
 423 -777 423 -777 250.7890625 -612.758789062 c 0,18,19
 79 -448 79 -448 91.734375 -147.375976562 c 0,20,21
 117 441 117 441 993 673 c 1,22,23
 851 725 851 725 739 760 c 0,24,25
 558 818 558 818 467.432617188 811.725585938 c 0,26,27
 364 805 364 805 286.3125 627.373046875 c 1,28,-1
 145.016601562 680.615234375 l 1,29,30
 175 758 175 758 201.538085938 807.344726562 c 0,31,32
 315.54672386 1024.03914943 315.54672386 1024.03914943 566.744140625 972.3828125 c 0,33,34
 660.875913739 953.427722177 660.875913739 953.427722177 881.217773438 870.657226562 c 2,35,-1
 1254.91015625 730.28125 l 1,36,-1
 1254.8359375 576.225585938 l 1,37,38
 1187 570 1187 570 1122 557.123046875 c 1,0,1
EndSplineSet
EndChar

StartChar: uniFEA3
Encoding: 65187 65187 176
Width: 1321
VWidth: 2629
GlyphClass: 2
Flags: W
AnchorPoint: "Anchor-10" 500.94 1274.63 basechar 0
AnchorPoint: "Anchor-7" 433.18 -305.905 basechar 0
LayerCount: 2
Fore
SplineSet
-10.884765625 -1.099609375 m 1,0,-1
 -10.884765625 187.872070312 l 1,1,-1
 1067.34570312 188.38671875 l 1,2,-1
 1040.19726562 212.489257812 l 2,3,4
 873.258138301 360.702003493 873.258138301 360.702003493 759.169108213 471.59074784 c 128,-1,5
 645.080078125 582.479492188 645.080078125 582.479492188 597.735839844 608.90625 c 0,6,7
 471.926176835 679.131088658 471.926176835 679.131088658 354.196289062 592.671875 c 0,8,9
 295.266601562 549.391601562 295.266601562 549.391601562 228.279296875 472.405273438 c 1,10,-1
 96.3720703125 584.118164062 l 1,11,12
 146.692382812 650.420898438 146.692382812 650.420898438 236.467773437 736.802246094 c 128,-1,13
 326.243164062 823.18359375 326.243164062 823.18359375 481.062988281 824.3515625 c 128,-1,14
 635.8828125 825.51953125 635.8828125 825.51953125 875.14453125 601.122070312 c 0,15,16
 1061.11230469 425.303710938 1061.11230469 425.303710938 1247.82128906 249.924804688 c 1,17,18
 1239.12695312 160.375976562 1239.12695312 160.375976562 1196.57373047 104.888671875 c 128,-1,19
 1154.02050781 49.4013671875 1154.02050781 49.4013671875 1109.41589015 26.8289346932 c 128,-1,20
 1064.81127248 4.25650219882 1064.81127248 4.25650219882 1005.9921875 -1.1201171875 c 1,21,-1
 -10.884765625 -1.099609375 l 1,0,-1
EndSplineSet
EndChar

StartChar: uniFEA4
Encoding: 65188 65188 177
Width: 1410
VWidth: 2629
GlyphClass: 2
Flags: W
AnchorPoint: "Anchor-10" 463.43 1253.91 basechar 0
AnchorPoint: "Anchor-7" 504.57 -303.595 basechar 0
LayerCount: 2
Fore
SplineSet
1137.12695312 100.072265625 m 1,0,1
 1045.66647398 -4.34519514392 1045.66647398 -4.34519514392 913.901367188 0 c 1,2,-1
 -10.884765625 0 l 1,3,-1
 -10.884765625 187.872070312 l 1,4,-1
 1067.34375 188.385742188 l 1,5,-1
 1040.21289062 212.474609375 l 1,6,7
 856.148019193 377.289646957 856.148019193 377.289646957 750.782505691 479.66484301 c 0,8,9
 564.216591782 660.93593806 564.216591782 660.93593806 464.585571787 645.726432232 c 128,-1,10
 364.954551793 630.516926404 364.954551793 630.516926404 228.266601562 472.415039062 c 1,11,-1
 96.373046875 584.119140625 l 1,12,13
 146.566204041 650.279173028 146.566204041 650.279173028 242.701559052 743.193297452 c 128,-1,14
 338.836914062 836.107421875 338.836914062 836.107421875 479.80859375 830.411132812 c 1,15,-1
 480.72265625 830.3984375 l 1,16,17
 631.529296875 839.073242188 631.529296875 839.073242188 875.016601562 601.2421875 c 2,18,-1
 1248.76074219 236.182617188 l 2,19,20
 1297.2421875 188.928710938 1297.2421875 188.928710938 1338.20214844 188.760742188 c 2,21,-1
 1419.77050781 188.426757812 l 1,22,-1
 1419.77148438 -0 l 1,23,-1
 1395.95214844 0 l 2,24,25
 1246.82749299 0 1246.82749299 0 1137.12695312 100.072265625 c 1,0,1
EndSplineSet
EndChar

StartChar: uniFEAA
Encoding: 65194 65194 183
Width: 1296
VWidth: 2629
GlyphClass: 2
Flags: W
AnchorPoint: "Anchor-10" 441.638 1354.4 basechar 0
AnchorPoint: "Anchor-7" 370.865 -298.04 basechar 0
LayerCount: 2
Fore
SplineSet
1260.17480469 -0.4951171875 m 1,0,1
 1077 1 1077 1 924 157 c 1,2,3
 835.4732776 15.7339536174 835.4732776 15.7339536174 605.592773438 -1.1123046875 c 5,4,-1
 123.607421875 -1.0947265625 l 1,5,-1
 123.607421875 187.938476562 l 1,6,-1
 396.466796875 187.859375 l 1,7,8
 632 186 632 186 701.96875 215.1640625 c 0,9,10
 806 258 806 258 754.1640625 379.44921875 c 0,11,12
 737.98713341 417.029890412 737.98713341 417.029890412 655.033203125 513.569335938 c 2,13,-1
 380.266601562 833.334960938 l 1,14,-1
 510.668945312 962.6875 l 1,15,-1
 974 392 l 2,16,17
 1137.14563541 190.820412771 1137.14563541 190.820412771 1289.04003906 188.721679688 c 2,18,-1
 1302.25683594 188.5390625 l 1,19,-1
 1302.25683594 -0.4951171875 l 1,20,-1
 1260.17480469 -0.4951171875 l 1,0,1
605.592773438 -1.1123046875 m 2,21,-1
 605.743164062 -1.1123046875 l 2,22,23
 605.66796875 -1.1123046875 605.66796875 -1.1123046875 605.592773438 -1.1123046875 c 2,21,-1
EndSplineSet
EndChar

StartChar: uniFEAE
Encoding: 65198 65198 187
Width: 899
VWidth: 2629
GlyphClass: 2
Flags: W
AnchorPoint: "Anchor-10" 397.57 974.88 basechar 0
AnchorPoint: "Anchor-7" 277.689 -783.915 basechar 0
LayerCount: 2
Fore
SplineSet
494.416992188 -22.169921875 m 6,0,-1
 494.41796875 559.427734375 l 5,1,-1
 678.567382812 560.48046875 l 5,2,-1
 678.567382812 352.681640625 l 5,3,4
 685.004882812 187.866210938 685.004882812 187.866210938 894.766601562 187.866210938 c 6,5,-1
 914.456054688 187.866210938 l 5,6,-1
 914.456054688 -1.099609375 l 5,7,-1
 893.73828125 -1.099609375 l 6,8,9
 754 -1 754 -1 679.776367188 85.4697265625 c 5,10,-1
 679.77734375 -20.9501953125 l 6,11,12
 680 -282 680 -282 541.9296875 -410.7265625 c 4,13,14
 404.276367188 -539.740234375 404.276367188 -539.740234375 124.078125 -539.600585938 c 6,15,-1
 20.5126953125 -539.548828125 l 5,16,-1
 20.515625 -351.750976562 l 5,17,-1
 119.145507812 -351.8203125 l 6,18,19
 307 -352 307 -352 399.299804688 -271.100585938 c 4,20,21
 494 -188 494 -188 494.416992188 -22.169921875 c 6,0,-1
EndSplineSet
PairPos2: "'kern' Horizontal Kerning lookup 15-2" uniFB90 dx=-150 dy=0 dh=-150 dv=0 dx=0 dy=0 dh=0 dv=0
PairPos2: "'kern' Horizontal Kerning lookup 15-2" uniFB8E dx=-150 dy=0 dh=-150 dv=0 dx=0 dy=0 dh=0 dv=0
PairPos2: "'kern' Horizontal Kerning lookup 15-2" uni06A9 dx=-150 dy=0 dh=-150 dv=0 dx=0 dy=0 dh=0 dv=0
PairPos2: "'kern' Horizontal Kerning lookup 15-2" uni064A dx=-50 dy=0 dh=-50 dv=0 dx=0 dy=0 dh=0 dv=0
PairPos2: "'kern' Horizontal Kerning lookup 15-2" uni0649 dx=-50 dy=0 dh=-50 dv=0 dx=0 dy=0 dh=0 dv=0
PairPos2: "'kern' Horizontal Kerning lookup 15-2" uni0648 dx=-50 dy=0 dh=-50 dv=0 dx=0 dy=0 dh=0 dv=0
PairPos2: "'kern' Horizontal Kerning lookup 15-2" uniFEEB dx=-150 dy=0 dh=-150 dv=0 dx=0 dy=0 dh=0 dv=0
PairPos2: "'kern' Horizontal Kerning lookup 15-2" uni0647 dx=-150 dy=0 dh=-150 dv=0 dx=0 dy=0 dh=0 dv=0
PairPos2: "'kern' Horizontal Kerning lookup 15-2" uniFEE7 dx=-150 dy=0 dh=-150 dv=0 dx=0 dy=0 dh=0 dv=0
PairPos2: "'kern' Horizontal Kerning lookup 15-2" uni0646 dx=-50 dy=0 dh=-50 dv=0 dx=0 dy=0 dh=0 dv=0
PairPos2: "'kern' Horizontal Kerning lookup 15-2" uniFEE3 dx=-150 dy=0 dh=-150 dv=0 dx=0 dy=0 dh=0 dv=0
PairPos2: "'kern' Horizontal Kerning lookup 15-2" uni0645 dx=-150 dy=0 dh=-150 dv=0 dx=0 dy=0 dh=0 dv=0
PairPos2: "'kern' Horizontal Kerning lookup 15-2" uni0644 dx=-50 dy=0 dh=-50 dv=0 dx=0 dy=0 dh=0 dv=0
PairPos2: "'kern' Horizontal Kerning lookup 15-2" uniFEDB dx=-150 dy=0 dh=-150 dv=0 dx=0 dy=0 dh=0 dv=0
PairPos2: "'kern' Horizontal Kerning lookup 15-2" uni0643 dx=-150 dy=0 dh=-150 dv=0 dx=0 dy=0 dh=0 dv=0
PairPos2: "'kern' Horizontal Kerning lookup 15-2" uniFED7 dx=-150 dy=0 dh=-150 dv=0 dx=0 dy=0 dh=0 dv=0
PairPos2: "'kern' Horizontal Kerning lookup 15-2" uni0642 dx=-50 dy=0 dh=-50 dv=0 dx=0 dy=0 dh=0 dv=0
PairPos2: "'kern' Horizontal Kerning lookup 15-2" uniFED3 dx=-150 dy=0 dh=-150 dv=0 dx=0 dy=0 dh=0 dv=0
PairPos2: "'kern' Horizontal Kerning lookup 15-2" uni0641 dx=-150 dy=0 dh=-150 dv=0 dx=0 dy=0 dh=0 dv=0
PairPos2: "'kern' Horizontal Kerning lookup 15-2" uniFECF dx=-150 dy=0 dh=-150 dv=0 dx=0 dy=0 dh=0 dv=0
PairPos2: "'kern' Horizontal Kerning lookup 15-2" uniFECB dx=-150 dy=0 dh=-150 dv=0 dx=0 dy=0 dh=0 dv=0
PairPos2: "'kern' Horizontal Kerning lookup 15-2" uniFEC7 dx=-150 dy=0 dh=-150 dv=0 dx=0 dy=0 dh=0 dv=0
PairPos2: "'kern' Horizontal Kerning lookup 15-2" uni0638 dx=-150 dy=0 dh=-150 dv=0 dx=0 dy=0 dh=0 dv=0
PairPos2: "'kern' Horizontal Kerning lookup 15-2" uniFEC3 dx=-150 dy=0 dh=-150 dv=0 dx=0 dy=0 dh=0 dv=0
PairPos2: "'kern' Horizontal Kerning lookup 15-2" uni0637 dx=-150 dy=0 dh=-150 dv=0 dx=0 dy=0 dh=0 dv=0
PairPos2: "'kern' Horizontal Kerning lookup 15-2" uniFEBF dx=-150 dy=0 dh=-150 dv=0 dx=0 dy=0 dh=0 dv=0
PairPos2: "'kern' Horizontal Kerning lookup 15-2" uni0636 dx=-150 dy=0 dh=-150 dv=0 dx=0 dy=0 dh=0 dv=0
PairPos2: "'kern' Horizontal Kerning lookup 15-2" uniFEBB dx=-150 dy=0 dh=-150 dv=0 dx=0 dy=0 dh=0 dv=0
PairPos2: "'kern' Horizontal Kerning lookup 15-2" uni0635 dx=-150 dy=0 dh=-150 dv=0 dx=0 dy=0 dh=0 dv=0
PairPos2: "'kern' Horizontal Kerning lookup 15-2" uniFEB7 dx=-150 dy=0 dh=-150 dv=0 dx=0 dy=0 dh=0 dv=0
PairPos2: "'kern' Horizontal Kerning lookup 15-2" uni0634 dx=-150 dy=0 dh=-150 dv=0 dx=0 dy=0 dh=0 dv=0
PairPos2: "'kern' Horizontal Kerning lookup 15-2" uniFEB3 dx=-150 dy=0 dh=-150 dv=0 dx=0 dy=0 dh=0 dv=0
PairPos2: "'kern' Horizontal Kerning lookup 15-2" uni0633 dx=-150 dy=0 dh=-150 dv=0 dx=0 dy=0 dh=0 dv=0
PairPos2: "'kern' Horizontal Kerning lookup 15-2" uni0632 dx=-50 dy=0 dh=-50 dv=0 dx=0 dy=0 dh=0 dv=0
PairPos2: "'kern' Horizontal Kerning lookup 15-2" uni0631 dx=-50 dy=0 dh=-50 dv=0 dx=0 dy=0 dh=0 dv=0
PairPos2: "'kern' Horizontal Kerning lookup 15-2" uniFEA7 dx=-150 dy=0 dh=-150 dv=0 dx=0 dy=0 dh=0 dv=0
PairPos2: "'kern' Horizontal Kerning lookup 15-2" uniFEA3 dx=-150 dy=0 dh=-150 dv=0 dx=0 dy=0 dh=0 dv=0
PairPos2: "'kern' Horizontal Kerning lookup 15-2" uniFE9F dx=-150 dy=0 dh=-150 dv=0 dx=0 dy=0 dh=0 dv=0
PairPos2: "'kern' Horizontal Kerning lookup 15-2" uniFE9B dx=-150 dy=0 dh=-150 dv=0 dx=0 dy=0 dh=0 dv=0
PairPos2: "'kern' Horizontal Kerning lookup 15-2" uni062B dx=-150 dy=0 dh=-150 dv=0 dx=0 dy=0 dh=0 dv=0
PairPos2: "'kern' Horizontal Kerning lookup 15-2" uniFE97 dx=-150 dy=0 dh=-150 dv=0 dx=0 dy=0 dh=0 dv=0
PairPos2: "'kern' Horizontal Kerning lookup 15-2" uni062A dx=-150 dy=0 dh=-150 dv=0 dx=0 dy=0 dh=0 dv=0
PairPos2: "'kern' Horizontal Kerning lookup 15-2" uni0629 dx=-150 dy=0 dh=-150 dv=0 dx=0 dy=0 dh=0 dv=0
PairPos2: "'kern' Horizontal Kerning lookup 15-2" uniFE91 dx=-50 dy=0 dh=-50 dv=0 dx=0 dy=0 dh=0 dv=0
PairPos2: "'kern' Horizontal Kerning lookup 15-2" uni0628 dx=-150 dy=0 dh=-150 dv=0 dx=0 dy=0 dh=0 dv=0
PairPos2: "'kern' Horizontal Kerning lookup 15-2" uni0627 dx=-200 dy=0 dh=-200 dv=0 dx=0 dy=0 dh=0 dv=0
PairPos2: "'kern' Horizontal Kerning lookup 15-2" uni0622 dx=-200 dy=0 dh=-200 dv=0 dx=0 dy=0 dh=0 dv=0
PairPos2: "'kern' Horizontal Kerning lookup 15-2" uni0621 dx=-150 dy=0 dh=-150 dv=0 dx=0 dy=0 dh=0 dv=0
PairPos2: "'kern' Horizontal Kerning lookup 15-2" uniFB94 dx=-150 dy=0 dh=-150 dv=0 dx=0 dy=0 dh=0 dv=0
PairPos2: "'kern' Horizontal Kerning lookup 15-2" uniFB92 dx=-150 dy=0 dh=-150 dv=0 dx=0 dy=0 dh=0 dv=0
PairPos2: "'kern' Horizontal Kerning lookup 15-2" afii57509 dx=-150 dy=0 dh=-150 dv=0 dx=0 dy=0 dh=0 dv=0
PairPos2: "'kern' Horizontal Kerning lookup 15-2" afii57508 dx=-50 dy=0 dh=-50 dv=0 dx=0 dy=0 dh=0 dv=0
PairPos2: "'kern' Horizontal Kerning lookup 15-2" uniFB7C dx=-150 dy=0 dh=-150 dv=0 dx=0 dy=0 dh=0 dv=0
PairPos2: "'kern' Horizontal Kerning lookup 15-2" afii57506 dx=-150 dy=0 dh=-150 dv=0 dx=0 dy=0 dh=0 dv=0
PairPos2: "'kern' Horizontal Kerning lookup 15-2" afii57440 dx=-150 dy=0 dh=-150 dv=0 dx=0 dy=0 dh=0 dv=0
EndChar

StartChar: uniFEB2
Encoding: 65202 65202 191
Width: 2749
VWidth: 2629
GlyphClass: 2
Flags: W
AnchorPoint: "Anchor-10" 732.05 1057.76 basechar 0
AnchorPoint: "Anchor-7" 296.45 -648.335 basechar 0
LayerCount: 2
Fore
SplineSet
2468.19824219 427.47265625 m 2,0,1
 2468.19824219 188.350585938 2468.19824219 188.350585938 2712.8671875 188.350585938 c 2,2,-1
 2773.9296875 188.350585938 l 1,3,-1
 2773.9296875 -0.4951171875 l 1,4,-1
 2678.29492188 -0.4951171875 l 2,5,6
 2471 -0 2471 -0 2387.11035156 147.987304688 c 1,7,8
 2277 -1 2277 -1 2126.19824219 -1.099609375 c 0,9,10
 1911 -1 1911 -1 1852.52734375 193.31640625 c 1,11,12
 1790 -3 1790 -3 1609.93066406 -1.1005859375 c 0,13,14
 1440 1 1440 1 1385.25488281 110.817382812 c 1,15,-1
 1384.83886719 42.1904296875 l 2,16,17
 1381.99824609 -448.302849639 1381.99824609 -448.302849639 797.298828125 -466.19140625 c 2,18,-1
 777.700195312 -466.791015625 l 1,19,-1
 749.71484375 -466.791015625 l 2,20,21
 123.876953125 -467.000041097 123.876953125 -467.000041097 123.876953125 41.5224609375 c 2,22,-1
 123.876953125 322.845703125 l 2,23,24
 123.999664672 453.642578125 123.999664672 453.642578125 223.729492188 453.642578125 c 2,25,-1
 301.977539062 453.642578125 l 1,26,-1
 301.977539062 42.7294921875 l 2,27,28
 301.999987758 -277.825195312 301.999987758 -277.825195312 751.955078125 -277.825195312 c 2,29,-1
 778.056640625 -277.825195312 l 1,30,-1
 806.646484375 -277.216796875 l 2,31,32
 1209.16015625 -268.996729316 1209.16015625 -268.996729316 1209.16015625 46.96875 c 2,33,-1
 1208.84667969 617.345703125 l 5,34,-1
 1398.86132812 617.512695312 l 1,35,-1
 1399.46777344 373.323242188 l 2,36,37
 1400 181 1400 181 1605.39941406 176.985351562 c 0,38,39
 1773.62237092 174.006686546 1773.62237092 174.006686546 1772.87695312 405.9765625 c 2,40,-1
 1772.17382812 624.78515625 l 1,41,-1
 1945.31445312 624.78515625 l 1,42,-1
 1945.96777344 399.626953125 l 2,43,44
 1947 175 1947 175 2131.44824219 177.908203125 c 0,45,46
 2290.09863281 180.001301277 2290.09863281 180.001301277 2290.09863281 421.303710938 c 2,47,-1
 2290.09863281 626.783203125 l 1,48,-1
 2468.19824219 626.783203125 l 1,49,-1
 2468.19824219 427.47265625 l 2,0,1
EndSplineSet
EndChar

StartChar: uniFEB3
Encoding: 65203 65203 192
Width: 1625
VWidth: 2629
GlyphClass: 2
Flags: W
AnchorPoint: "Anchor-10" 762.555 1144.88 basechar 0
AnchorPoint: "Anchor-7" 927.12 -340.39 basechar 0
LayerCount: 2
Fore
SplineSet
1187.62402344 188.151367188 m 4,0,1
 1341.73632812 188.000258533 1341.73632812 188.000258533 1341.73632812 402.053710938 c 2,2,-1
 1341.73632812 667.383789062 l 1,3,-1
 1519.83691406 667.383789062 l 1,4,-1
 1519.83691406 401.060546875 l 2,5,6
 1520 -1 1520 -1 1195.83691406 -1.099609375 c 0,7,8
 1078 -1 1078 -1 1005.15625 43.5703125 c 0,9,10
 932.549913199 88.2771376827 932.549913199 88.2771376827 904.193359375 177.79296875 c 2,11,-1
 899.37890625 192.991210938 l 1,12,-1
 894.651367188 177.765625 l 2,13,14
 839 -1 839 -1 646.450195312 -1.099609375 c 0,15,16
 453.099664138 -1.00005131803 453.099664138 -1.00005131803 376.803710938 149.125976562 c 2,17,-1
 373.23828125 156.141601562 l 1,18,-1
 368.40234375 149.932617188 l 2,19,20
 250.922519239 -1.099609375 250.922519239 -1.099609375 86.4169921875 -1.099609375 c 2,21,-1
 -15.3642578125 -1.099609375 l 1,22,-1
 -15.3642578125 187.866210938 l 1,23,-1
 15.2109375 187.866210938 l 2,24,25
 273.107174531 188.000055622 273.107174531 188.000055622 273.583984375 411.280273438 c 2,26,-1
 274.024414062 617.524414062 l 1,27,-1
 451.313476562 617.524414062 l 1,28,-1
 451.904296875 406.596679688 l 2,29,30
 453 188 453 188 636.61328125 188.205078125 c 0,31,32
 817.407723962 187.999536467 817.407723962 187.999536467 816.717773438 401.780273438 c 2,33,-1
 816.017578125 618.735351562 l 1,34,-1
 993.552734375 618.735351562 l 1,35,-1
 994.203125 403.057617188 l 2,36,37
 995 188 995 188 1187.62402344 188.151367188 c 4,0,1
EndSplineSet
EndChar

StartChar: uniFEB4
Encoding: 65204 65204 193
Width: 1815
VWidth: 2624
GlyphClass: 2
Flags: W
AnchorPoint: "Anchor-10" 871.805 1138.83 basechar 0
AnchorPoint: "Anchor-7" 884.355 -299.25 basechar 0
LayerCount: 2
Fore
SplineSet
1444.00585938 162.822265625 m 5,0,1
 1396 -1 1396 -1 1195.21777344 -0.384765625 c 4,2,3
 1003.08730475 -0.000174759419792 1003.08730475 -0.000174759419792 927.546875 174.758789062 c 6,4,-1
 922.275390625 186.954101562 l 5,5,6
 891 89 891 89 827.376953125 45.8779296875 c 4,7,8
 764 3 764 3 664.407226562 3.10546875 c 4,9,10
 471.708999924 2.99984048721 471.708999924 2.99984048721 391.978515625 159.728515625 c 6,11,-1
 386.934570312 169.643554688 l 5,12,-1
 382.868164062 159.288085938 l 6,13,14
 319.960931229 -1.099609375 319.960931229 -1.099609375 87.3701171875 -1.099609375 c 6,15,-1
 -9.5224609375 -1.099609375 l 5,16,-1
 -9.5224609375 187.864257812 l 5,17,-1
 44.458984375 187.865234375 l 5,18,19
 297.849540411 189.99873316 297.849540411 189.99873316 295.750976562 384.547851562 c 6,20,-1
 293.208007812 620.295898438 l 5,21,-1
 480.91015625 620.295898438 l 5,22,-1
 480.524414062 392.978515625 l 6,23,24
 480 189 480 189 669.267578125 188.619140625 c 4,25,26
 839.579301685 188.999061532 839.579301685 188.999061532 839.329101562 393.551757812 c 6,27,-1
 839.051757812 620.295898438 l 5,28,-1
 1013.4140625 620.295898438 l 5,29,-1
 1014.7890625 395.534179688 l 6,30,31
 1016 189 1016 189 1212.48925781 188.776367188 c 4,32,33
 1361.36280394 189.000546323 1361.36280394 189.000546323 1361.96582031 388.84765625 c 6,34,-1
 1362.67382812 623.490234375 l 5,35,-1
 1524.78125 623.490234375 l 5,36,-1
 1524.76074219 427.361328125 l 6,37,38
 1525 297 1525 297 1616.4765625 228.1171875 c 4,39,40
 1669.06031751 188.955078125 1669.06031751 188.955078125 1767.39453125 188.955078125 c 6,41,-1
 1827.63378906 188.955078125 l 5,42,-1
 1827.63378906 -1.099609375 l 5,43,-1
 1713.19824219 -1.099609375 l 6,44,45
 1530.72853008 -0.999851585017 1530.72853008 -0.999851585017 1453.34570312 163.600585938 c 6,46,-1
 1447.62890625 175.760742188 l 5,47,-1
 1444.00585938 162.822265625 l 5,0,1
EndSplineSet
EndChar

StartChar: uniFEBA
Encoding: 65210 65210 199
Width: 2855
VWidth: 2629
GlyphClass: 2
Flags: W
AnchorPoint: "Anchor-10" 699.38 1178.76 basechar 0
AnchorPoint: "Anchor-7" 306.13 -717.305 basechar 0
LayerCount: 2
Fore
SplineSet
1661.88964844 201.079101562 m 1,0,-1
 2082.50195312 201.079101562 l 2,1,2
 2197.79980469 200.79296875 2197.79980469 200.79296875 2293.86328125 242.65625 c 0,3,4
 2435.79980469 302.79296875 2435.79980469 302.79296875 2426.80078125 478.302734375 c 0,5,6
 2416.79980469 672.79296875 2416.79980469 672.79296875 2244.92480469 668.10546875 c 0,7,8
 2147.79980469 665.79296875 2147.79980469 665.79296875 2003.05175781 542.122070312 c 0,9,10
 1861.390625 422.29296875 1861.390625 422.29296875 1704.125 247.911132812 c 2,11,-1
 1661.88964844 201.079101562 l 1,0,-1
1532.30664062 290.046875 m 1,12,13
 1669 450 1669 450 1762.30859375 541.504882812 c 0,14,15
 1953 729 1953 729 2079.09472656 798.514648438 c 0,16,17
 2209 870 2209 870 2389.84570312 822.475585938 c 0,18,19
 2611 764 2611 764 2613.53613281 435.834960938 c 0,20,21
 2614 373 2614 373 2600.74804688 317.504882812 c 1,22,23
 2692.10183986 187.85546875 2692.10183986 187.85546875 2839.29589844 187.85546875 c 2,24,-1
 2870.6171875 187.85546875 l 1,25,-1
 2870.6171875 -0.990234375 l 1,26,-1
 2813.40136719 -0.990234375 l 2,27,28
 2619 -1 2619 -1 2531.12304688 171.504882812 c 1,29,30
 2483 111 2483 111 2409.03613281 65.9541015625 c 0,31,32
 2297.59193461 -0.242385841374 2297.59193461 -0.242385841374 2162.92578125 -0.3046875 c 2,33,-1
 1751.30859375 -0.4951171875 l 1,34,35
 1486.06076561 -0.000113400383526 1486.06076561 -0.000113400383526 1410.265625 118.532226562 c 2,36,-1
 1384.83886719 158.295898438 l 1,37,-1
 1384.83886719 42.1279296875 l 2,38,39
 1385.00006937 -448.21101051 1385.00006937 -448.21101051 797.298828125 -466.19140625 c 2,40,-1
 777.700195312 -466.791015625 l 1,41,-1
 749.717773438 -466.791015625 l 2,42,43
 123.876953125 -467.000041097 123.876953125 -467.000041097 123.876953125 41.5224609375 c 2,44,-1
 123.876953125 322.848632812 l 2,45,46
 123.999664665 453.642578125 123.999664665 453.642578125 223.729492188 453.642578125 c 2,47,-1
 301.977539062 453.642578125 l 1,48,-1
 301.977539062 42.7314453125 l 2,49,50
 301.999987758 -277.825195312 301.999987758 -277.825195312 751.955078125 -277.825195312 c 2,51,-1
 778.056640625 -277.825195312 l 1,52,-1
 806.666015625 -277.216796875 l 2,53,54
 1209.16015625 -268.996729157 1209.16015625 -268.996729157 1209.16015625 46.96875 c 2,55,-1
 1208.80273438 617.340820312 l 5,56,-1
 1389.67871094 617.432617188 l 1,57,-1
 1389.67871094 488.76171875 l 1,58,59
 1390 300 1390 300 1532.30664062 290.046875 c 1,12,13
EndSplineSet
EndChar

StartChar: uniFEBB
Encoding: 65211 65211 200
Width: 1695
VWidth: 2629
GlyphClass: 2
Flags: W
AnchorPoint: "Anchor-10" 644.443 1285.61 basechar 0
AnchorPoint: "Anchor-7" 644.443 -277.47 basechar 0
LayerCount: 2
Fore
SplineSet
651.581054688 201.57421875 m 5,0,-1
 1072.19335938 201.57421875 l 6,1,2
 1187.49121094 201.288085938 1187.49121094 201.288085938 1283.5546875 243.151367188 c 4,3,4
 1425.49121094 303.288085938 1425.49121094 303.288085938 1416.4921875 478.797851562 c 4,5,6
 1406.49121094 673.288085938 1406.49121094 673.288085938 1234.61621094 668.600585938 c 4,7,8
 1137.49121094 666.288085938 1137.49121094 666.288085938 992.743164062 542.6171875 c 4,9,10
 851.08203125 422.788085938 851.08203125 422.788085938 693.81640625 248.40625 c 6,11,-1
 651.581054688 201.57421875 l 5,0,-1
553 327 m 5,12,13
 667.458007812 459.237304688 667.458007812 459.237304688 752 542 c 4,14,15
 938 728 938 728 1068.78613281 799.009765625 c 4,16,17
 1199.23144531 871.14453125 1199.23144531 871.14453125 1379.53710938 822.970703125 c 4,18,19
 1600 763 1600 763 1603.22753906 436.330078125 c 4,20,21
 1605 190 1605 190 1398.72753906 66.44921875 c 4,22,23
 1287.42480469 0.2529296875 1287.42480469 0.2529296875 1152.6171875 0.1904296875 c 6,24,-1
 741 0 l 6,25,26
 536.774281604 0 536.774281604 0 402.2421875 210.389648438 c 1,27,28
 246.689065566 -0.099609375 246.689065566 -0.099609375 54.7978515625 -0.099609375 c 2,29,-1
 -15.3642578125 -0.099609375 l 1,30,-1
 -15.3642578125 188.866210938 l 1,31,-1
 47.71875 188.866210938 l 1,32,33
 284.303710938 190.000976562 284.303710938 190.000976562 284.303710938 458.282226562 c 2,34,-1
 284.303710938 625.958007812 l 1,35,-1
 450.28515625 625.958007812 l 1,36,-1
 451.370117188 507.185546875 l 2,37,38
 453.00390625 336.596679688 453.00390625 336.596679688 539.791992188 328.267578125 c 2,39,-1
 553 327 l 5,12,13
EndSplineSet
EndChar

StartChar: uniFEBC
Encoding: 65212 65212 201
Width: 1845
VWidth: 2629
GlyphClass: 2
Flags: W
AnchorPoint: "Anchor-10" 706.035 1287.67 basechar 0
AnchorPoint: "Anchor-7" 736.285 -316.19 basechar 0
LayerCount: 2
Fore
SplineSet
651.581054688 201.57421875 m 1,0,-1
 1072.19335938 201.57421875 l 2,1,2
 1187.49121094 201.288085938 1187.49121094 201.288085938 1283.5546875 243.151367188 c 0,3,4
 1425.49121094 303.288085938 1425.49121094 303.288085938 1416.4921875 478.797851562 c 0,5,6
 1406.49121094 673.288085938 1406.49121094 673.288085938 1234.61621094 668.600585938 c 0,7,8
 1137.49121094 666.288085938 1137.49121094 666.288085938 992.743164062 542.6171875 c 0,9,10
 851.08203125 422.788085938 851.08203125 422.788085938 693.81640625 248.40625 c 2,11,-1
 651.581054688 201.57421875 l 1,0,-1
1520.81445312 172 m 1,12,13
 1473 111 1473 111 1398.72753906 66.44921875 c 0,14,15
 1287.42505204 0.252796907085 1287.42505204 0.252796907085 1152.6171875 0.1904296875 c 2,16,-1
 741 0 l 2,17,18
 536.774281604 0 536.774281604 0 402.2421875 210.389648438 c 5,19,-1
 376.736328125 175.875976562 l 2,20,21
 246.926522344 -0.099609375 246.926522344 -0.099609375 54.7978515625 -0.099609375 c 2,22,-1
 -15.3642578125 -0.099609375 l 1,23,-1
 -15.3642578125 188.866210938 l 1,24,-1
 47.71875 188.866210938 l 1,25,26
 284.303710938 190.001457349 284.303710938 190.001457349 284.303710938 458.282226562 c 2,27,-1
 284.303710938 625.958007812 l 1,28,-1
 450.28515625 625.958007812 l 1,29,-1
 451.370117188 507.185546875 l 2,30,31
 453.003862712 336.596671808 453.003862712 336.596671808 539.791992188 328.267578125 c 2,32,-1
 553 327 l 1,33,34
 667 459 667 459 752 542 c 0,35,36
 947 733 947 733 1068.78613281 799.009765625 c 0,37,38
 1201 871 1201 871 1379.53710938 822.970703125 c 0,39,40
 1600 764 1600 764 1603.22753906 436.330078125 c 0,41,42
 1604 373 1604 373 1590.43945312 318 c 1,43,44
 1681.75307815 188.350585938 1681.75307815 188.350585938 1828.98730469 188.350585938 c 2,45,-1
 1860.30859375 188.350585938 l 1,46,-1
 1860.30859375 -0.4951171875 l 1,47,-1
 1803.09277344 -0.4951171875 l 2,48,49
 1608 -0 1608 -0 1520.81445312 172 c 1,12,13
EndSplineSet
EndChar

StartChar: uniFEC2
Encoding: 65218 65218 207
Width: 1567
VWidth: 2629
GlyphClass: 2
Flags: W
AnchorPoint: "Anchor-10" 432.521 1684.64 basechar 0
LayerCount: 2
Fore
SplineSet
411.08984375 202.286132812 m 5,0,-1
 831.702148438 202.286132812 l 6,1,2
 947 202 947 202 1043.06347656 243.86328125 c 4,3,4
 1185 304 1185 304 1176.00097656 479.509765625 c 4,5,6
 1166 674 1166 674 994.125 669.3125 c 4,7,8
 897 667 897 667 752.251953125 543.329101562 c 4,9,10
 610.590820312 423.5 610.590820312 423.5 453.325195312 249.118164062 c 6,11,-1
 411.08984375 202.286132812 l 5,0,-1
1344.90039062 301 m 5,12,13
 1410.79309291 189.350585938 1410.79309291 189.350585938 1556.68066406 189.350585938 c 6,14,-1
 1578.93945312 189.350585938 l 5,15,-1
 1578.93945312 0.5048828125 l 5,16,-1
 1485.47167969 0.5048828125 l 6,17,18
 1366 1 1366 1 1257.03613281 147 c 5,19,20
 1210.19883472 95.9466907112 1210.19883472 95.9466907112 1158.23632812 67.1611328125 c 4,21,22
 1035.38104831 -0.340074812648 1035.38104831 -0.340074812648 912.125976562 -0.09765625 c 6,23,-1
 500.508789062 0.7119140625 l 5,24,-1
 91.4853515625 -0.083984375 l 5,25,-1
 91.4853515625 188.866210938 l 5,26,-1
 192.727539062 188.866210938 l 5,27,28
 262 278 262 278 336 362 c 5,29,-1
 336 1425.50976562 l 5,30,-1
 510.32421875 1425.50976562 l 5,31,-1
 510.32421875 553.294921875 l 5,32,33
 516 559 516 559 522 565 c 4,34,35
 677 720 677 720 828.294921875 795.721679688 c 4,36,37
 973 868 973 868 1139.04589844 823.682617188 c 4,38,39
 1362 764 1362 764 1362.73632812 437.041992188 c 4,40,41
 1363 364 1363 364 1344.90039062 301 c 5,12,13
EndSplineSet
EndChar

StartChar: uniFEC3
Encoding: 65219 65219 208
Width: 1297
VWidth: 2629
GlyphClass: 2
Flags: W
AnchorPoint: "Anchor-10" 215.75 1663.73 basechar 0
AnchorPoint: "Anchor-7" 353.689 -315.19 basechar 0
LayerCount: 2
Fore
SplineSet
254.08984375 202.286132812 m 5,0,-1
 674.702148438 202.286132812 l 6,1,2
 790 202 790 202 886.063476562 243.86328125 c 4,3,4
 1028 304 1028 304 1019.00097656 479.509765625 c 4,5,6
 1009 674 1009 674 837.125 669.3125 c 4,7,8
 740 667 740 667 595.251953125 543.329101562 c 4,9,10
 453.590820312 423.5 453.590820312 423.5 296.325195312 249.118164062 c 6,11,-1
 254.08984375 202.286132812 l 5,0,-1
179 362 m 5,12,13
 179 1425.50976562 l 5,14,-1
 353.32421875 1425.50976562 l 5,15,-1
 353.32421875 553.294921875 l 5,16,17
 359 559 359 559 365 565 c 4,18,19
 520 720 520 720 671.294921875 795.721679688 c 4,20,21
 816 868 816 868 982.045898438 823.682617188 c 4,22,23
 1203 764 1203 764 1205.73632812 437.041992188 c 4,24,25
 1208.01949595 190.89817972 1208.01949595 190.89817972 1001.23632812 67.1611328125 c 4,26,27
 887.396723442 -0.35780687815 887.396723442 -0.35780687815 755.125976562 -0.09765625 c 6,28,-1
 343.508789062 0.7119140625 l 5,29,-1
 -14.5146484375 -0.083984375 l 5,30,-1
 -14.5146484375 188.866210938 l 5,31,-1
 35.7275390625 188.866210938 l 5,32,33
 107 275 107 275 179 362 c 5,12,13
EndSplineSet
EndChar

StartChar: uniFEC4
Encoding: 65220 65220 209
Width: 1416
VWidth: 2629
GlyphClass: 2
Flags: W
AnchorPoint: "Anchor-10" 211.117 1686.11 basechar 0
AnchorPoint: "Anchor-7" 500.863 -306.51 basechar 0
LayerCount: 2
Fore
SplineSet
260.08984375 202.286132812 m 1,0,-1
 680.702148438 202.286132812 l 2,1,2
 796 202 796 202 892.063476562 243.86328125 c 0,3,4
 1034 304 1034 304 1025.00097656 479.509765625 c 0,5,6
 1015 674 1015 674 843.125 669.3125 c 0,7,8
 746 667 746 667 601.251953125 543.329101562 c 0,9,10
 459.590820312 423.5 459.590820312 423.5 302.325195312 249.118164062 c 2,11,-1
 260.08984375 202.286132812 l 1,0,-1
1193.90039062 301 m 1,12,13
 1259.79309291 189.350585938 1259.79309291 189.350585938 1405.68066406 189.350585938 c 2,14,-1
 1427.93945312 189.350585938 l 1,15,-1
 1427.93945312 0.5048828125 l 1,16,-1
 1334.47167969 0.5048828125 l 2,17,18
 1215 1 1215 1 1106.03613281 147 c 1,19,20
 1047 83 1047 83 1007.23632812 67.1611328125 c 0,21,22
 834.380070741 -0.241732692182 834.380070741 -0.241732692182 761.125976562 -0.09765625 c 2,23,-1
 349.508789062 0.7119140625 l 1,24,-1
 -15.5146484375 -0.083984375 l 1,25,-1
 -15.5146484375 188.866210938 l 1,26,-1
 41.7275390625 188.866210938 l 1,27,28
 111 278 111 278 185 362 c 1,29,-1
 185 1425.50976562 l 1,30,-1
 359.32421875 1425.50976562 l 1,31,-1
 359.32421875 553.294921875 l 1,32,33
 365 559 365 559 371 565 c 0,34,35
 526 720 526 720 677.294921875 795.721679688 c 0,36,37
 822 868 822 868 988.045898438 823.682617188 c 0,38,39
 1211 764 1211 764 1211.73632812 437.041992188 c 0,40,41
 1212 364 1212 364 1193.90039062 301 c 1,12,13
EndSplineSet
EndChar

StartChar: uniFECA
Encoding: 65226 65226 215
Width: 1373
VWidth: 2629
GlyphClass: 2
Flags: W
AnchorPoint: "Anchor-10" 621.94 1386.88 basechar 0
AnchorPoint: "Anchor-7" 280.345 -787.654 basechar 0
LayerCount: 2
Fore
SplineSet
1293.00683594 -0.4951171875 m 2,0,1
 956.362452519 -0.4951171875 956.362452519 -0.4951171875 688.481445312 365.435546875 c 1,2,3
 323 148 323 148 316.102539062 -150.67578125 c 0,4,5
 305.0003434 -598.986133391 305.0003434 -598.986133391 859.1484375 -598.609375 c 2,6,-1
 1242.65625 -598.348632812 l 1,7,-1
 1241.60546875 -781.299804688 l 1,8,-1
 876.776367188 -781.549804688 l 2,9,10
 479 -782 479 -782 306 -609 c 4,11,12
 153 -456 153 -456 148.279296875 -154.120117188 c 0,13,14
 142 224 142 224 555.212890625 471.766601562 c 1,15,16
 500 514 500 514 380.9779735 649.979769545 c 0,17,18
 224 830 224 830 336.7421875 962.421875 c 0,19,20
 396 1032 396 1032 515.893581777 1052.1445007 c 0,21,22
 636 1073 636 1073 848.909340227 1058.8343335 c 0,23,24
 1061 1045 1061 1045 1116.46484375 920.856445312 c 0,25,26
 1146 855 1146 855 1132.55371094 798.875976562 c 0,27,28
 1100 656 1100 656 792.223632812 466.680664062 c 1,29,-1
 801.354492188 454.5625 l 2,30,31
 1001.73610882 188.350585938 1001.73610882 188.350585938 1295.3046875 188.350585938 c 2,32,-1
 1396.69628906 188.350585938 l 1,33,-1
 1396.69628906 -0.4951171875 l 1,34,-1
 1293.00683594 -0.4951171875 l 2,0,1
963.786132812 815.162109375 m 0,35,36
 963.786132812 916.620117188 963.786132812 916.620117188 686.228515625 916.620117188 c 0,37,38
 470.275836978 916.620117188 470.275836978 916.620117188 462.19921875 836.450195312 c 0,39,40
 459.899351296 813.624545464 459.899351296 813.624545464 477.708984375 790.383789062 c 0,41,42
 551.40744964 689.355175262 551.40744964 689.355175262 683.961914062 573.220703125 c 1,43,44
 744.609384222 602.081181596 744.609384222 602.081181596 879.0625 697.823242188 c 0,45,46
 963.786132812 758.16015625 963.786132812 758.16015625 963.786132812 815.162109375 c 0,35,36
EndSplineSet
EndChar

StartChar: uniFECB
Encoding: 65227 65227 216
Width: 1151
VWidth: 2629
GlyphClass: 2
Flags: W
AnchorPoint: "Anchor-10" 401.651 1462.79 basechar 0
AnchorPoint: "Anchor-7" 556.936 -273.235 basechar 0
LayerCount: 2
Fore
SplineSet
320.057617188 187.94921875 m 1,0,1
 95.041512477 434.048293378 95.041512477 434.048293378 204.348632812 672.698242188 c 4,2,3
 308 898 308 898 616.365234375 898.3671875 c 0,4,5
 865 899 865 899 979.143554688 773.979492188 c 1,6,-1
 923.33203125 627.658203125 l 1,7,8
 747 765 747 765 513.224609375 703.197265625 c 0,9,10
 422 679 422 679 378.251953125 621.904296875 c 0,11,12
 314 536 314 536 347.237304688 428.65625 c 0,13,14
 387 300 387 300 508 242 c 0,15,16
 580.775909958 207.107440431 580.775909958 207.107440431 756.118164062 245.596679688 c 2,17,-1
 1059.08007812 312.099609375 l 1,18,-1
 1059.08007812 122.15625 l 1,19,20
 493.427981683 -1.12466840299 493.427981683 -1.12466840299 381.193359375 -1.119140625 c 2,21,-1
 -15.3642578125 -1.099609375 l 1,22,-1
 -15.3642578125 187.866210938 l 1,23,-1
 320.057617188 187.94921875 l 1,0,1
EndSplineSet
EndChar

StartChar: uniFECC
Encoding: 65228 65228 217
Width: 1127
VWidth: 2629
GlyphClass: 2
Flags: W
AnchorPoint: "Anchor-10" 516.162 1242.89 basechar 0
AnchorPoint: "Anchor-7" 465.342 -274.445 basechar 0
LayerCount: 2
Fore
SplineSet
792.6015625 592.99609375 m 0,0,1
 792.1328125 688.322265625 792.1328125 688.322265625 570.934570312 689.573242188 c 0,2,3
 301.555664062 688.157226562 301.555664062 688.157226562 326.971679688 589.120117188 c 0,4,5
 337.265625 554.036132812 337.265625 554.036132812 409.7421875 502.721679688 c 0,6,7
 546.361328125 405.993164062 546.361328125 405.993164062 570.55859375 393.185546875 c 1,8,9
 606 404 606 404 743.62890625 517.522460938 c 0,10,11
 792.251634206 555.845987136 792.251634206 555.845987136 792.6015625 592.99609375 c 0,0,1
459.296875 269.104492188 m 1,12,13
 115.861289456 463.614916763 115.861289456 463.614916763 124.196289062 625.686523438 c 0,14,15
 130.719726562 749.385742188 130.719726562 749.385742188 264.729492188 813.620117188 c 0,16,17
 355.247070312 857.020507812 355.247070312 857.020507812 553.75390625 857.034179688 c 0,18,19
 836.444224344 857.012309448 836.444224344 857.012309448 932.177734375 772.043945312 c 0,20,21
 998.114477637 713.521728696 998.114477637 713.521728696 982.557238818 579.760864348 c 128,-1,22
 967 446 967 446 676.627929688 264.99609375 c 1,23,24
 729.465932475 184.193277301 729.465932475 184.193277301 1103.46191406 187.866210938 c 2,25,-1
 1138.796875 188.212890625 l 1,26,-1
 1138.796875 -0.4951171875 l 1,27,-1
 1074.82226562 -0.4951171875 l 2,28,29
 676.071519489 -1.09218526696 676.071519489 -1.09218526696 573.7421875 101.80078125 c 2,30,-1
 564.232421875 111.36328125 l 1,31,-1
 554.454101562 102.075195312 l 2,32,33
 445.8203125 -1.099609375 445.8203125 -1.099609375 49.44140625 -1.099609375 c 2,34,-1
 -12.09375 -1.099609375 l 1,35,-1
 -12.09375 187.866210938 l 1,36,-1
 20.958984375 187.866210938 l 2,37,38
 400.273562665 187.883999082 400.273562665 187.883999082 459.296875 269.104492188 c 1,12,13
EndSplineSet
EndChar

StartChar: uniFEDA
Encoding: 65242 65242 231
Width: 2091
VWidth: 2629
GlyphClass: 2
Flags: W
AnchorPoint: "Anchor-10" 652.19 1645.83 basechar 0
AnchorPoint: "Anchor-7" 556.6 -326.475 basechar 0
LayerCount: 2
Fore
SplineSet
751.731492184 832.646563017 m 2,0,1
 818.610684715 824.217773438 818.610684715 824.217773438 885.618787521 824.217773438 c 128,-1,2
 952.626890326 824.217773438 952.626890326 824.217773438 1010.47004019 846.69983759 c 0,3,4
 1099.07128906 881.13674093 1099.07128906 881.13674093 1099.07128906 937.313711584 c 128,-1,5
 1099.07128906 993.490682238 1099.07128906 993.490682238 1004.68372646 1008.42415372 c 128,-1,6
 910.296163858 1023.3576252 910.296163858 1023.3576252 873.862215536 1071.00975415 c 0,7,8
 818.447794255 1143.48653118 818.447794255 1143.48653118 843.186485528 1221.24366415 c 0,9,10
 891.178602968 1372.08953613 891.178602968 1372.08953613 1161.55439778 1392.18319909 c 2,11,-1
 1188.40722656 1394.17883517 l 1,12,-1
 1188.40722656 1296.82893605 l 1,13,-1
 1165.43411082 1294.96023035 l 2,14,15
 987.244314959 1280.46571034 987.244314959 1280.46571034 942.841395493 1206.65082286 c 0,16,17
 939.827148438 1201.63997426 939.827148438 1201.63997426 939.827148438 1175.64692979 c 0,18,19
 939.827148438 1123.28705661 939.827148438 1123.28705661 997.580706575 1104.70698182 c 0,20,21
 1026.52866736 1095.39404434 1026.52866736 1095.39404434 1079.15677562 1087.65297174 c 128,-1,22
 1131.78488389 1079.91189914 1131.78488389 1079.91189914 1165.71177788 1047.04847223 c 128,-1,23
 1199.63867188 1014.18504531 1199.63867188 1014.18504531 1199.63867188 956.42276429 c 128,-1,24
 1199.63867188 898.660483266 1199.63867188 898.660483266 1176.09401839 861.25402741 c 0,25,26
 1060.99605913 678.392694004 1060.99605913 678.392694004 744.744723594 727.824319997 c 2,27,-1
 723.60546875 731.128488618 l 1,28,-1
 723.60546875 836.19128783 l 1,29,-1
 751.731492184 832.646563017 l 2,0,1
2044.07714844 -1.099609375 m 2,30,31
 1841.07806484 -1.099609375 1841.07806484 -1.099609375 1737.0390625 131.65234375 c 1,32,-1
 1728.31738281 120.7421875 l 2,33,34
 1630.92037498 -1.099609375 1630.92037498 -1.099609375 1433.68066406 -1.099609375 c 2,35,-1
 504.120117188 -1.099609375 l 2,36,37
 149 -1 149 -1 127.5 386 c 0,38,39
 124 450 124 450 123.90625 451.553710938 c 2,40,-1
 123.905273438 669.783203125 l 1,41,-1
 302.004882812 669.783203125 l 1,42,-1
 302.004882812 462.444335938 l 2,43,44
 301.99999762 187.866210938 301.99999762 187.866210938 508.774414062 187.866210938 c 2,45,-1
 1441.12207031 187.866210938 l 1,46,47
 1647.89257813 189.0424679 1647.89257813 189.0424679 1647.89257812 426.233398438 c 6,48,-1
 1647.89257812 1423.90527344 l 1,49,-1
 1825.99316406 1423.90527344 l 1,50,-1
 1825.99316406 400.063476562 l 2,51,52
 1826.00000825 187.744140625 1826.00000825 187.744140625 2054.78613281 187.744140625 c 2,53,-1
 2101.78808594 187.744140625 l 1,54,-1
 2101.78808594 -1.099609375 l 1,55,-1
 2044.07714844 -1.099609375 l 2,30,31
EndSplineSet
EndChar

StartChar: uniFEDB
Encoding: 65243 65243 232
Width: 905
VWidth: 2629
GlyphClass: 2
Flags: W
AnchorPoint: "Anchor-10" 300.185 1508.94 basechar 0
AnchorPoint: "Anchor-7" 429.05 -286.15 basechar 0
LayerCount: 2
Fore
SplineSet
398.376953125 -0.099609375 m 6,0,-1
 -15.7841796875 -0.099609375 l 5,1,-1
 -15.7841796875 188.866210938 l 5,2,-1
 348.370117188 188.89453125 l 6,3,4
 565 189 565 189 565.678710938 329.641601562 c 4,5,6
 565.998327459 388.690996841 565.998327459 388.690996841 454.538085938 515.768554688 c 6,7,-1
 175.374023438 834.047851562 l 6,8,9
 121 896 121 896 96.6728515625 929 c 4,10,11
 67 968 67 968 71.7646484375 1028 c 4,12,13
 81.9854453695 1149.82651647 81.9854453695 1149.82651647 191.036132812 1189.6796875 c 6,14,-1
 854.124023438 1432.00878906 l 5,15,-1
 854.124023438 1248.55371094 l 5,16,-1
 222.651367188 1034.40527344 l 5,17,-1
 568.780273438 643.798828125 l 6,18,19
 744 446 744 446 726.939453125 299.114257812 c 4,20,21
 709 136 709 136 576 48 c 4,22,23
 503 -0 503 -0 398.376953125 -0.099609375 c 6,0,-1
EndSplineSet
EndChar

StartChar: uniFEDC
Encoding: 65244 65244 233
Width: 1088
VWidth: 2629
GlyphClass: 2
Flags: W
AnchorPoint: "Anchor-10" 297.185 1441.94 basechar 0
AnchorPoint: "Anchor-7" 312.18 -345.23 basechar 0
LayerCount: 2
Fore
SplineSet
712 230 m 1,0,1
 635.967228084 -1.099609375 635.967228084 -1.099609375 395.376953125 -1.099609375 c 2,2,-1
 -15.7841796875 -1.099609375 l 1,3,-1
 -15.7841796875 187.866210938 l 1,4,-1
 345.370117188 187.89453125 l 2,5,6
 562 188 562 188 562.678710938 328.641601562 c 0,7,8
 562.998327459 387.690996841 562.998327459 387.690996841 451.538085938 514.768554688 c 2,9,-1
 172.374023438 833.047851562 l 2,10,11
 118 895 118 895 93.6728515625 928 c 0,12,13
 64 967 64 967 68.7646484375 1027 c 0,14,15
 78.9996801284 1149.99615605 78.9996801284 1149.99615605 188.036132812 1189.6796875 c 2,16,-1
 851.124023438 1431.00878906 l 1,17,-1
 851.124023438 1247.55371094 l 1,18,-1
 219.651367188 1033.40527344 l 1,19,-1
 828 345 l 2,20,21
 965.69184166 188.350585938 965.69184166 188.350585938 1073.765625 188.350585938 c 2,22,-1
 1102.13183594 188.350585938 l 1,23,-1
 1102.13183594 -0.4951171875 l 1,24,-1
 1083.9765625 -0.4951171875 l 6,25,26
 874 -0 874 -0 712 230 c 1,0,1
EndSplineSet
EndChar

StartChar: uniFEDE
Encoding: 65246 65246 235
Width: 1625
VWidth: 2629
GlyphClass: 2
Flags: W
AnchorPoint: "Anchor-10" 520.365 1215.07 basechar 0
AnchorPoint: "Anchor-7" 292.691 -701.333 basechar 0
LayerCount: 2
Fore
SplineSet
269.977539062 42.7314453125 m 2,0,1
 269.977539062 -311.706054688 269.977539062 -311.706054688 719.955078125 -311.706054688 c 2,2,-1
 746.057617188 -311.706054688 l 1,3,-1
 774.666015625 -311.096679688 l 2,4,5
 1175.94686985 -303.00107187 1175.94686985 -303.00107187 1180.7890625 46.77734375 c 2,6,-1
 1181.48144531 96.7919921875 l 1,7,8
 1181 395 1181 395 1180.80078125 444.077148438 c 2,9,-1
 1180.80078125 1423.33691406 l 1,10,-1
 1353.91601562 1423.33691406 l 1,11,-1
 1353.91601562 444.0859375 l 2,12,13
 1354.08501759 188.350585937 1354.08501759 188.350585937 1582.73046875 188.350585938 c 6,14,-1
 1650.30371094 188.350585938 l 1,15,-1
 1650.30371094 -0.4951171875 l 1,16,-1
 1599.85253906 -0.4951171875 l 2,17,18
 1413 -0 1413 -0 1353.39453125 90.6845703125 c 1,19,-1
 1352.83984375 42.2861328125 l 2,20,21
 1346.99726511 -482.245530961 1346.99726511 -482.245530961 765.297851562 -500.071289062 c 2,22,-1
 745.69921875 -500.671875 l 1,23,-1
 717.717773438 -500.671875 l 2,24,25
 91.876953125 -501.000064526 91.876953125 -501.000064526 91.876953125 41.5224609375 c 2,26,-1
 91.876953125 322.848632812 l 2,27,28
 91.999664665 453.642578125 91.999664665 453.642578125 191.729492188 453.642578125 c 2,29,-1
 269.977539062 453.642578125 l 1,30,-1
 269.977539062 42.7314453125 l 2,0,1
EndSplineSet
EndChar

StartChar: uniFEDF
Encoding: 65247 65247 236
Width: 554
VWidth: 2629
GlyphClass: 2
Flags: W
AnchorPoint: "Anchor-10" 300.703 1619.22 basechar 0
AnchorPoint: "Anchor-7" 181.453 -253.005 basechar 0
LayerCount: 2
Fore
SplineSet
31.107421875 -0.099609375 m 2,0,-1
 -15.3369140625 -0.099609375 l 1,1,-1
 -15.3369140625 188.866210938 l 1,2,-1
 52.5478515625 188.866210938 l 2,3,4
 245.31640625 189.00021996 245.31640625 189.00021996 245.31640625 412.233398438 c 6,5,-1
 245.31640625 1424.90527344 l 1,6,-1
 423.416992188 1424.90527344 l 1,7,-1
 423.416992188 404.063476562 l 6,8,9
 423 -0 423 -0 31.107421875 -0.099609375 c 2,0,-1
EndSplineSet
EndChar

StartChar: uniFEE0
Encoding: 65248 65248 237
Width: 786
VWidth: 2629
GlyphClass: 2
Flags: W
AnchorPoint: "Anchor-10" 379.613 1703.3 basechar 0
AnchorPoint: "Anchor-7" 294.913 -304.695 basechar 0
LayerCount: 2
Fore
SplineSet
542.295898438 475.524414062 m 2,0,1
 542.295898438 187.866210938 542.295898438 187.866210938 761.828125 187.866210938 c 2,2,-1
 829.400390625 187.866210938 l 1,3,-1
 829.400390625 -1.099609375 l 1,4,-1
 751.619140625 -1.099609375 l 2,5,6
 580 -1 580 -1 454.853515625 134.951171875 c 1,7,8
 332.910719765 -1.099609375 332.910719765 -1.099609375 97.6474609375 -1.099609375 c 2,9,-1
 -41.134765625 -1.099609375 l 1,10,-1
 -41.134765625 187.866210938 l 1,11,-1
 85.4375 187.866210938 l 6,12,13
 367.970703125 187.999986128 367.970703125 187.999986128 367.970703125 476.735351562 c 2,14,-1
 367.970703125 1424.4609375 l 1,15,-1
 542.295898438 1424.4609375 l 1,16,-1
 542.295898438 475.524414062 l 2,0,1
EndSplineSet
EndChar

StartChar: uniFEE2
Encoding: 65250 65250 239
Width: 1391
VWidth: 2629
GlyphClass: 2
Flags: W
AnchorPoint: "Anchor-10" 602.645 1186.63 basechar 0
LayerCount: 2
Fore
SplineSet
853.439453125 597.026367188 m 0,0,1
 713.546875 596.845703125 713.546875 596.845703125 698.439453125 584.217773438 c 128,-1,2
 683.33203125 571.590820312 683.33203125 571.590820312 683.33203125 409.4921875 c 128,-1,3
 683.33203125 247.393554688 683.33203125 247.393554688 735.1953125 194.258789062 c 128,-1,4
 787.059570312 141.124023438 787.059570312 141.124023438 880.14453125 141.124023438 c 0,5,6
 892.172851562 141.124023438 892.172851562 141.124023438 904.857421875 142.044921875 c 0,7,8
 1046 152 1046 152 1052.44921875 413.529296875 c 0,9,10
 1052.54882812 417.541015625 1052.54882812 417.541015625 1052.54882812 421.465820312 c 0,11,12
 1052.54882812 597.000976562 1052.54882812 597.000976562 853.439453125 597.026367188 c 0,0,1
1155 125 m 1,14,15
 1110 55 1110 55 1067.87792969 27.7412109375 c 0,16,17
 991 -23 991 -23 846 -16 c 0,18,19
 714 -10 714 -10 627 73 c 0,20,21
 505 189 505 189 512.2578125 435.280273438 c 0,22,23
 515 530 515 530 519.134765625 571.396484375 c 1,24,25
 264.959960938 549.996628973 264.959960938 549.996628973 264.959960938 162.919921875 c 2,26,-1
 264.959960938 -511.770507812 l 1,27,-1
 91.7001953125 -511.770507812 l 1,28,-1
 91.7001953125 158.33984375 l 2,29,30
 92 720 92 720 503.666015625 761.381835938 c 1,31,-1
 951.712890625 761.380859375 l 1,32,33
 1198 759 1198 759 1219.01953125 476.965820312 c 0,34,35
 1223.24572627 417.596066889 1223.24572627 417.596066889 1221.69921875 401.034179688 c 0,36,37
 1218 337 1218 337 1215 254 c 24,38,39
 1213.70609473 187.017168781 1213.70609473 187.017168781 1357.08007812 186.6796875 c 2,40,-1
 1406.20019531 186.6796875 l 1,41,-1
 1406.20019531 -1.099609375 l 1,42,-1
 1366.140625 -1.099609375 l 2,43,44
 1216 -1 1216 -1 1155 125 c 1,14,15
EndSplineSet
EndChar

StartChar: uniFEE3
Encoding: 65251 65251 240
Width: 974
VWidth: 2629
GlyphClass: 2
Flags: W
AnchorPoint: "Anchor-10" 408.604 1094.07 basechar 0
AnchorPoint: "Anchor-7" 415.865 -263.555 basechar 0
LayerCount: 2
Fore
SplineSet
830.139648438 128.928710938 m 0,0,1
 760 -15 760 -15 521.297977379 -13.7891762344 c 0,2,3
 307 -13 307 -13 245.184570312 94.224609375 c 1,4,5
 179.931813905 -1.099609375 179.931813905 -1.099609375 43.5361328125 -1.099609375 c 2,6,-1
 -15.3642578125 -1.099609375 l 1,7,-1
 -15.3642578125 187.864257812 l 1,8,-1
 61.6611328125 187.864257812 l 2,9,10
 152 188 152 188 168.098632812 258.54296875 c 17,11,12
 168 301 168 301 168.423928404 317 c 0,13,14
 169 538 169 538 206.202148438 628.286132812 c 4,15,16
 280 812 280 812 505.35546875 826.770507812 c 0,17,18
 509 827 509 827 512.609407238 826.81074142 c 0,19,20
 817 827 817 827 865.740234375 574.002929688 c 0,21,22
 883 485 883 485 882.8125 388.270507812 c 0,23,24
 883 237 883 237 830.139648438 128.928710938 c 0,0,1
343.90234375 409.54296875 m 0,25,26
 340 164 340 164 531.521484375 162.721679688 c 0,27,28
 710 162 710 162 710 416.5 c 0,29,30
 710 656 710 656 529.931640625 655.783203125 c 24,31,32
 348 656 348 656 343.90234375 409.54296875 c 0,25,26
EndSplineSet
EndChar

StartChar: uniFEE4
Encoding: 65252 65252 241
Width: 1079
VWidth: 2629
GlyphClass: 2
Flags: W
AnchorPoint: "Anchor-10" 527.306 1193.29 basechar 0
AnchorPoint: "Anchor-7" 505.526 -286.545 basechar 0
LayerCount: 2
Fore
SplineSet
363.193359375 346.01953125 m 4,0,1
 386 140 386 140 581.1796875 164.287109375 c 0,2,3
 712 180 712 180 719.522460938 346.881835938 c 0,4,5
 733 632 733 632 599.036132812 656.56640625 c 0,6,7
 580 660 580 660 557.68359375 660.703125 c 0,8,9
 390 663 390 663 365.892578125 475.83984375 c 4,10,11
 357 406 357 406 363.193359375 346.01953125 c 4,0,1
58.103515625 187.864257812 m 2,12,13
 184.982688047 187.864257812 184.982688047 187.864257812 191.095703125 260.024414062 c 1,14,15
 189.178710938 484.876953125 189.178710938 484.876953125 217.630859375 584.89453125 c 0,16,17
 287.379882812 830.0859375 287.379882812 830.0859375 552.881347656 830.0859375 c 128,-1,18
 818.3828125 830.0859375 818.3828125 830.0859375 867.209960938 579.936523438 c 0,19,20
 890.239257812 463.774414062 890.239257812 463.774414062 883.19921875 283.650390625 c 0,21,22
 882.674289175 278.771264342 882.674289175 278.771264342 882.6640625 273.6640625 c 0,23,24
 882.513671875 187.999023438 882.513671875 187.999023438 1028.83886719 187.999023438 c 2,25,-1
 1089.93847656 187.999023438 l 1,26,-1
 1089.93847656 -0.845703125 l 1,27,-1
 1003.61035156 -0.845703125 l 2,28,29
 884.950195312 -0.845703125 884.950195312 -0.845703125 835.577148438 78.107421875 c 2,30,-1
 823.235351562 97.8427734375 l 1,31,-1
 811.842773438 77.544921875 l 2,32,33
 762.126908585 -11.01906901 762.126908585 -11.01906901 555.51950898 -13.79273763 c 128,-1,34
 348.912109375 -16.56640625 348.912109375 -16.56640625 269.333007812 77.294921875 c 2,35,-1
 260.015625 88.283203125 l 1,36,37
 163.359750176 -1.099609375 163.359750176 -1.099609375 50.3359375 -1.099609375 c 2,38,-1
 -10.884765625 -1.099609375 l 1,39,-1
 -10.884765625 187.864257812 l 1,40,-1
 58.103515625 187.864257812 l 2,12,13
EndSplineSet
EndChar

StartChar: uniFEEA
Encoding: 65258 65258 247
Width: 1101
VWidth: 2629
GlyphClass: 2
Flags: W
AnchorPoint: "Anchor-10" 657.92 1296.81 basechar 0
AnchorPoint: "Anchor-7" 328.125 -286.15 basechar 0
LayerCount: 2
Fore
SplineSet
699.211914062 409.522460938 m 1,0,-1
 644 710 l 1,1,2
 249 658 249 658 250.961914062 492.62890625 c 0,3,4
 253 362 253 362 699.211914062 409.522460938 c 1,0,-1
757.662109375 227.111328125 m 1,5,6
 115 156 115 156 91 443 c 0,7,8
 63 782 63 782 604.806640625 871.875976562 c 1,9,-1
 588.806640625 963.875976562 l 1,10,-1
 766.471679688 987.982421875 l 1,11,-1
 865.193359375 421.98828125 l 2,12,13
 906 189 906 189 1085.63085938 188.890625 c 2,14,-1
 1120.86914062 188.869140625 l 5,15,-1
 1122.04199219 -0.099609375 l 1,16,-1
 1063.93945312 -0.099609375 l 2,17,18
 822 0 822 0 757.662109375 227.111328125 c 1,5,6
EndSplineSet
EndChar

